<svg version="1" xmlns="http://www.w3.org/2000/svg" width="933.333" height="933.333" viewBox="0 0 700.000000 700.000000"><path d="M285 120.7c-30.5 37.6-57.4 70.8-59.7 73.7l-4.2 5.3 59.6 21.6c32.9 11.9 59.8 21.5 60 21.3.2-.1.2-43 .1-95.3l-.3-95-55.5 68.4zM350 147.9c0 90.4.1 95.3 1.8 94.6.9-.3 27.8-10.1 59.7-21.6 31.9-11.6 58.1-21.2 58.2-21.3.3-.3-114.4-141.6-117.8-145.1-1.9-1.9-1.9-.2-1.9 93.4zM437 220.5c-4.7 1.7-12 4.4-16.2 5.9l-7.8 2.8v16.5l33.8 11.9 33.7 12 .3 22.7c.1 12.5.3 22.7.5 22.7.1 0 13-4.7 28.7-10.4l28.5-10.3v-42.5L497 236.4c-22.8-8.4-43.7-16.2-46.5-17.2l-5-1.9-8.5 3.2zM239 220.9c-4.1 1.5-25.6 9.2-47.7 17.1L151 252.3v20.4c0 15.4.3 20.5 1.3 20.8.6.2 13.3 4.7 28.1 9.9 14.8 5.3 27.2 9.6 27.6 9.6.4 0 1-9.1 1.4-20.1.4-11.1 1-20.7 1.2-21.4.3-.7 15.1-6.5 33-13l32.4-11.7v-18.4l-14.4-5.2c-7.9-2.9-14.5-5.2-14.7-5.1-.2 0-3.8 1.3-7.9 2.8zM507 231.1c1.4.6 10.4 4 19.9 7.5 15.9 5.9 18.4 6.5 27 7l9.6.4-28.5-7.9c-27.2-7.7-33.5-9.2-28-7zM154.5 238.6l-27 7.4 9.5-.5c8.5-.5 11.5-1.2 28-7.1 28.2-10 26.5-9.9-10.5.2z"/><path d="M270.7 257.9c-24.2 8.7-42.2 15.8-41.5 16.2 1.7.9 115.3 41.9 116.1 41.9 1.2 0 116.2-42.2 116.9-42.9.6-.5-82.4-30.4-84.7-30.4-.5 0-8 2.5-16.6 5.7l-15.5 5.7-16-5.8-15.9-5.8-42.8 15.4zM109.7 255.8c-14.7 1-21.7 1.9-21.4 2.6 2.5 6.4 38.3 84.6 38.8 84.6.3 0 4-8 8.3-17.8l7.6-17.7V254l-5.7.1c-3.2.1-15.6.9-27.6 1.7zM548 277.5V301l8.7 19.5c5.3 12.1 8.9 19.1 9.4 18.3 1.7-3 36-81.1 35.7-81.3-.3-.2-50.2-3.6-52.5-3.5-1 0-1.3 5.4-1.3 23.5zM153.2 304.7c-3.1 6-58.4 135.5-58 135.8.3.3 40.4-21 89.2-47.2 56.2-30.2 88.2-47.9 87.4-48.4-1.5-.9-116.3-41.9-117.2-41.9-.3 0-.9.8-1.4 1.7zM480.6 324c-31.8 11.5-58 21-58.2 21.2-.4.5 176 92.7 176.5 92.2s-59-134.4-59.8-134.3c-.3 0-26.6 9.4-58.5 20.9zM187.2 400.7c-49.6 26.8-90.1 48.7-90 48.9.2.1 39.7 10.4 87.8 22.9 48.1 12.4 89 23 90.8 23.5l3.2.8v-72.4c0-39.8-.3-72.4-.7-72.3-.5 0-41.4 21.9-91.1 48.6zM415 422.9c0 58.4.2 71.1 1.3 71.1.8 0 40.2-10.3 87.8-22.9 47.5-12.6 87.9-23.3 89.8-23.8 3.2-.8 1.6-1.7-38-22.5-114.5-59.8-137.5-71.7-139.1-72.4-1.7-.6-1.8 3.2-1.8 70.5z"/><path d="M301 473.9l-12.5 4.8-.5 12.4c-.3 6.8-.9 13-1.3 13.6-1.3 2-3.7 1.6-24.5-3.8l-19.4-5-7.9 2.8c-4.4 1.5-7.9 3-7.9 3.3 0 .4 113.7 41.2 117.6 42.2 1.3.3 119.4-41.4 119.4-42.2 0-.3-4-2-8.9-3.7l-8.9-3.2-18 4.7c-15.3 4-18.2 4.5-19.6 3.3-1.3-1.1-1.6-3.4-1.6-12.1v-10.7l-15.5-5.7-15.5-5.7-15.5 5.3-15.4 5.3-15.3-5.3c-8.4-2.9-15.5-5.2-15.8-5.2-.3.1-6.1 2.3-13 4.9zM227.7 512.4c.4.6 25.9 31.9 56.7 69.5l56.1 68.4.3-48.8c.1-26.8 0-49-.3-49.3-1.2-1.2-113.4-40.8-112.8-39.8zM407 531.5l-56.5 20.3-.3 49.3c-.2 41.8 0 49.1 1.2 47.9 1.2-1.4 109.6-133.8 111.9-136.8 1.2-1.5 9-4.2-56.3 19.3z"/></svg>