<svg version="1" xmlns="http://www.w3.org/2000/svg" width="933.333" height="933.333" viewBox="0 0 700.000000 700.000000"><path d="M349 146.7c0 76.4.3 96.3 1.3 96.3 2.6 0 119.2-42.8 119.2-43.8 0-.7-104.1-129.3-118.7-146.7-1.6-1.9-1.7 3.2-1.8 94.2zM281.2 124.9c-32.5 40.1-59.3 73.4-59.4 74.1-.3 1 115.6 44 118.8 44 1.2 0 1.4-15.1 1.4-95.5 0-52.5-.4-95.5-.8-95.5-.5 0-27.5 32.8-60 72.9zM429 222.9l-15.5 5.8v17.5l32.5 11.5c17.9 6.3 33.1 12 33.8 12.5.9.8 1.2 6.6 1.2 22.9 0 12.1.3 21.9.8 21.9.4 0 13.5-4.7 29.2-10.3l28.5-10.3v-42.6l-46.9-17.4c-25.9-9.6-47.2-17.4-47.5-17.3-.4 0-7.6 2.6-16.1 5.8zM198.5 234.9l-47 16.8-.3 21.1c-.2 16.6 0 21.2 1 21.2.7 0 13.7 4.5 28.8 9.9l27.5 9.9.7-4.7c.3-2.5.7-11.6.7-20.2.1-10.7.5-16 1.4-17.2.6-.9 15.4-6.7 32.7-13l31.5-11.4.3-9.5c.2-8.4.1-9.6-1.5-10.3-8.7-3.4-26.3-9.5-27.4-9.4-.8 0-22.5 7.6-48.4 16.8zM159 236.9c-17.9 4.8-33.2 9-34 9.3-.8.4 3.5.4 9.5.1 10.5-.6 12-1 32-8.1 36.8-13 36.4-13.1-7.5-1.3zM499.1 228.5c.3.2 10.8 4.2 23.5 8.9 22 8 23.3 8.4 33.9 9 6 .4 10.7.5 10.5.2-.5-.4-66.5-18.6-67.7-18.6-.4 0-.4.2-.2.5z"/><path d="M269.3 257.8c-23.8 8.6-43.1 15.7-43 15.9.2.1 27 9.9 59.6 21.7l59.4 21.4 59.3-21.6c32.7-12 59.4-22 59.4-22.3 0-.3-19.4-7.5-43.2-15.9l-43.1-15.2-7.1 2.5c-3.9 1.4-11.2 4-16.2 5.8l-9.1 3.3-15.7-5.7c-8.6-3.1-16-5.7-16.4-5.6-.4 0-20.1 7-43.9 15.7zM116.5 255.1c-13.2 1-25 1.8-26.3 1.8-1.5.1-2.2.6-2 1.6.5 2.5 38.3 85.5 38.9 85.5.3 0 4-8 8.2-17.8l7.7-17.7v-27.8c0-21.6-.3-27.7-1.2-27.6-.7.1-12.1 1-25.3 2zM547.6 253.7c-.3.3-.6 10.9-.6 23.3v22.8l8.8 19.6c4.8 10.9 9.1 19.7 9.6 19.7.5.1 8.4-16.7 17.6-37.3 19.1-43.1 19.4-43.7 18.8-44.3-.2-.2-10.5-1.1-22.8-1.9-12.4-.9-24.4-1.8-26.6-2-2.3-.3-4.4-.2-4.8.1zM217.5 297.7c-.4 10.1-.6 18.6-.4 18.7.2.2 15.9 5.9 34.9 12.7l34.5 12.4.3 54.7c.2 50.8.3 54.6 2 55.3 3.2 1.3 51.1 17.5 51.6 17.5.4 0 .5-32.7.4-72.7l-.3-72.8-18.5-6.7c-10.2-3.6-37.7-13.6-61.1-22l-42.7-15.4-.7 18.3zM410 301.4l-60.5 22.3-.3 72.6c-.1 40 .1 72.7.5 72.7.5 0 13.5-4.3 29-9.7l28.3-9.8v-53.1c0-43.6.2-53.4 1.4-54.3.7-.6 15.4-6.2 32.7-12.4l31.4-11.4.3-19.6c.2-15.5 0-19.7-1-19.6-.7.1-28.5 10.1-61.8 22.3z"/><path d="M153.1 303.8c-2.7 5.4-59.2 137.4-58.9 137.8.3.2 40.8-21.3 90.1-47.8 49.3-26.5 89.4-48.5 89-48.8-.5-.4-24-8.9-52.3-19-28.3-10-55-19.6-59.2-21.1-7.2-2.6-7.8-2.7-8.7-1.1zM479.7 324c-31.9 11.5-58 21-58.2 21.2-.4.4 177.9 93.6 178.3 93.3.9-.8-59.6-135-60.9-135.2-.8-.1-27.4 9.2-59.2 20.7zM189.9 398.9c-48.8 26.2-89.7 48.4-91 49.3-2.4 1.6-2.4 1.6 3.1 3.1 9.8 2.8 176 45.7 177 45.7.6 0 1-26.8 1-73 0-40.2-.3-73-.7-72.9-.5 0-40.7 21.5-89.4 47.8zM415 423c0 68.2.1 72.1 1.8 71.6.9-.3 41.7-11.1 90.7-24.1 48.9-13 89.1-23.7 89.3-23.9.4-.5-8.5-5.3-63.8-34.1-25-13.1-59.9-31.3-77.5-40.5s-33.9-17.7-36.2-18.9L415 351v72z"/><path d="M300 473.8l-12.5 4.7-.5 12.9c-.4 10-.8 13.1-2 13.8-1 .6-8.2-.8-22-4.4l-20.4-5.4-8.3 3.1c-4.6 1.6-8.3 3.2-8.3 3.5 0 .3 26.9 10.1 59.7 21.8l59.6 21.3 59.9-21.3c32.9-11.7 59.8-21.5 59.8-21.8 0-.6-17.3-7-18.9-7-.7 0-8.8 2-18.1 4.5-14 3.7-18.9 4.5-20.1 3.1-.1 0-.4-5.2-.8-11.5l-.6-11.3-14.5-5.4c-8-3-15.2-5.4-16-5.4-.8 0-8.1 2.3-16.2 5.1l-14.6 5.1-14.7-5.1c-8-2.8-15.4-5.1-16.3-5-.9 0-7.3 2.2-14.2 4.7zM229.8 515.7c2.2 2.7 27.9 34 57.2 69.8 29.2 35.7 53.6 65.2 54.1 65.3.6.2.8-19.3.7-49.3l-.3-49.7-57-20.4c-31.3-11.2-57.4-20.4-57.8-20.4-.5 0 .9 2.1 3.1 4.7zM406 531.5l-56.5 20.3-.3 49.6c-.1 27.3.1 49.6.5 49.5.8 0 113.5-137.4 114.1-139 .2-.5 0-.9-.5-.8-.4 0-26.2 9.2-57.3 20.4z"/></svg>