<svg xmlns="http://www.w3.org/2000/svg" width="17" height="17" viewBox="0 0 17 17"><path fill="#FFF" d="M8.052 12.454l-2.7-2.521a.572.572 0 0 0-.771 0L0 14.201v.581c0 .542.475.983 1.055.983H15.82c.58 0 1.055-.441 1.055-.983v-.581l-4.581-4.27a.577.577 0 0 0-.771 0l-2.7 2.521c-.213.2-.558.2-.771.002zm5.739-3.918l2.699 2.521c.212.199.385.123.385-.168V5.465c0-.292-.173-.367-.385-.168l-2.699 2.521a.482.482 0 0 0 0 .718zM1.055 1C.475 1 0 1.443 0 1.984v.177l8.011 7.504a.569.569 0 0 0 .768 0l8.096-7.593v-.088c0-.541-.475-.984-1.055-.984H1.055zM0 5.465v5.424c0 .291.173.367.385.168l2.699-2.521a.483.483 0 0 0 0-.719L.385 5.297C.173 5.098 0 5.173 0 5.465z"/></svg>