<svg xmlns="http://www.w3.org/2000/svg" viewBox="0 0 696.48 207.57"><defs><style>.cls-1,.cls-4{fill:none}.cls-1,.cls-2,.cls-3{opacity:.7}.cls-2,.cls-5{fill:#fff}</style></defs><title>golang-centos-redis</title><g id="Layer_2" data-name="Layer 2"><g id="Layer_1-2" data-name="Layer 1"><path class="cls-1" d="M0 0H696.48V207.57H0z"/><path id="text5083-9" class="cls-2" d="M315 164.31h-10.74a11.31 11.31 0 0 1-3.22-.47 8.38 8.38 0 0 1-4.89-4.5 16.16 16.16 0 0 1-1.63-7.44 17.15 17.15 0 0 1 1.46-7.26 8.91 8.91 0 0 1 4.54-4.75 11.78 11.78 0 0 1 4.68-1h9.71v4.86h-10.1q-2.46 0-3.57 2.79a15.65 15.65 0 0 0-.87 5.7 10.55 10.55 0 0 0 1.11 5 4 4 0 0 0 3.61 2.43h9.88v4.61m17.84.11h-8.46a6.81 6.81 0 0 1-5.37-2.76 9.94 9.94 0 0 1-2.25-6.42 10.13 10.13 0 0 1 2.46-6.82 7.25 7.25 0 0 1 5.55-2.9h8v3.88h-5.89a7.31 7.31 0 0 0-1.91.22 3.29 3.29 0 0 0-1.42.76 3.75 3.75 0 0 0-1.21 2.94h10.4v3.92h-10.33a5.56 5.56 0 0 0 .17 1.49 3.49 3.49 0 0 0 .8 1.2 3.11 3.11 0 0 0 1.39.8 9.58 9.58 0 0 0 2 .18h6.07v3.52m19.77-.11h-4.82v-12.35a1.65 1.65 0 0 0-.21-.83 2.93 2.93 0 0 0-.59-.76 2.33 2.33 0 0 0-1.59-.62h-4.71v14.59h-4.82v-18.8h9.22a15.59 15.59 0 0 1 3.57.29 4.68 4.68 0 0 1 2.77 1.92 6.66 6.66 0 0 1 1.18 3.81v12.77m13.84-14.88h-4.68V158a2.61 2.61 0 0 0 .76 1.92 3.34 3.34 0 0 0 2.29.76h1.42v3.66h-4.47a4.52 4.52 0 0 1-3.43-1.52 4.32 4.32 0 0 1-1.07-2 12 12 0 0 1-.24-2.58v-8.78h-3.05v-3.92H357v-6.6h4.75v6.6h4.68v3.92m28.29 2.14q0 7.4-3.92 10.6-3.19 2.58-9.29 2.58-6.76 0-10-3-3.51-3.27-3.51-10.49 0-5.91 3.15-9.22 3.43-3.59 10.26-3.59 7.52 0 10.61 3.45 2.7 3 2.7 9.65m-6.17-.15a9.53 9.53 0 0 0-1.7-6 6.7 6.7 0 0 0-5.65-2.47 6.35 6.35 0 0 0-5.55 2.65 9.8 9.8 0 0 0-1.56 5.77q0 4.1 1.25 6.06 1.73 2.72 6.41 2.72 4 0 5.55-2.65a12.07 12.07 0 0 0 1.25-6.13m33.92 5a8 8 0 0 1-2.11 5.62 7 7 0 0 1-5.37 2.29h-17.16v-4.57H412a4 4 0 0 0 2.39-.69 2.54 2.54 0 0 0 1.11-2.18q0-3.23-4.37-3.23h-7.14a8 8 0 0 1-5.41-2 6.4 6.4 0 0 1-2.32-5.08 7.2 7.2 0 0 1 2.25-5.52 8.42 8.42 0 0 1 6-2.14h16.4v4.35h-14.5a3.05 3.05 0 0 0-2 .87 2.55 2.55 0 0 0-1 2 3 3 0 0 0 .94 2.21 3.36 3.36 0 0 0 2.32.87h7.87a8 8 0 0 1 5.75 2 6.78 6.78 0 0 1 2.11 5.23"/><g class="cls-3"><path class="cls-4" d="M363.99 76.35L361.71 74.07 363.99 71.79 360.77 71.79 360.77 68.57 358.49 70.85 356.21 68.57 356.21 71.79 352.99 71.79 355.27 74.07 352.99 76.35 356.21 76.35 356.21 79.57 358.49 77.3 360.77 79.57 360.77 76.35 363.99 76.35z"/><path class="cls-5" d="M356.21 68.57L354.13 66.49 354.13 69.71 350.91 69.71 352.99 71.79 356.21 71.79 356.21 68.57z"/><path class="cls-5" d="M346.79 38.74L344.71 40.82 354.13 40.82 354.13 63.55 356.21 65.63 356.21 38.74 346.79 38.74z"/><path class="cls-5" d="M325.24 57.36L325.24 40.82 341.77 40.82 343.85 38.74 323.15 38.74 323.15 59.44 325.24 57.36z"/><path class="cls-5" d="M323.15 62.38L323.15 71.79 350.05 71.79 347.97 69.71 325.24 69.71 325.24 60.3 323.15 62.38z"/><path class="cls-5" d="M363.99 71.79L366.07 69.71 362.85 69.71 362.85 66.49 360.77 68.57 360.77 71.79 363.99 71.79z"/><path class="cls-5" d="M393.82 62.38L391.74 60.3 391.74 69.71 369.01 69.71 366.93 71.79 393.82 71.79 393.82 62.38z"/><path class="cls-5" d="M375.2 40.82L391.74 40.82 391.74 57.36 393.82 59.44 393.82 38.74 373.12 38.74 375.2 40.82z"/><path class="cls-5" d="M370.18 38.74L360.77 38.74 360.77 65.63 362.85 63.55 362.85 40.82 372.26 40.82 370.18 38.74z"/><path class="cls-5" d="M393.82 88.71L391.74 90.79 391.74 107.33 375.2 107.33 373.12 109.41 393.82 109.41 393.82 88.71z"/><path class="cls-5" d="M370.18 109.41L372.26 107.33 362.85 107.33 362.85 84.6 360.77 82.52 360.77 109.41 370.18 109.41z"/><path class="cls-5" d="M366.07 78.43L363.99 76.35 360.77 76.35 360.77 79.57 362.85 81.65 362.85 78.43 366.07 78.43z"/><path class="cls-5" d="M393.82 85.77L393.82 76.35 366.93 76.35 369.01 78.43 391.74 78.43 391.74 87.85 393.82 85.77z"/><path class="cls-5" d="M352.99 76.35L350.91 78.43 354.13 78.43 354.13 81.65 356.21 79.57 356.21 76.35 352.99 76.35z"/><path class="cls-5" d="M323.15 85.77L325.24 87.85 325.24 78.43 347.97 78.43 350.05 76.35 323.15 76.35 323.15 85.77z"/><path class="cls-5" d="M341.77 107.33L325.24 107.33 325.24 90.79 323.15 88.71 323.15 109.41 343.85 109.41 341.77 107.33z"/><path class="cls-5" d="M346.79 109.41L356.21 109.41 356.21 82.52 354.13 84.6 354.13 107.33 344.71 107.33 346.79 109.41z"/><path class="cls-5" d="M325.23 90.79l6.66 6.66 19-19 2.11-2.1 2.28-2.28-2.28-2.28-2.08-2.08-19-19-6.66 6.66-2.08 2.08-14.66 14.62 14.64 14.64zm6.66-37.15L348 69.71l2 2.08 2.28 2.28-2.28 2.28-2 2.08-16.11 16.07-6.66-6.66-2.08-2.08-11.69-11.69 11.69-11.69 2.08-2.08zm9.88-12.82l-6.66 6.66 19 19 2.08 2.08 2.28 2.28 2.28-2.28 2.08-2.08 19-19-6.66-6.66-2.08-2.08-14.6-14.64-14.64 14.64zm37.15 6.66l-16.07 16.07-2.08 2.08-2.28 2.28-2.28-2.28-2.08-2.08-16.07-16.07 6.66-6.66 2.08-2.08L358.49 27l11.69 11.69 2.08 2.08zm12.82 9.88l-6.66-6.66-19 19-2.08 2.09-2.28 2.28 2.28 2.28 2.08 2.08 19 19 6.66-6.66 2.08-2.08 14.64-14.64-14.64-14.61zm-6.66 37.14L369 78.43l-2.08-2.08-2.28-2.28 2.28-2.28 2.08-2.08 16.07-16.07 6.66 6.66 2.08 2.08 11.69 11.69-11.68 11.7-2.08 2.08zm-9.88 12.83l6.66-6.66-19-19-2.08-2.08-2.28-2.28-2.28 2.28-2.08 2.08-19 19 6.66 6.66 2.08 2.08L358.49 124l14.64-14.64zm-37.15-6.66l16.08-16.07 2.08-2.08 2.28-2.28 2.28 2.28 2.08 2.08 16.07 16.07-6.66 6.66-2.08 2.08-11.69 11.69-11.69-11.69-2.08-2.08z"/></g><g id="Layer_2-2" data-name="Layer 2" class="cls-3"><g id="Layer_1-2-2" data-name="Layer 1-2"><path class="cls-5" d="M119.13 69.43a18.29 18.29 0 1 0-18.33 18.26 18.31 18.31 0 0 0 18.33-18.26zm-18.29 14.75a14.78 14.78 0 1 1 14.78-14.78 14.78 14.78 0 0 1-14.78 14.78z"/><circle class="cls-5" cx="100.84" cy="72.4" r="6.37"/><path class="cls-5" d="M160 69.43a18.29 18.29 0 1 0-18.3 18.26A18.31 18.31 0 0 0 160 69.43zm-33.06 0a14.78 14.78 0 1 1 14.82 14.75h-.05A14.8 14.8 0 0 1 127 69.43z"/><circle class="cls-5" cx="141.74" cy="72.4" r="6.37"/><path class="cls-5" d="M123.18 105.23h1.53a2.46 2.46 0 0 0 2.44-2.44v-2.67c3 .26 5.54.32 7.24-1.23a5.51 5.51 0 0 0 1.6-4.31c0-4.68-6.54-10.35-14.68-10.35s-14.68 5.66-14.68 10.35a5.72 5.72 0 0 0 1.65 4.52 6.07 6.07 0 0 0 4.24 1.3h1.37v2.51a2.46 2.46 0 0 0 2.42 2.31h1.53a2.46 2.46 0 0 0 2.49-2.4v-3h.46v3.05a2.46 2.46 0 0 0 2.39 2.36zm-12.57-8.77a2.88 2.88 0 0 1-.47-1.91c0-1.53 2-3.93 5.14-5.45a4.42 4.42 0 0 0-.95 2.46c0 2.39 3.12 3.05 7 3.05s7-.67 7-3.05a4.42 4.42 0 0 0-.95-2.46c3.16 1.53 5.14 3.93 5.14 5.45a2.58 2.58 0 0 1-.44 1.75c-.74.67-3.17.46-5.54.23-1.56-.14-3.31-.3-5.26-.3a49.11 49.11 0 0 0-5.44.39c-2.24.25-4.58.49-5.28-.16z"/><path class="cls-5" d="M67.22 60.58c3.26 2.23 5.73 4.17 5.26 7.24a49.11 49.11 0 0 0-.61 7.93l1.61 20.19a84 84 0 0 1 0 13.22l-.35 4.38a1.25 1.25 0 0 1-1.21 1.19 7.65 7.65 0 0 0-2.79.4 7.4 7.4 0 0 0-4.79 5.26 7.79 7.79 0 0 0 1.65 7 6.73 6.73 0 0 0 5.84 2.37H72a1.75 1.75 0 0 0 1.42 1.54h.33a1.75 1.75 0 0 0 1.75-1.42 3.14 3.14 0 0 0-.75-2.67 3.65 3.65 0 0 0-3.23-1 3.26 3.26 0 0 1-2.77-1.19 4.28 4.28 0 0 1-.89-3.81 3.91 3.91 0 0 1 2.51-2.72 4.07 4.07 0 0 1 1.51-.23 4.79 4.79 0 0 0 4.88-4.42l.35-4.38a87.69 87.69 0 0 0 0-13.78l-1.65-20.02A45.93 45.93 0 0 1 76 68.4c.7-4.95-2.88-7.94-5.88-10v-.23l-1.3-.61a5.79 5.79 0 0 1-3.26-6.35 5.88 5.88 0 0 1 3.86-4.35 5.59 5.59 0 0 1 4.54.26l.61.19c1.67.46 8.33 2 12.42-1.89a45.6 45.6 0 0 1 68.71.12c3.82 3.61 10.17 2.3 12.14 1.86l.75-.23a5.59 5.59 0 0 1 4.54-.26 5.88 5.88 0 0 1 3.74 4.35 5.79 5.79 0 0 1-3.26 6.37l-1.3.63v.21c-2.93 2-6.44 5-5.8 10a46.14 46.14 0 0 1 .58 7l-1.61 20.2a87.69 87.69 0 0 0 0 13.78l.35 4.38a4.88 4.88 0 0 0 5 4.42 4 4 0 0 1 3.81 5.1c-.3 1.21-1.23 2.56-2.3 2.67a6.54 6.54 0 0 0-4.72 1.93 2.58 2.58 0 0 0-.53 1.88 1.76 1.76 0 1 0 3.51.14 6 6 0 0 1 2.21-.51 6.68 6.68 0 0 0 5.37-5.26 7.49 7.49 0 0 0-7.28-9.4 1.4 1.4 0 0 1-1.49-1.19l-.35-4.38a84 84 0 0 1 0-13.22l1.61-20.33a49.11 49.11 0 0 0-.61-7.75c-.44-3.1 2-5.05 5.35-7.33a9.3 9.3 0 0 0-1-17.06 9.07 9.07 0 0 0-7 .3c-2.14.65-6.84 1.32-9.08-.77a49.11 49.11 0 0 0-73.75-.12c-2.35 2.21-7 1.56-9.15.91a9.08 9.08 0 0 0-7-.3 9.3 9.3 0 0 0-1 17.06zm89.93 104.96c-.32-.19-2.17-1.54-3.79-2.75a1.76 1.76 0 1 0-2.09 2.82c.81.61 3.51 2.61 4.07 2.95 2 1.21 2.53 2.28 2.44 2.6s-.7.79-2.16 1.05a16 16 0 0 1-6.37-.35 18.52 18.52 0 0 1-3.65-1.28 4.68 4.68 0 0 0-4.12.09 45.49 45.49 0 0 1-40.34 0 4.68 4.68 0 0 0-4.12-.09 18.5 18.5 0 0 1-3.65 1.28 16 16 0 0 1-6.35.35c-1.47-.28-2.1-.79-2.17-1.07s.44-1.39 2.44-2.6a4.65 4.65 0 0 0 2.21-3.38 4.88 4.88 0 0 0-1.32-4l-.49-.51a14.63 14.63 0 0 1-1-1.14 1.75 1.75 0 1 0-2.84 2.06l.14.17a16.49 16.49 0 0 0 1.26 1.4l.47.49a1.39 1.39 0 0 1 .39 1.14 1.12 1.12 0 0 1-.54.84c-3.1 1.86-4.58 4.21-4.05 6.42.26 1.09 1.25 3 4.93 3.68a19.29 19.29 0 0 0 7.82-.39 22.08 22.08 0 0 0 4.35-1.53 1.21 1.21 0 0 1 1.05 0 49 49 0 0 0 43.44 0 1.21 1.21 0 0 1 1.05 0 22.11 22.11 0 0 0 4.35 1.53 19.29 19.29 0 0 0 7.82.39c3.68-.7 4.67-2.61 4.93-3.68.44-2.28-1.04-4.63-4.11-6.49zm-86.58-18.22c0 1.88.82 3.24 2.49 3.24s3.51-2 4.14-5.09l.95-4.93a5.38 5.38 0 0 0-2-.25c-3.15.01-5.58 3.64-5.58 7.03zm25.66-7.02c-3.12 0-4.67 4.56-4.67 7.42 0 2.14 1.05 3.51 3 3.51 2.89 0 4.59-4.37 4.59-7.51-.01-1.66-.76-3.42-2.92-3.42zm26.23 7.7c0 1.75.72 3.05 2.23 3.05s3.61-1.84 4.49-6.37l.82-4.35a8 8 0 0 0-1.47-.16c-3.53.13-6.07 4.36-6.07 7.83z"/><path class="cls-5" d="M179.69 134.16a21.61 21.61 0 0 0-8.14-1.54 15.66 15.66 0 0 0-11.4 4.51c-.26.26-.49.54-.74.81a7.73 7.73 0 0 0-7.73-5.26 11 11 0 0 0-4.38.89 3.51 3.51 0 0 0-1.75-.49h-4.81a3.51 3.51 0 0 0-2.6 1.16 3.51 3.51 0 0 0-1-.51 25.08 25.08 0 0 0-7.16-1.07 16.66 16.66 0 0 0-11.08 3.79l1.4-7.56a3.51 3.51 0 0 0-3.51-4.17h-5.26a3.51 3.51 0 0 0-3.51 2.84l-1.75 9.56a11.12 11.12 0 0 0-9.27-4.53 14.19 14.19 0 0 0-9.63 3.65 3.51 3.51 0 0 0-2.14-2.07 21.61 21.61 0 0 0-8.14-1.54 15.18 15.18 0 0 0-15.77 15.63 10.87 10.87 0 0 0 2.05 6.45 3.51 3.51 0 0 0-1.26 1.75l-1.28 4.19a3.51 3.51 0 0 0 1.6 4.09 16.64 16.64 0 0 0 7.73 1.61 14.78 14.78 0 0 0 9.3-2.82 15.78 15.78 0 0 0 4.91-9.12 11 11 0 0 0 9.3 4.49 14.21 14.21 0 0 0 9.19-3.28 3.51 3.51 0 0 0 3.51 2.86h5.42a3.51 3.51 0 0 0 3.51-2.84v-.3a8.63 8.63 0 0 0 7 3.51 10 10 0 0 0 4.23-.93 3.51 3.51 0 0 0 1.75.51h5a3.51 3.51 0 0 0 2.14-.58 3.51 3.51 0 0 0 2 .61h5.42a3.51 3.51 0 0 0 2.93-1.56l.21.3a3.51 3.51 0 0 0 2.7 1.28h5.47a3.51 3.51 0 0 0 1.95-.63l-.86 2.77a3.51 3.51 0 0 0 1.65 4.1 16.64 16.64 0 0 0 7.73 1.61 14.78 14.78 0 0 0 9.3-2.82c3.4-2.75 4.56-7.17 5.16-10.28l2.75-15.23a3.51 3.51 0 0 0-2.14-3.84zM77.36 160.77a11.45 11.45 0 0 1-7.12 2.07 13.45 13.45 0 0 1-6-1.16l1.28-4.14a11.54 11.54 0 0 0 4.82 1c2.72 0 4.72-1.21 5.51-4.89l.3-1.58a6.23 6.23 0 0 1-5.26 2.75c-3.65 0-5.88-3-5.91-6.59a11.84 11.84 0 0 1 11.52-12.09h.71a18 18 0 0 1 6.79 1.29l-2.81 15.15c-.59 3.42-1.66 6.42-3.83 8.19zm16.4-5.38a7.3 7.3 0 0 1-7.8-7.65 11.07 11.07 0 0 1 10.47-11.63h.52a7.33 7.33 0 0 1 7.8 7.61 14 14 0 0 1-.11 1.75l-.39 1.86a10.68 10.68 0 0 1-10.49 8.06zm12.63-.42l1.37-7.12a16.43 16.43 0 0 0 .35-1.75l3.45-17.87H117L111.8 155zm22.08 0c0-1.09.16-2.33.23-3.65a7 7 0 0 1-6.21 4.07c-3.31 0-5.58-2.56-5.58-6.4A12.47 12.47 0 0 1 129 136.11h1.13a21.73 21.73 0 0 1 6.1.91l-1.93 9.65a44.63 44.63 0 0 0-.75 8.3zm20.2 0l2-10.21a12 12 0 0 0 .19-2c0-1.32-.46-2.23-1.84-2.23-1.75 0-3.84 2.23-4.59 6.3l-1.59 8.17h-5.45l2.33-12.43c.49-2.33.75-4.33 1-6h4.79l-.33 3.05a7.79 7.79 0 0 1 6.44-3.51 4.47 4.47 0 0 1 4.82 5.1 22.54 22.54 0 0 1-.3 3.09l-.16.86-1.86 9.8zm9.08-.25zm17.85-2.14c-.65 3.38-1.75 6.4-3.88 8.17a11.45 11.45 0 0 1-7.12 2.07 13.45 13.45 0 0 1-6-1.18l1.28-4.14a11.54 11.54 0 0 0 4.82 1c2.72 0 4.72-1.21 5.51-4.89l.3-1.58a6.23 6.23 0 0 1-5.26 2.75c-3.65 0-5.88-3-5.91-6.59a12.57 12.57 0 0 1 .19-2.23 11.77 11.77 0 0 1 12.15-9.79 18 18 0 0 1 6.82 1.28z"/><path class="cls-5" d="M164.94 147.32c0 1.88.82 3.24 2.49 3.24s3.51-2 4.14-5.09l.95-4.93a5.38 5.38 0 0 0-2-.25c-3.25.01-5.58 3.64-5.58 7.03z"/></g></g><path class="cls-2" d="M631.72 84.36a.83.83 0 0 1-.44.44l-41.46 17.49a.73.73 0 0 1-.32.06.81.81 0 0 1-.32-.06L547.77 84.8a.83.83 0 0 1-.44-.44.79.79 0 0 0-.08.37v12.46a.85.85 0 0 0 .52.8l41.46 17.49a.73.73 0 0 0 .32.06.81.81 0 0 0 .32-.06L631.3 98a.9.9 0 0 0 .54-.8V84.74a.93.93 0 0 0-.11-.38zm0-20.46a.83.83 0 0 1-.44.44l-41.46 17.49a.73.73 0 0 1-.32.06 1.21 1.21 0 0 1-.32-.06l-41.41-17.48a.89.89 0 0 1-.44-.44.83.83 0 0 0-.08.37v12.46a.89.89 0 0 0 .54.82l41.46 17.49a.73.73 0 0 0 .32.06.81.81 0 0 0 .32-.06l41.46-17.49a.9.9 0 0 0 .54-.8V64.29a3.29 3.29 0 0 0-.15-.39zm.1-19.76a.87.87 0 0 0-.54-.8l-41.45-17.51a.73.73 0 0 0-.32-.06.81.81 0 0 0-.32.06l-41.42 17.49a.89.89 0 0 0-.54.82V56.6a.9.9 0 0 0 .54.82l41.46 17.49a.73.73 0 0 0 .32.06.81.81 0 0 0 .32-.06l41.46-17.49a.9.9 0 0 0 .54-.8c-.06-.38-.06-12.11 0-12.48zm-56.47-7.66l7.88-1.61-1.68-3.57a.19.19 0 0 1 0-.2.18.18 0 0 1 .19 0l6.71 2.75 7.93-1.64a.22.22 0 0 1 .19.1.24.24 0 0 1 0 .23l-3.57 3.1 6.62 2.72a.17.17 0 0 1 .1.2.19.19 0 0 1-.19.13l-9.14-.69-3.82 3.44a.14.14 0 0 1-.1 0 .18.18 0 0 1-.12-.09l-1.81-3.8-9.12-.7c-.08 0-.15-.09-.17-.18s.06-.2.14-.22zM568.73 49a18.74 18.74 0 0 1-7.13-1.29c-1.94-.85-3-2-3-3.14s1-2.18 2.8-2.93a17.28 17.28 0 0 1 6.4-1.1 18.68 18.68 0 0 1 7 1.24c2 .83 3.07 2 3.09 3.16s-1 2.14-2.67 2.9a16.89 16.89 0 0 1-6.49 1.16zm26.89 1.61l-4.26 8.6a.17.17 0 0 1-.15.1h-.07l-15.05-6.52a.19.19 0 0 1 .06-.35l19.31-2.08a.16.16 0 0 1 .17.25zm24.8-5.78L610 49.35h-.14l-11.77-5.15a.21.21 0 0 1-.09-.2.23.23 0 0 1 .1-.18l10.43-4.39a.18.18 0 0 1 .12 0l11.76 5c.07 0 .1.09.1.18a.13.13 0 0 1-.08.16z"/><g class="cls-3"><path class="cls-5" d="M543.47 142.85H543c0-.37-.17-1.6-.49-3.71l-7.33.81a56.59 56.59 0 0 1 1.44 13c0 3.66-.17 8.38-.49 14.15h7.66q-.17-6.18-.17-17.65a5.36 5.36 0 0 1 5.57-3.8 11.31 11.31 0 0 1 4.31.86l1.66-6.72a13.52 13.52 0 0 0-4.66-1 8.05 8.05 0 0 0-7.03 4.06zm28.37-4.28q-6.68 0-10.42 4.5a16.09 16.09 0 0 0-3.75 10.62 14.13 14.13 0 0 0 4 10c2.64 2.78 6.42 4.17 11.37 4.17a29.1 29.1 0 0 0 9.83-1.44l.58-5.59a35.73 35.73 0 0 1-9.17 1.29A9 9 0 0 1 568 160a8.45 8.45 0 0 1-2.79-5.41l18.51-.31c.11-1.57.17-2.85.17-3.82a12.35 12.35 0 0 0-3-8.58c-1.97-2.2-4.98-3.31-9.05-3.31zm-6.71 11.88c.68-4.56 2.79-6.85 6.38-6.85 3.75 0 5.63 2.21 5.63 6.61zm50.08-24.05l-8.14.23q.66 6.88.66 13.66h-.41q-2-1.53-6.12-1.52a11.61 11.61 0 0 0-9.83 4.67 17.68 17.68 0 0 0-3.53 11 14.6 14.6 0 0 0 3.26 9.49 10.69 10.69 0 0 0 8.77 4 11.94 11.94 0 0 0 8.08-2.73h.43a10.61 10.61 0 0 0 .2 2.1l6.81-.23c-.42-5.75-.64-12.87-.63-21.37s.14-14.84.45-19.3zm-12.94 36.17a5.66 5.66 0 0 1-5-2.63 10.88 10.88 0 0 1-1.78-6.26 12.35 12.35 0 0 1 1.83-6.91 6.23 6.23 0 0 1 5.63-2.83 8.09 8.09 0 0 1 4.75 1.38q.42 6 .43 15.18-1.68 2.05-5.86 2.07zm24.41-35.78a4.76 4.76 0 0 0-5.09 4.83 4.36 4.36 0 0 0 1.13 3 4 4 0 0 0 3.15 1.27 4.81 4.81 0 0 0 3.72-1.46 5 5 0 0 0 1.34-3.42 4.45 4.45 0 0 0-1.11-3 4 4 0 0 0-3.14-1.22zm2.91 12.37l-8.27.84a80.92 80.92 0 0 1 1 13.4q0 7.71-.41 13.66h7.73c-.27-4.17-.41-8.73-.39-13.66q-.02-8.65.34-14.24zM653 153.33a20.82 20.82 0 0 0-6.07-3.13 18.05 18.05 0 0 1-4-1.86 2.3 2.3 0 0 1-1-1.94c0-1.57 1.52-2.36 4.6-2.36a19.09 19.09 0 0 1 7 1.27l1-5.69a28.48 28.48 0 0 0-8-.89c-3.61 0-6.38.77-8.27 2.32a7.53 7.53 0 0 0-2.85 6.15 7 7 0 0 0 2.64 5.48 22.5 22.5 0 0 0 6.15 3.28q4.83 1.9 4.83 4a2 2 0 0 1-1.34 1.92 13.6 13.6 0 0 1-4.78.58 21.06 21.06 0 0 1-7.15-1.29l-1 5.67a29.22 29.22 0 0 0 8.14 1q12.76 0 12.76-8.63a7.35 7.35 0 0 0-2.66-5.88z"/></g></g></g></svg>