<svg width="1384" height="437" viewBox="0 0 1384 437" xmlns="http://www.w3.org/2000/svg"><title>Graph_Asia</title><defs><linearGradient x1="50%" y1="57.508%" x2="50%" y2="95.405%" id="b"><stop stop-color="#157EEC" stop-opacity=".3" offset="0%"/><stop stop-color="#B45644" stop-opacity="0" offset="100%"/></linearGradient><linearGradient x1="50%" y1="79.279%" x2="50%" y2="99.462%" id="a"><stop stop-color="#157EEC" offset="0%"/><stop stop-color="#B45644" stop-opacity="0" offset="100%"/></linearGradient><linearGradient x1="58.703%" y1="65.018%" x2="58.703%" y2="97.92%" id="d"><stop stop-color="#831383" stop-opacity=".3" offset="0%"/><stop stop-color="#8261E3" stop-opacity="0" offset="100%"/></linearGradient><linearGradient x1="50%" y1="85.108%" x2="50%" y2="99.735%" id="c"><stop stop-color="#831383" offset="0%"/><stop stop-color="#8261E3" stop-opacity="0" offset="100%"/></linearGradient><linearGradient x1="58.703%" y1="50%" x2="58.703%" y2="97.92%" id="f"><stop stop-color="#36DF39" stop-opacity=".3" offset="0%"/><stop stop-color="#8261E3" stop-opacity="0" offset="100%"/></linearGradient><linearGradient x1="50%" y1="85.108%" x2="50%" y2="99.735%" id="e"><stop stop-color="#36DF39" offset="0%"/><stop stop-color="#8261E3" stop-opacity="0" offset="100%"/></linearGradient></defs><g transform="translate(2)" fill="none" fill-rule="evenodd"><path stroke="url(#a)" fill="url(#b)" opacity=".348" d="M137 430.766595L155.43556 294.212416 174.437855 311.120341 177.40488 282.531507 197.323952 308.538783 211.317309 318.213235 229.936224 295.618215 238.745621 226.708516 253.389057 245.610119 251.255466 303.158408 274.974997 223.321819 294.802392 226.593496 301.469864 275.195793 320.655514 261.968505 333.907114 281.151268 357.626646 264.524503 370.674055 281.138488 383.925655 268.339329 410.103817 338.820835 441.323386 346.776378 464.356202 399.346795 485.625438 292.985537 509.861698 298.027243 528.343097 247.233178 538.023433 276.141512 554.15038 338.667475 563.876555 223.360159 563.895646 252.08731 592.559186 258.460398 618.037263 240.344764 645.09053 267.61726 671.268692 222.28025 669.414301 255.239841 695.825824 265.968641 717.882655 244.71552 745.352639 251.533644 757.537444 229.373144 787.268335 258.076933 821.153461 292.755234 856.595241 348.456683 888.557434 270.716275 914.868946 201.231543 942.009723 220.970301 981.872871 285.279105 1013.61004 236.900557 1034.36254 275.470563 1067.29569 219.353633 1091.48611 235.194429 1150.55574 195.487004 1174.68782 155 1182.55961 194.349585 1198.21983 210.618511 1213.32166 175.594952 1231.85306 179.007209 1234.12 261.335895 1249.22599 269.789858 1248.48424 248.607027 1268.0366 274.179784 1297.03177 272.480045 1308.84569 228.855554 1310 436z"/><path stroke="url(#c)" fill="url(#d)" opacity=".348" d="M303 438L325.750392 414.645419 338.203679 417.302662 349.258876 403.758575 363.82644 403.758575 372.131171 384.97475 388.61111 402.215057 400.938683 404.876037 400.938683 387.755324 413.944349 377.90372 429.529053 394.52363 449.43755 394.52363 449.43755 340.750914 465.193682 377.39918 473.323176 397.020167 480.736482 356.963455 494.206908 295.260122 515.848732 353.97359 522.62204 265.679149 529.140111 333.246353 543.071488 292.898129 554.888587 215.363463 587.192339 262.524841 605.726493 202.772396 627.50165 140.523413 638.488192 233.530629 662.568186 278.225368 713.817519 280.221103 714.495612 292.105815 732.750782 252.714348 738.804093 261.93808 746.895491 241.696696 759.264969 252.000518 775.908717 172.638297 785.097254 235.178791 795.219121 214.985993 821.398071 220.263104 826.140911 271.868169 838.929435 314.085058 863.919818 200.059093 864.936957 222.296212 882.510225 251.051236 895.344463 292.315106 894.327324 232.01701 906.780611 232.01701 910.464407 241.905987 927.99958 227.113631 938.645296 77 959.980413 164.266676 967.092768 193.331898 978.147964 184.108165 1019.35924 184.108165 1032.57062 190.170116 1057.30957 218.921402 1074.29237 271.079592 1092.86754 164.77869 1103.88464 79.7581502 1125.44265 171.255484 1132.93596 133.740157 1148.7759 133.740157 1158.56253 223.200646 1173.38533 134.734287 1188.84813 173.004555 1187.83099 111.802025 1210.829 111.005974 1228.72941 292.898129 1253.49424 223.200646 1270.77134 295.260122 1303.26304 333.246353 1327 314.085058 1327 435.738915z"/><path stroke="url(#e)" fill="url(#f)" opacity=".348" d="M0 437L26.4693612 428.136904 40.9583669 429.145331 53.8207391 424.005332 70.7696402 424.005332 80.4319321 416.876844 99.6058197 423.419565 113.948561 424.42941 113.948561 417.932076 129.080242 414.193378 147.212553 420.500657 170.37546 420.500657 170.37546 400.093837 188.707221 414.001905 198.16563 421.448097 206.790777 406.246519 222.463192 382.830019 247.64277 405.111861 255.5233 371.603998 263.106869 397.245846 279.315585 381.933639 293.064406 352.509126 330.648801 370.406934 352.212703 347.730798 377.54741 324.107223 390.329903 359.40359 418.346216 376.365306 477.973194 377.12269 478.762134 381.632955 500.001447 366.683838 507.044283 370.184258 516.458369 362.502624 530.849865 366.412939 550.21434 336.294866 560.904912 360.02907 572.681384 352.365875 603.139765 354.368546 608.657909 373.95274 623.536952 389.974108 652.612473 346.701096 653.795882 355.140114 674.241824 366.052685 689.174054 381.712381 687.990645 358.82917 702.47965 358.82917 706.76563 362.58205 727.16725 356.968331 746.175575 300 772.650938 344.148116 785.51331 340.647697 833.461326 340.647697 848.832348 342.948216 877.61534 353.859369 897.374284 373.653474 918.16034 362.58205 956.886025 335.770087 984.033519 321.532968 995.419954 355.483348 1012.06438 344.148116 1029.47288 370.184258 1044.77133 347.730798 1056.23034 312.905314 1077.0569 381.933639 1103.63785 300 1154.81487 385.627864 1221.89424 410.989688 1294 389.974108 1294 436.141915z"/><g transform="translate(57)" fill="#615C6B" fill-opacity=".2" opacity=".2"><path d="M0 0H113.054V437H0z"/><path d="M229.754 0H342.808V437H229.754z"/><path d="M459.508 0H572.562V437H459.508z"/><path d="M687.438 0H800.492V437H687.438z"/><path d="M917.192 0H1030.246V437H917.192z"/><path d="M1146.946 0H1260V437H1146.946z"/></g><g transform="translate(0 82)" stroke="#615C6B" stroke-opacity=".2" stroke-linecap="square" opacity=".3"><path d="M1.728 1.826l1245.746 5.48M1.729 81.27h1249.393M1.728 165.281h1245.746M1.728 262.077h1245.746" stroke-width=".5"/><path d="M1.728 346.087h1378.974"/></g></g></svg>