<svg xmlns="http://www.w3.org/2000/svg" viewBox="0 0 512 512" width="512" height="512"><path d="M488 96c-13.234 0-24 10.767-24 24 0 1.003.069 1.99.189 2.961l-88.738 44.369C368.122 158.006 356.753 152 344 152c-22.056 0-40 17.944-40 40 0 8.762 2.839 16.869 7.636 23.466l-45.533 49.673a8.11 8.11 0 0 0-.641.808A23.864 23.864 0 0 0 256 264a23.852 23.852 0 0 0-12.442 3.484l-52.98-43.348A23.882 23.882 0 0 0 192 216c0-13.233-10.766-24-24-24s-24 10.767-24 24c0 6.692 2.756 12.75 7.188 17.107l-36.87 79.007A24.326 24.326 0 0 0 112 312c-13.234 0-24 10.767-24 24 0 1.297.107 2.569.306 3.812l-48.285 26.337C35.769 362.329 30.152 360 24 360c-13.234 0-24 10.767-24 24s10.766 24 24 24 24-10.767 24-24c0-1.297-.107-2.569-.306-3.812l48.285-26.337c4.252 3.82 9.868 6.148 16.021 6.148 13.234 0 24-10.767 24-24 0-6.692-2.756-12.75-7.188-17.107l36.87-79.007a23.852 23.852 0 0 0 14.761-3.37l52.98 43.348A23.869 23.869 0 0 0 232 288c0 13.233 10.766 24 24 24s24-10.767 24-24c0-4.098-1.035-7.959-2.853-11.337.261-.22.514-.452.751-.71l45.526-49.665A39.758 39.758 0 0 0 344 232c22.056 0 40-17.944 40-40 0-3.586-.482-7.061-1.371-10.37l88.727-44.364C475.674 141.431 481.541 144 488 144c13.234 0 24-10.767 24-24s-10.766-24-24-24zM24 392c-4.411 0-8-3.589-8-8s3.589-8 8-8 8 3.589 8 8-3.589 8-8 8zm88-48c-4.411 0-8-3.589-8-8s3.589-8 8-8 8 3.589 8 8-3.589 8-8 8zm56-120c-4.411 0-8-3.589-8-8s3.589-8 8-8 8 3.589 8 8-3.589 8-8 8zm88 72c-4.411 0-8-3.589-8-8s3.589-8 8-8 8 3.589 8 8-3.589 8-8 8zm88-80c-13.233 0-24-10.767-24-24s10.767-24 24-24 24 10.767 24 24-10.767 24-24 24zm144-88c-4.411 0-8-3.589-8-8s3.589-8 8-8 8 3.589 8 8-3.589 8-8 8z" fill="#831383"/><path d="M344 184c-2.11 0-4.17.85-5.66 2.34A8.05 8.05 0 0 0 336 192c0 2.109.85 4.17 2.34 5.66A8.055 8.055 0 0 0 344 200c2.11 0 4.17-.851 5.66-2.34A8.052 8.052 0 0 0 352 192c0-2.11-.85-4.17-2.34-5.66A8.05 8.05 0 0 0 344 184zm0-48c2.1 0 4.17-.851 5.66-2.351A8.05 8.05 0 0 0 352 128c0-2.11-.86-4.17-2.34-5.66A8.068 8.068 0 0 0 344 120c-2.11 0-4.17.85-5.66 2.34A8.05 8.05 0 0 0 336 128c0 2.1.85 4.17 2.34 5.649A8.019 8.019 0 0 0 344 136zm0-32c2.11 0 4.17-.851 5.66-2.34A8.068 8.068 0 0 0 352 96c0-2.101-.85-4.17-2.34-5.66A8.05 8.05 0 0 0 344 88c-2.11 0-4.17.85-5.66 2.34A8.05 8.05 0 0 0 336 96c0 2.109.85 4.17 2.34 5.66A8.055 8.055 0 0 0 344 104zm0-32c2.1 0 4.16-.851 5.66-2.34A8.086 8.086 0 0 0 352 64c0-2.101-.85-4.17-2.34-5.66C348.17 56.85 346.1 56 344 56s-4.17.85-5.66 2.34A8.068 8.068 0 0 0 336 64c0 2.1.85 4.17 2.34 5.66A8.072 8.072 0 0 0 344 72zm0-32c2.1 0 4.17-.851 5.66-2.34A8.052 8.052 0 0 0 352 32c0-2.101-.85-4.17-2.34-5.66A8.05 8.05 0 0 0 344 24c-2.11 0-4.17.85-5.66 2.34A8.068 8.068 0 0 0 336 32c0 2.109.85 4.17 2.34 5.66A8.072 8.072 0 0 0 344 40zm0 304c-2.11 0-4.17.85-5.66 2.34A8.05 8.05 0 0 0 336 352c0 2.109.85 4.17 2.34 5.66A8.055 8.055 0 0 0 344 360c2.1 0 4.17-.851 5.66-2.34A8.052 8.052 0 0 0 352 352c0-2.11-.85-4.17-2.34-5.66A8.05 8.05 0 0 0 344 344zm0-32c-2.11 0-4.17.85-5.66 2.34A8.068 8.068 0 0 0 336 320c0 2.1.85 4.17 2.34 5.66 1.49 1.489 3.56 2.34 5.66 2.34s4.17-.851 5.66-2.34A8.07 8.07 0 0 0 352 320c0-2.101-.85-4.17-2.34-5.66A8.05 8.05 0 0 0 344 312zm0-32c-2.11 0-4.17.85-5.66 2.34A8.05 8.05 0 0 0 336 288a8.007 8.007 0 0 0 8 8 8.007 8.007 0 0 0 8-8c0-2.11-.85-4.17-2.34-5.66A8.05 8.05 0 0 0 344 280zm0-32c-2.11 0-4.17.85-5.66 2.34A8.05 8.05 0 0 0 336 256a8.007 8.007 0 0 0 8 8 8.007 8.007 0 0 0 8-8c0-2.11-.85-4.17-2.34-5.66A8.068 8.068 0 0 0 344 248zm0 224c-2.11 0-4.17.85-5.66 2.34A8.05 8.05 0 0 0 336 480c0 2.109.85 4.17 2.34 5.66A8.055 8.055 0 0 0 344 488c2.11 0 4.17-.851 5.66-2.34A8.052 8.052 0 0 0 352 480c0-2.11-.85-4.17-2.34-5.66A8.05 8.05 0 0 0 344 472zm0-32c-2.11 0-4.17.85-5.66 2.34A8.05 8.05 0 0 0 336 448c0 2.109.85 4.17 2.34 5.66A8.055 8.055 0 0 0 344 456c2.11 0 4.17-.851 5.66-2.34A8.052 8.052 0 0 0 352 448c0-2.101-.85-4.17-2.34-5.66A8.05 8.05 0 0 0 344 440zm0-32c-2.11 0-4.17.859-5.66 2.34A8.05 8.05 0 0 0 336 416c0 2.1.85 4.17 2.34 5.66A8.055 8.055 0 0 0 344 424c2.11 0 4.17-.851 5.66-2.34A8.07 8.07 0 0 0 352 416c0-2.11-.85-4.17-2.34-5.66A8.089 8.089 0 0 0 344 408zm0-32c-2.11 0-4.17.85-5.66 2.34A8.093 8.093 0 0 0 336 384c0 2.109.86 4.17 2.34 5.649 1.49 1.5 3.56 2.351 5.66 2.351s4.17-.851 5.66-2.351A8.05 8.05 0 0 0 352 384c0-2.11-.86-4.17-2.34-5.66A8.05 8.05 0 0 0 344 376z" fill="#831383"/></svg>