<svg xmlns="http://www.w3.org/2000/svg" viewBox="0 0 267.74 315.2"><defs><style>.cls-1{fill:none}.cls-2{fill:#36df39}</style></defs><title>logo</title><g id="Layer_2" data-name="Layer 2"><g id="Layer_1-2" data-name="Layer 1"><path class="cls-1" d="M164.4 103.84L164.4 96.89 154.68 100.4 164.4 103.84z"/><path class="cls-1" d="M102.53 104.48L113.64 100.46 102.63 96.46 102.53 104.48z"/><path class="cls-1" d="M104.4 211.34L104.4 218.19 113.97 214.62 104.4 211.34z"/><path class="cls-1" d="M165.67 218.93L165.67 210.39 153.88 214.53 165.67 218.93z"/><path class="cls-1" d="M102.49 107.68L100.98 108.23 99.47 108.77 72.45 118.53 99.23 128.2 100.72 128.74 102.22 129.28 134.03 140.78 164.4 129.67 165.9 129.12 167.4 128.58 195.87 118.16 167.4 108.09 165.9 107.56 164.4 107.03 150.23 102.01 134.55 107.69 134.03 107.33 133.52 107.68 118.05 102.06 102.49 107.68z"/><path class="cls-1" d="M164.4 96.89L154.68 100.4 164.4 103.84 164.4 96.89z"/><path class="cls-1" d="M120.64 213.73L122.88 214.49 132.54 217.79 132.54 210.89 132.54 209.29 132.54 207.69 132.54 143.42 102.18 132.46 100.68 131.92 99.19 131.38 69.48 120.65 68.99 140.52 98.94 151.23 100.43 151.76 101.93 152.3 103.41 152.82 103.47 153.68 104.4 154.24 104.4 208.17 118.41 212.96 120.64 213.73z"/><path class="cls-1" d="M102.53 104.48L113.64 100.46 102.63 96.46 102.53 104.48z"/><path class="cls-1" d="M147.99 99.63L150.22 98.83 164.4 93.7 165.9 93.15 167.4 92.61 180.1 88.01 180.1 88.01 182.29 87.22 184.47 86.43 184.83 86.3 187.28 85.42 197.81 81.61 135.54 5.16 135.54 93.63 135.54 95.22 135.54 96.81 135.54 104.14 145.77 100.43 147.99 99.63z"/><path class="cls-1" d="M104.4 218.19L113.97 214.62 104.4 211.34 104.4 218.19z"/><path class="cls-1" d="M165.67 183.42L165.67 154.24 165.9 154.1 166.6 153.67 166.66 152.83 167.4 152.56 198.8 141.25 198.8 120.28 198.8 120.28 190.48 123.33 167.4 131.77 165.9 132.32 164.4 132.87 135.54 143.42 135.54 207.69 135.54 209.29 135.54 210.89 135.54 217.78 145.06 214.44 147.27 213.66 149.48 212.89 165.67 207.21 165.67 183.42z"/><path class="cls-1" d="M233.99 104.79L251.36 105.99 251.36 105.99 197.99 91.44 233.99 104.79 233.99 104.79z"/><path class="cls-1" d="M235.17 132.06L244.72 153.58 264.13 109.87 235.17 107.88 235.17 132.06z"/><path class="cls-1" d="M84.09 86.54L84.73 86.77 86.95 87.57 89.17 88.38 89.17 88.38 99.68 92.2 101.18 92.74 102.67 93.28 118.05 98.87 120.25 99.67 122.45 100.47 132.54 104.13 132.54 96.83 132.54 95.23 132.54 93.64 132.54 5.18 70.53 81.61 81.62 85.64 84.09 86.54z"/><path class="cls-1" d="M184.46 89.63L167.4 95.8 167.4 104.9 200.8 116.73 200.81 117.44 201.8 118.14 201.8 140.18 232.17 129.24 232.17 107.32 190.68 91.93 184.46 89.63z"/><path class="cls-1" d="M165.67 210.39L153.88 214.53 165.67 218.93 165.67 210.39z"/><path class="cls-1" d="M135.54 310.05L195.71 236.68 135.54 258.16 135.54 310.05z"/><path class="cls-1" d="M217.34 182.15L214.47 180.65 201.8 174.03 200.3 173.24 198.8 172.46 168.67 156.71 168.67 156.71 168.67 180.65 168.67 182.15 168.67 183.65 168.67 206.16 168.67 207.75 168.67 209.34 168.67 220.04 168.67 221.65 168.67 223.25 168.67 230.43 179.93 227.45 182.44 226.78 184.94 226.12 262.25 205.61 262.25 205.61 220.22 183.65 217.34 182.15z"/><path class="cls-1" d="M167.56 233.83L165.67 232.38 165.67 222.13 149.45 216.08 134.53 221.31 134.04 220.96 133.55 221.31 118.45 216.15 104.4 221.39 104.4 233.45 102.52 234.9 82.28 229.65 72.19 233.41 72.19 233.41 134.04 255.51 163.46 245 195.93 233.41 195.93 233.41 184.79 229.26 167.56 233.83z"/><path class="cls-1" d="M132.54 310.05L132.54 258.16 72.4 236.68 132.54 310.05z"/><path class="cls-1" d="M243.9 159.12L243.08 157.27 235.17 139.46 233.67 136.08 232.17 132.7 232.07 132.47 201.8 143.36 200.3 143.9 198.8 144.44 170.89 154.49 198.8 169.07 200.3 169.86 201.8 170.64 220.95 180.65 223.82 182.15 226.69 183.65 263.25 202.75 244.72 160.97 243.9 159.12z"/><path class="cls-1" d="M49.29 181.35L52.08 179.85 65.18 172.81 66.7 171.99 68.22 171.17 98.9 154.69 99.22 154.51 98.9 154.4 68.91 143.68 67.42 143.15 65.94 142.62 37.54 132.47 35.83 136.44 34.33 139.92 32.83 143.4 25.98 159.28 25.18 161.14 24.38 163 6.57 204.3 46.49 182.85 49.29 181.35z"/><path class="cls-1" d="M32.83 135.82L32.83 107.88 8.59 109.53 3.62 109.87 24.31 155.58 32.83 135.82z"/><path class="cls-1" d="M34 104.79l35.09-12.46 3.11-1.1C54.94 95.79 33.27 101.56 16.73 106L34 104.79z"/><path class="cls-1" d="M84.65 227.16L87.18 227.82 101.4 231.51 101.4 222.51 101.4 220.91 101.4 219.31 101.4 210.32 101.4 208.73 101.4 207.15 101.4 181.53 101.4 156.75 100.36 157.31 98.85 158.12 68.14 174.63 66.61 175.44 65.09 176.26 58.41 179.85 55.62 181.35 52.83 182.85 7.58 207.17 82.12 226.51 84.65 227.16z"/><path class="cls-1" d="M35.83 129.78L37.22 129.17 66.01 139.46 66.54 118.49 67.53 117.82 67.53 117.12 99.52 105.57 99.64 95.38 84.72 89.96 84.72 89.96 35.83 107.33 35.83 129.78z"/><path d="M267.74 109.13l-1-1.72.06-.34-74.49-20.28 8.5-3.08.65-2.36L135.2 0l-1.2.41-1.13-.41-66 81.35.65 2.35 9 3.27-25.8 6.85C25.83 100.43 1 107.07 1 107.07l.06.34-1 1.73 22.7 50.17-20.64 47.76.85.78.15 1.27 74.1 19.22-9.93 3.66v1.44l-.65.92 66.22 80.8 1.16-.41 1.16.41 66.27-80.8-.65-.92V232l-11-4.11 76.94-20.41.14-1.27.85-.79-21.38-48.19zm-23 44.45l-9.55-21.51v-24.19l29 2zm6.62-47.58L234 104.79l-36-13.35zm-19.18 1.33v21.92l-30.38 10.92v-22l-1-.7v-.72l-33.4-11.85v-9.1l17.06-6.17 6.22 2.31zm-82.7 105.56l-2.21.78-2.21.78-9.52 3.34v-74.37l28.86-10.55 1.5-.55 1.5-.55 23.08-8.44 8.33-3v21l-31.41 11.23-.73.26-.06.85-.71.43-.23.14v53zm16.19-2.5v8.53l-11.8-4.4zM135.54 96.81V5.16l62.27 76.44-10.53 3.81-2.45.89-.36.13-2.18.79-2.18.79-12.71 4.6-1.5.54-1.5.54-14.18 5.13-2.22.8-2.22.8-10.23 3.7zm28.86.07v7l-9.72-3.44zm-30.87 10.8l.51-.36.51.36 15.68-5.68 14.17 5 1.5.53 1.5.53 28.48 10.08-28.48 10.44-1.5.55-1.5.55-30.4 11.09-31.82-11.49-1.49-.54-1.49-.54-26.78-9.67 27-9.76 1.51-.54 1.51-.54 15.56-5.63zM104.4 208.17v-53.93l-.93-.56-.06-.86-1.48-.53-1.49-.53-1.49-.53L69 140.52l.5-19.87 29.71 10.73 1.49.54 1.49.54 30.36 11v74.37l-9.65-3.3-2.24-.77-2.24-.77zm9.57 6.44l-9.57 3.57v-6.85zm-11.44-110.13l.1-8 11 4zm-32-22.87l62-76.43v99l-10.08-3.66-2.2-.8-2.2-.8-15.38-5.59-1.49-.54-1.49-.54-10.52-3.87-2.17-.81-2.22-.8-.64-.23-2.48-.9zM84.72 90l14.92 5.42-.13 10.19-32 11.55v.7l-1 .68-.52 21-28.77-10.37-1.4.61v-22.45zm-68 16c16.54-4.41 38.21-10.18 55.47-14.75l-3.11 1.1L34 104.79 16.73 106zm-13.11 3.9l5-.34 24.23-1.65v27.94l-8.52 19.76zM24.38 163l.8-1.86.8-1.86 6.84-15.88 1.5-3.48 1.5-3.48 1.71-4 28.4 10.15 1.49.53 1.49.53 30 10.72.32.11-.32.17-30.69 16.52-1.52.83-1.52.82-13.1 7-2.79 1.5-2.79 1.5L6.57 204.3zm-16.8 44.17l45.26-24.32 2.79-1.5 2.79-1.5 6.68-3.59 1.52-.82 1.52-.82 30.72-16.51 1.51-.81 1-.56v74.76l-14.22-3.69-2.53-.66-2.53-.66zm125 102.88L72.4 236.68l60.13 21.48zm3 0v-51.89l60.18-21.48zm60.39-76.64L163.46 245 134 255.51l-61.81-22.09 10.09-3.77 20.24 5.25 1.88-1.45v-12.06l14-5.24 15.1 5.16.5-.31.49.35 14.92-5.23 16.22 6.05v10.25l1.88 1.45 17.24-4.57zm66.32-27.81l-77.3 20.51-2.51.67-2.51.67-11.26 3v-73.74l30.13 15.75 1.5.78 1.5.78 12.67 6.62 2.87 1.5 2.87 1.5 42 22zm1-2.86l-36.56-19.1-2.87-1.5-2.87-1.5-19.15-10-1.5-.78-1.5-.78-27.91-14.58 27.91-10 1.5-.54 1.5-.54 30.27-10.9.1.23 1.5 3.38 1.5 3.38 7.9 17.81.82 1.85.82 1.85z"/><path class="cls-2" d="M102.49 107.68L100.98 108.23 99.47 108.77 72.45 118.53 99.23 128.2 100.72 128.74 102.22 129.28 134.03 140.78 164.4 129.67 165.9 129.12 167.4 128.58 195.87 118.16 167.4 108.09 165.9 107.56 164.4 107.03 150.23 102.01 134.55 107.69 134.03 107.33 133.52 107.68 118.05 102.06 102.49 107.68z"/><path class="cls-2" d="M132.54 207.69L132.54 143.42 102.18 132.46 100.68 131.92 99.19 131.38 69.48 120.65 68.99 140.52 98.94 151.23 100.43 151.76 101.93 152.3 103.41 152.82 103.47 153.68 104.4 154.24 104.4 208.17 118.41 212.96 120.64 213.73 122.88 214.49 132.54 217.79 132.54 210.89 132.54 209.29 132.54 207.69z"/><path class="cls-2" d="M198.8 120.28L198.8 120.28 190.48 123.33 167.4 131.77 165.9 132.32 164.4 132.87 135.54 143.42 135.54 207.69 135.54 209.29 135.54 210.89 135.54 217.78 145.06 214.44 147.27 213.66 149.48 212.89 165.67 207.21 165.67 183.42 165.67 154.24 165.9 154.1 166.6 153.67 166.66 152.83 167.4 152.56 198.8 141.25 198.8 120.28z"/></g></g></svg>