<svg xmlns="http://www.w3.org/2000/svg" viewBox="0 0 696.48 207.57"><defs><style>.cls-1{fill:none}.cls-1,.cls-2,.cls-4{opacity:.7}.cls-3,.cls-4{fill:#fff}</style></defs><title>logos3</title><g id="Layer_2" data-name="Layer 2"><g id="Layer_1-2" data-name="Layer 1"><path class="cls-1" d="M0 0H696.48V207.57H0z"/><g class="cls-2"><path class="cls-3" d="M190.47 86.75c0-9.76-9.77-18.19-24.94-23.42 3.4-16.6.52-28.75-8.25-33.81-8.45-4.87-20.64-.63-32.74 9.9C112 28.25 99.88 24.84 91.12 29.91c-8.44 4.89-10.85 17.57-7.77 33.31C68.5 68.4 58.23 77 58.23 86.75c0 10 9.75 19.31 25.13 24.57-3.07 15.46-.55 27.91 7.87 32.77 8.65 5 21.54 1.54 33.77-9.16 11.92 10.26 24 14.3 32.39 9.43 8.64-5 11.27-18.31 8.12-34.25 16-5.3 24.96-13.24 24.96-23.36zM161 105.84q-1.07.35-2.18.68.4 1.6.7 3.14c2.66 13.43.61 24.46-5.69 28.11-6.1 3.53-16 .06-25.94-8.53q-1.63-1.4-3.17-2.9-1.23 1.19-2.45 2.26c-10.3 9-20.89 12.74-27.19 9.11-6.1-3.52-8-13.79-5.57-26.73q.4-2.11.92-4.19-1.6-.46-3.18-1c-13-4.43-21.48-11.73-21.48-19 0-7 7.94-13.84 20.37-18.18 1.39-.48 2.84-.94 4.35-1.37q-.48-1.93-.87-3.89C87 50.2 88.85 39.67 95 36.13c6.38-3.69 17 .27 27.62 9.69q1 .88 1.95 1.8 1.43-1.38 2.92-2.68c10.12-8.81 20.14-12.49 26.27-9 6.39 3.68 8.26 14.88 5.4 28.77q-.27 1.29-.58 2.58 1.9.55 3.78 1.19c12.64 4.4 20.84 11.24 20.84 18.31 0 7.38-8.76 14.59-22.2 19.05z"/><path class="cls-3" d="M141.62 69q1.85 2.9 3.57 5.87t3.38 6.13a107 107 0 0 0 3.76-10.11c-3.33-.75-6.96-1.38-10.71-1.89zm7 23.63q-1.63 3.15-3.41 6.22t-3.61 6a106.48 106.48 0 0 0 11-1.87 106.56 106.56 0 0 0-3.98-10.35zm-17.17-29.5a107.29 107.29 0 0 0-6.91-8.34c-2.35 2.54-4.69 5.33-7 8.34q6.96-.33 13.91 0zm22.23 2.94q.29-1.16.53-2.33c2.47-12 .94-21.14-3-23.41-3.69-2.13-11.8.85-20.47 8.4q-1.38 1.2-2.7 2.48A117.86 117.86 0 0 1 138 63.59a120.19 120.19 0 0 1 15.68 2.48zM107.34 69c-3.72.47-7.3 1.08-10.65 1.83 1 3.29 2.27 6.7 3.73 10.16q1.59-3.07 3.31-6.07t3.61-5.92zm.11 35.92q-1.92-3-3.69-6t-3.33-6.08c-1.49 3.54-2.77 7-3.81 10.37a106.83 106.83 0 0 0 10.83 1.71zm6.39.56c3.42.22 7 .34 10.63.34s7.27-.13 10.75-.38q3-4.45 5.63-9.09 2.69-4.66 5-9.51-2.38-4.79-5.06-9.42t-5.66-9c-3.49-.27-7.08-.41-10.71-.41s-7.2.14-10.69.4q-3 4.42-5.69 9.07-2.67 4.64-5 9.47 2.32 4.82 5 9.46t5.8 9.07zm10.63-29.18A10.49 10.49 0 1 1 114 86.79a10.49 10.49 0 0 1 10.48-10.48zM94.53 62.4q.36 1.82.81 3.62A122.58 122.58 0 0 1 111 63.58a120.22 120.22 0 0 1 10-12.38c-.59-.56-1.18-1.11-1.76-1.63-9.16-8.13-17.84-11.37-21.77-9.1-3.69 2.14-5.15 10.64-2.95 21.92zm66.16 10.86q-1.69-.58-3.49-1.1a117.7 117.7 0 0 1-5.72 14.66 117.75 117.75 0 0 1 5.95 14.88c.67-.2 1.33-.4 2-.62 11.62-3.85 18.78-9.75 18.78-14.29-.03-4.26-6.66-9.79-17.52-13.53zm-6.75 34.54a117.11 117.11 0 0 1-15.94 2.45 117.89 117.89 0 0 1-9.84 12.5q1.48 1.43 3 2.69c8.54 7.35 16.45 10.13 20.15 8 1.74-1 3.15-3.52 3.85-7.29a42.48 42.48 0 0 0-.56-15.5q-.3-1.4-.66-2.85zm-29.46 3.03q-3.5 0-6.87-.13c2.32 3.05 4.69 5.89 7.07 8.46a106.69 106.69 0 0 0 6.89-8.48q-3.5.15-7.09.15zM95.27 108q-.48 1.94-.86 3.9c-2.1 11.06-.56 19.31 3.14 21.45 1.74 1 4.62 1 8.24-.31a42.49 42.49 0 0 0 13.15-8.23q1.14-1 2.24-2.06a122.08 122.08 0 0 1-10.08-12.46A118 118 0 0 1 95.27 108zm-3.44-35.92q-2 .58-4 1.27c-10.63 3.71-17 9.16-17 13.44 0 2 1.47 4.49 4.38 7a42.5 42.5 0 0 0 13.7 7.28q1.44.49 2.9.91a122.15 122.15 0 0 1 5.8-15 120.32 120.32 0 0 1-5.78-14.9z"/></g><path class="cls-4" d="M348.65 54l-48-27.36v121l48-27.37 48 27.37v-121zm44.45 40.87v46.61l-40.88-23.3-1.79-1v-13.84l10.32 5.88 1.79 1 1.8 1 17 9.7V90.6l-6.09-3.47-1.79-1-1.79-1L351 73.28l-.55-.31V59.15l9.08 5.18 1.79 1 1.8 1 14.7 8.38 1.78 1 1.78 1 11.75 6.7v11.4zm-15.3-24.21l-11.1-6.33L377.8 58zm-47.19-6.33l-11.11 6.33V58zM377.8 99.5l-13.46 7.67-12.12-6.91 19.46-11.09 6.12 3.49zm0 4.09v11.25l-9.87-5.63zm-58.29 0l9.87 5.63-9.87 5.63zm0-4.09v-6.84l6.12-3.49 19.46 11.09-12.09 6.92zm29.15-1.3l-19.44-11.07L348.65 76l19.44 11.08zm-44.45-65.43l40.88 23.31-10.89 6.2-18.2-10.4v20.8l-11.75 6.7zm0 62.1v-11.4l11.79-6.7 1.78-1 1.78-1 14.69-8.38 1.8-1 1.79-1 9.08-5.18V73l-.55.31-20.7 11.8-1.79 1-1.79 1L316 90.6V121l17-9.7 1.8-1 1.79-1 10.32-5.88v13.81l-1.79 1-40.88 23.3zm88.9-15.49l-11.75-6.7v-20.8l-18.25 10.4-10.89-6.21 40.88-23.3z"/><g class="cls-2"><path class="cls-3" d="M577.46 29.46c-7.29 1.52-14.72 7.82-18.14 15.41-2.52 5.59-2.45 11.14.21 15.64 7.46 12 12.7 21.14 16 35.13 11-13.89 20.63-28.72 19.24-43.65-1.77-13.4-10.39-20.49-17.31-22.53zm-19.28 39.4v-.25c0-.29-.05-.57-.08-.86s0-.29 0-.43-.06-.5-.09-.75 0-.35-.06-.52-.07-.47-.1-.7-.05-.37-.08-.56l-.11-.7-.07-.42v-.05c-1-1.45-1.93-2.63-2.8-3.69a54.52 54.52 0 0 0-59.59-17.4c-.81 12.64 5.86 28.92 27.43 34.22l7.07 1.85c6.52 1.7 11.67 3 17.27 4.87 2.64.86 5 1.75 7.3 2.7l.07-.13c3.52-6.79 4.18-12.19 3.84-17.18z"/><path class="cls-3" d="M554.24 86c3.62-6.78 4.29-12.19 3.94-17.18.34 5.03-.32 10.43-3.94 17.18zm3.29-22.33v-.05zm-.04-.24V63.66z"/><path class="cls-3" d="M560.34 69.61v3.29c0 .31 0 .63-.07.94v.44c0 .46-.1.92-.17 1.39v.19q-.1.62-.22 1.24c0 .16-.07.32-.1.48q-.11.51-.24 1l-.13.52c-.1.37-.21.75-.33 1.14l-.12.4q-.25.77-.55 1.57l-.14.34q-.25.64-.52 1.29l-.24.54q-.26.59-.55 1.19l-.26.54q-.37.73-.77 1.47l-.12.22v1.35l-.62-.27a75.24 75.24 0 0 1-8.77 11.76c-4.31 4.89-14 18-12 35 16.45-1.89 25.49-9.22 30.2-15.1 5.83-7.29 7.58-15.33 7.31-20l-.32-2.7c0-.3-.08-.6-.13-.89v-.18c-.2-1.29-.44-2.58-.72-3.84v-.13c-.19-.81-.38-1.63-.59-2.46v-.16c-.13-.5-.28-1-.42-1.55l-.32-1.1c-.11-.38-.22-.72-.33-1.07l-1-2.94c-.13-.37-.26-.71-.39-1.06L566 78.69c-.22-.51-.45-1-.68-1.54l-1.57-3.26-1-1.9-1.93-3.35-.59-1v-.06.91q.09.57.11 1.12z"/><path class="cls-3" d="M555.7 87.8l.12-.22-.19.35a1 1 0 0 1-.09.16c-.15.26-.31.52-.46.79l.62.27zm-1.46-1.8l-.07.13zm3.35-21.91l-.07-.41z"/><circle class="cls-3" cx="557.53" cy="63.67" transform="rotate(-14.65 557.424 63.668)"/></g><g class="cls-2"><path class="cls-3" d="M75.37 171.32v-2.44h6.51l.36 3a7.25 7.25 0 0 1 2.18-2.49 5.06 5.06 0 0 1 3-.9 6.53 6.53 0 0 1 .91.07 5 5 0 0 1 .72.15l-.5 3.51-2.15-.12a4.34 4.34 0 0 0-2.52.7 4.53 4.53 0 0 0-1.57 2v11.9l3.13.54v2.42h-10v-2.42l3.13-.54v-14.84zm25.38 18.74a8.77 8.77 0 0 1-6.9-2.89 10.88 10.88 0 0 1-2.56-7.5v-.84a10.65 10.65 0 0 1 2.64-7.38 8.13 8.13 0 0 1 6.25-2.95 7.87 7.87 0 0 1 6.34 2.53 10.06 10.06 0 0 1 2.16 6.76v2.36H95.2l-.06.09a8.23 8.23 0 0 0 1.52 4.92 4.83 4.83 0 0 0 4.09 1.93 9.55 9.55 0 0 0 3.37-.55 7.77 7.77 0 0 0 2.51-1.51l1.48 2.46a9.07 9.07 0 0 1-2.95 1.81 11.82 11.82 0 0 1-4.41.76zm-.57-18.58a4.09 4.09 0 0 0-3.25 1.6 7.59 7.59 0 0 0-1.65 4v.09h9.58v-.5a5.81 5.81 0 0 0-1.19-3.73 4.24 4.24 0 0 0-3.5-1.46zM126 189.66c-.11-.56-.2-1.07-.27-1.52s-.11-.9-.14-1.35a9.12 9.12 0 0 1-2.74 2.33 7.83 7.83 0 0 1-8.44-.65 5.82 5.82 0 0 1-1.69-4.46 5.17 5.17 0 0 1 2.39-4.56 11.64 11.64 0 0 1 6.56-1.6h3.9v-2.42a3.74 3.74 0 0 0-1.15-2.89 4.54 4.54 0 0 0-3.21-1.06 7.88 7.88 0 0 0-2.51.36 4.7 4.7 0 0 0-1.76 1l-.4 2.19h-2.92v-4a11.23 11.23 0 0 1 3.44-1.81 13.63 13.63 0 0 1 4.38-.68 8.71 8.71 0 0 1 5.72 1.8 6.31 6.31 0 0 1 2.19 5.16V187.06l1.54.21v2.42zm-6.08-2.76a6.74 6.74 0 0 0 3.44-.9 5.62 5.62 0 0 0 2.23-2.17v-3.43h-4a5.75 5.75 0 0 0-3.68 1.08 3.23 3.23 0 0 0-1.35 2.61 2.58 2.58 0 0 0 .84 2.08 3.86 3.86 0 0 0 2.47.72zm23.46.2a5.1 5.1 0 0 0 3.31-1.16 3.55 3.55 0 0 0 1.43-2.85h3.4v.12a5.83 5.83 0 0 1-2.39 4.77 8.75 8.75 0 0 1-5.79 2.08 8.37 8.37 0 0 1-6.92-3 11.43 11.43 0 0 1-2.39-7.43v-.81a11.39 11.39 0 0 1 2.4-7.4 8.37 8.37 0 0 1 6.91-3 11.57 11.57 0 0 1 4.48.83 9.08 9.08 0 0 1 3.29 2.26l.17 4.61h-3l-.82-3.26a5 5 0 0 0-1.73-1.06 6.62 6.62 0 0 0-2.38-.4 4.56 4.56 0 0 0-4.25 2.14 10.08 10.08 0 0 0-1.28 5.25v.81a10.21 10.21 0 0 0 1.27 5.31 4.56 4.56 0 0 0 4.29 2.19zm18.47-23.23v5h3.93v2.8h-3.93v12.63a2.82 2.82 0 0 0 .6 2.05 2.19 2.19 0 0 0 1.6.59 8.41 8.41 0 0 0 1.12-.08q.62-.09 1-.18l.52 2.59a4.85 4.85 0 0 1-1.57.57 9.91 9.91 0 0 1-2.07.22 4.9 4.9 0 0 1-3.67-1.39 6.05 6.05 0 0 1-1.36-4.37v-12.61h-3.28v-2.8h3.28v-5z"/></g><g class="cls-2"><path class="cls-3" d="M290 180.31a10 10 0 0 1-1.89 6.35 6.25 6.25 0 0 1-5.21 2.41 6.64 6.64 0 0 1-3.09-.68 5.83 5.83 0 0 1-2.19-2l-.3 2.34h-2.86v-23.64l-2.74-.47v-2.14h6.06v10.19a5.75 5.75 0 0 1 2.13-1.85 6.51 6.51 0 0 1 3-.64 6 6 0 0 1 5.25 2.69A12.1 12.1 0 0 1 290 180zm-3.33-.35a10.11 10.11 0 0 0-1.14-5.11 3.78 3.78 0 0 0-3.5-2 4.37 4.37 0 0 0-2.58.74 5.23 5.23 0 0 0-1.67 2v8a5.14 5.14 0 0 0 1.69 2 4.46 4.46 0 0 0 2.6.74 3.91 3.91 0 0 0 3.47-1.67 7.68 7.68 0 0 0 1.14-4.41zm18.48 8.76c-.1-.49-.18-.94-.23-1.33s-.1-.79-.12-1.18a8 8 0 0 1-2.4 2 6.86 6.86 0 0 1-7.39-.57 5.1 5.1 0 0 1-1.48-3.91 4.53 4.53 0 0 1 2.09-4 10.2 10.2 0 0 1 5.74-1.4h3.42v-2.12a3.28 3.28 0 0 0-1-2.53 4 4 0 0 0-2.81-.93 6.9 6.9 0 0 0-2.2.32 4.11 4.11 0 0 0-1.54.87l-.35 1.92h-2.56v-3.53a9.84 9.84 0 0 1 3-1.59 11.94 11.94 0 0 1 3.83-.6 7.63 7.63 0 0 1 5 1.58 5.53 5.53 0 0 1 1.92 4.53v10.12l1.35.19v2.12zm-5.33-2.42a5.91 5.91 0 0 0 3-.79 4.93 4.93 0 0 0 2-1.9v-3h-3.53a5 5 0 0 0-3.22.94 2.83 2.83 0 0 0-1.18 2.29 2.26 2.26 0 0 0 .74 1.83 3.38 3.38 0 0 0 2.19.63zm20.6.18a4.47 4.47 0 0 0 2.9-1 3.11 3.11 0 0 0 1.25-2.5h3v.1a5.11 5.11 0 0 1-2.09 4.18 7.66 7.66 0 0 1-5.07 1.83 7.34 7.34 0 0 1-6.06-2.59 10 10 0 0 1-2.09-6.51v-.71a10 10 0 0 1 2.1-6.48 7.34 7.34 0 0 1 6.06-2.6 10.14 10.14 0 0 1 3.93.72 8 8 0 0 1 2.88 2l.15 4h-2.64l-.72-2.86a4.37 4.37 0 0 0-1.52-.93 5.8 5.8 0 0 0-2.09-.35 4 4 0 0 0-3.73 1.87 8.84 8.84 0 0 0-1.12 4.6v.75a8.94 8.94 0 0 0 1.11 4.65 4 4 0 0 0 3.75 1.83zm9.94-21.87v-2.14h6.06v15.2h2.12l3.88-4.81-1.66-.22v-2.14h7.62v2.14l-2.22.44-4.79 5.72 5.84 7.38 2.07.4v2.12h-7.55v-2.1l1.7-.22-4.83-6.06h-2.17v5.8l2.74.47v2.12h-8.8v-2.11l2.74-.47v-21zm38.05 15.7a10 10 0 0 1-1.89 6.35 6.25 6.25 0 0 1-5.21 2.41 6.64 6.64 0 0 1-3.09-.68 5.83 5.83 0 0 1-2.19-2l-.3 2.34h-2.86v-23.64l-2.74-.47v-2.14h6.06v10.19a5.75 5.75 0 0 1 2.13-1.85 6.51 6.51 0 0 1 3-.64 6 6 0 0 1 5.25 2.69 12.1 12.1 0 0 1 1.88 7.08zm-3.33-.35a10.11 10.11 0 0 0-1.14-5.11 3.78 3.78 0 0 0-3.5-2 4.37 4.37 0 0 0-2.58.74 5.23 5.23 0 0 0-1.67 2v8a5.14 5.14 0 0 0 1.69 2 4.46 4.46 0 0 0 2.6.74 3.91 3.91 0 0 0 3.47-1.67 7.68 7.68 0 0 0 1.14-4.41zm6.64-.51a10 10 0 0 1 2.19-6.65 8.08 8.08 0 0 1 11.9 0 10 10 0 0 1 2.2 6.66v.37a10 10 0 0 1-2.19 6.66 8.13 8.13 0 0 1-11.91 0 10 10 0 0 1-2.19-6.65zm3.31.37a8.63 8.63 0 0 0 1.22 4.78 4.39 4.39 0 0 0 7.21 0 8.59 8.59 0 0 0 1.23-4.78v-.37a8.61 8.61 0 0 0-1.23-4.76 4.38 4.38 0 0 0-7.22 0 8.7 8.7 0 0 0-1.21 4.76zm15.51 6.78l2.74-.47v-13l-2.74-.47v-2.14h5.7l.24 2.71a6.61 6.61 0 0 1 2.28-2.24 6.09 6.09 0 0 1 3.12-.8 5.94 5.94 0 0 1 4.56 1.72q1.61 1.72 1.61 5.32v8.9l2.74.47v2.12H402v-2.12l2.74-.47v-8.83a4.92 4.92 0 0 0-1-3.42 3.81 3.81 0 0 0-2.9-1 4.67 4.67 0 0 0-2.53.69 5 5 0 0 0-1.76 1.88v10.68l2.74.47v2.12h-8.8zm30.8 2.47a7.68 7.68 0 0 1-6-2.53A9.53 9.53 0 0 1 413 180v-.74a9.33 9.33 0 0 1 2.31-6.47 7.13 7.13 0 0 1 5.48-2.58 6.9 6.9 0 0 1 5.56 2.22 8.82 8.82 0 0 1 1.89 5.92v2.07h-11.76l-.05.08a7.21 7.21 0 0 0 1.33 4.31 4.23 4.23 0 0 0 3.58 1.69 8.37 8.37 0 0 0 3-.48 6.81 6.81 0 0 0 2.2-1.32l1.29 2.15a8 8 0 0 1-2.58 1.59 10.35 10.35 0 0 1-3.91.63zm-.5-16.28a3.59 3.59 0 0 0-2.84 1.4 6.65 6.65 0 0 0-1.45 3.52v.08H425v-.44a5.09 5.09 0 0 0-1-3.26 3.72 3.72 0 0 0-3.17-1.3z"/></g><g class="cls-2"><path class="cls-3" d="M533.62 168.56l-1.9.29-8.06 21.63a10.9 10.9 0 0 1-2.31 3.72 5.32 5.32 0 0 1-4 1.58 8.36 8.36 0 0 1-1.17-.11q-.72-.11-1.11-.2l.39-3h.69l1 .06a2.35 2.35 0 0 0 2-1.06 12.06 12.06 0 0 0 1.33-2.46l.92-2.19-7-17.95-1.94-.31v-2.48H521v2.48l-2.39.39 3.66 10.44.7 2.7h.12L527.5 169l-2.4-.39v-2.48h8.53zm2.62 16.21l3.19-.55v-15.11l-3.19-.55v-2.48h7v18.15l3.19.55v2.46h-10.19zm7-24.11h-3.85v-3.93h3.85zm6.16 24.11l3.19-.55v-15.11l-3.19-.55v-2.48h7v18.15l3.19.55v2.46H549.4zm7-24.11h-3.85v-3.93h3.85zm16.27 26.58v-2.64l9.33-10.37a26 26 0 0 0 3.39-4.44 7 7 0 0 0 .89-3.36 5.32 5.32 0 0 0-1.25-3.59 4.15 4.15 0 0 0-3.31-1.46 5.65 5.65 0 0 0-4.34 1.5 6.06 6.06 0 0 0-1.39 4.27h-3.69v-.12a8 8 0 0 1 2.44-6.18 9.57 9.57 0 0 1 7-2.5 8.37 8.37 0 0 1 6.13 2.24 7.65 7.65 0 0 1 2.28 5.7 9 9 0 0 1-1.38 4.65 30.3 30.3 0 0 1-3.88 5l-7.49 8.16v.1h10.11l.31-3.27h3.26v6.28z"/></g></g></g></svg>