<svg xmlns="http://www.w3.org/2000/svg" viewBox="0 0 465 465" width="512" height="512"><path d="M375.682 175.909a7.5 7.5 0 0 0-7.5 7.5v2.727h-36.136v-7.841a7.5 7.5 0 0 0-7.5-7.5h-2.727V89.318C321.818 40.068 281.75 0 232.5 0s-89.318 40.068-89.318 89.318v81.477h-2.727a7.5 7.5 0 0 0-7.5 7.5v7.841H96.818v-2.727a7.5 7.5 0 0 0-15 0v20.455a7.5 7.5 0 0 0 15 0v-2.728h5.455v41.591c0 69.29 54.397 126.107 122.727 130.006v46.585h-94.773c-15.414 0-27.954 12.54-27.954 27.954V457.5a7.5 7.5 0 0 0 7.5 7.5h245.454a7.5 7.5 0 0 0 7.5-7.5v-10.228c0-15.414-12.54-27.954-27.954-27.954H240v-46.585c68.331-3.9 122.727-60.717 122.727-130.006v-41.591h5.455v2.728a7.5 7.5 0 0 0 15 0v-20.455a7.5 7.5 0 0 0-7.5-7.5zm-27.955 271.363V450H117.273v-2.728c0-7.143 5.811-12.954 12.954-12.954h204.546c7.143 0 12.954 5.811 12.954 12.954zM147.955 216.477h105.682a7.5 7.5 0 0 0 0-15H147.955v-15.682h169.091v15.682h-33.409a7.5 7.5 0 0 0 0 15h33.409v26.25c0 46.619-37.927 84.545-84.545 84.545s-84.545-37.927-84.545-84.545v-26.25zm10.227-127.159C158.182 48.339 191.521 15 232.5 15s74.318 33.339 74.318 74.318v81.477H158.182V89.318zm189.545 153.409c0 63.537-51.69 115.228-115.227 115.228s-115.227-51.691-115.227-115.228v-41.591h15.682v41.591c0 54.89 44.656 99.545 99.545 99.545s99.545-44.656 99.545-99.545v-41.591h15.682v41.591z" fill="#831383"/><path d="M191.591 129.631c-4.276 0-7.755 3.479-7.755 7.755s3.479 7.756 7.755 7.756 7.756-3.479 7.756-7.756-3.48-7.755-7.756-7.755zm40.939.255h-.01c-4.142 0-7.495 3.358-7.495 7.5s3.363 7.5 7.505 7.5a7.5 7.5 0 0 0 0-15zm40.879-.255c-4.276 0-7.756 3.479-7.756 7.755s3.479 7.756 7.756 7.756 7.755-3.479 7.755-7.756-3.478-7.755-7.755-7.755zM191.591 88.21c-4.276 0-7.755 3.479-7.755 7.756s3.479 7.756 7.755 7.756 7.756-3.479 7.756-7.756-3.48-7.756-7.756-7.756zm40.939.256h-.01c-4.142 0-7.495 3.358-7.495 7.5s3.363 7.5 7.505 7.5a7.5 7.5 0 0 0 0-15zm40.879-.256c-4.276 0-7.756 3.479-7.756 7.756s3.479 7.756 7.756 7.756 7.755-3.479 7.755-7.756-3.478-7.756-7.755-7.756zm-80.284-40.909c-4.276 0-7.756 3.479-7.756 7.755s3.479 7.756 7.756 7.756 7.756-3.479 7.756-7.756-3.48-7.755-7.756-7.755zm39.405.256h-.01c-4.142 0-7.495 3.358-7.495 7.5s3.363 7.5 7.505 7.5a7.5 7.5 0 0 0 0-15zm39.345 15.256c4.276 0 7.756-3.479 7.756-7.756s-3.479-7.755-7.756-7.755-7.756 3.479-7.756 7.755 3.48 7.756 7.756 7.756z" fill="#831383"/></svg>