<svg xmlns="http://www.w3.org/2000/svg" viewBox="0 0 265 380.65"><defs><style>.cls-1{fill:url(#radial-gradient)}.cls-2{mask:url(#mask)}.cls-3{opacity:.5}.cls-4{fill:#e2e2e2}.cls-5{fill:#f1f1f1}.cls-6{fill:#ababab}.cls-7{fill:#00bbd4}.cls-8{fill:#1ad7e5}.cls-9{fill:#5deef9}.cls-10{fill:#edaa15}.cls-11{fill:#f7b521}.cls-12{fill:#ffbc1b}.cls-13{fill:#20b220}.cls-14{fill:#d84149}.cls-15{fill:#e14b4d}.cls-16{fill:#36df39}.cls-17{fill:#23c423}.cls-18{fill:#157eec}.cls-19{fill:#3492e8}.cls-20{fill:#932796}.cls-21{fill:#831383}</style><radialGradient id="radial-gradient" cx="193.18" cy="639.38" r="84.92" gradientTransform="matrix(1.16 -.01 0 .55 -94.83 -10.22)" gradientUnits="userSpaceOnUse"><stop offset="0" stop-color="#fff"/><stop offset="1" stop-color="#231f20" stop-opacity="0"/></radialGradient><mask id="mask" x="33.22" y="292.19" width="199.08" height="88.47" maskUnits="userSpaceOnUse"><path class="cls-1" d="M232.3 335.59c.2 24.42-44.19 44.6-99.17 45.06s-99.71-19-99.91-43.4 44.2-44.6 99.17-45.05 99.71 18.97 99.91 43.39z"/></mask></defs><title>modules</title><g id="Layer_2" data-name="Layer 2"><g id="elements"><g class="cls-2"><path class="cls-3" d="M232.3 335.59c.2 24.42-44.19 44.6-99.17 45.06s-99.71-19-99.91-43.4 44.2-44.6 99.17-45.05 99.71 18.97 99.91 43.39z"/></g><path class="cls-4" d="M32.96 105.33L32.96 180.4 0 107.57 32.96 105.33z"/><path class="cls-5" d="M0 107.57S99.4 81 99.67 81.26l.27.27-67 23.8z"/><path class="cls-6" d="M99.94 81.53L98.69 180.4 32.96 180.4 32.96 105.33 99.94 81.53z"/><path class="cls-7" d="M265 107.57L232.31 105.33 232.31 181.2 265 107.57z"/><path class="cls-8" d="M265 107.57L164.53 80.2 232.31 105.33 265 107.57z"/><path class="cls-9" d="M164.53 80.2L164.53 181.2 232.31 181.2 232.31 105.33 164.53 80.2z"/><path class="cls-10" d="M132.67 256.15L132.67 313.3 198.94 232.5 132.67 256.15z"/><path class="cls-11" d="M132.67 256.15L66.45 232.5 132.67 313.3 132.67 256.15z"/><path class="cls-12" d="M198.94 232.5L132.67 256.15 66.45 232.5 132.67 207.78 198.94 232.5z"/><path class="cls-13" d="M132.67 141.42L198.94 117.19 132.67 93.74 66.67 117.58 132.67 141.42z"/><path class="cls-14" d="M132.67 0L132.67 105.33 198.94 81.35 132.67 0z"/><path class="cls-15" d="M132.67 0L66.67 81.35 132.67 105.33 132.67 0z"/><path class="cls-16" d="M132.67 141.42L132.67 218.94 64.72 195.71 66.67 117.58 132.67 141.42z"/><path class="cls-17" d="M132.67 141.42L198.94 117.19 198.94 195.72 132.67 218.94 132.67 141.42z"/><path class="cls-18" d="M265 205.12L165.8 153.29 231.51 129.63 265 205.12z"/><path class="cls-19" d="M265 205.12L165.8 231.44 165.8 153.29 265 205.12z"/><path class="cls-20" d="M2.13 206.72L101.53 153.29 35.35 129.63 2.13 206.72z"/><path class="cls-21" d="M101.53 153.29L101.53 232.5 2.13 206.72 101.53 153.29z"/></g></g></svg>