<svg xmlns="http://www.w3.org/2000/svg" viewBox="0 0 334.46 408.73"><defs><style>.cls-1{fill:#232425;opacity:0}.cls-2{fill:#2e3238}.cls-3{fill:#ffbc1b}.cls-4{fill:#4e5360}</style></defs><title>nortelsLablogo</title><g id="Layer_2" data-name="Layer 2"><g id="Layer_1-2" data-name="Layer 1"><path class="cls-1" d="M0 0H334.46V408.73H0z"/><path class="cls-2" d="M220.9 166.42a13.2 13.2 0 0 1 7.11 9.23l23.61.33 12.14-23.45a14.36 14.36 0 0 1-3.07-17 9.75 9.75 0 0 1 1.77-2.65l-14.22-19.25-23.93-.49a6.86 6.86 0 0 1-1 2.66 14 14 0 0 1-15.69 7.34l-7 13.44a14.36 14.36 0 0 1 3.07 17 9.75 9.75 0 0 1-1.77 2.65l7.26 9.71a13.2 13.2 0 0 1 11.65.48m-14.43 7.2a6 6 0 0 1-1.24-1.43l-10.66-14.64a3.71 3.71 0 0 1 .85-4.71 10.28 10.28 0 0 0 2.08-2.49 7.06 7.06 0 0 0-3-9.49 3.33 3.33 0 0 1-1.51-4.74l9.71-18.76a3.33 3.33 0 0 1 4.74-1.51 7.06 7.06 0 0 0 9.49-3c.49-.94.66-2 1.14-3a3.11 3.11 0 0 1 3.35-3.42l28.81.25a4.88 4.88 0 0 1 2.81 1.46l16.84 23.38a3.71 3.71 0 0 1-.85 4.71 10.28 10.28 0 0 0-2.08 2.49 7.06 7.06 0 0 0 3 9.49 3.33 3.33 0 0 1 1.51 4.74l-14.57 28.14a2.79 2.79 0 0 1-2.86 1.69l-28.81-.25a2.76 2.76 0 0 1-2.66-1 3.61 3.61 0 0 1-1.07-2.53 7 7 0 0 0-3.85-6.35 6.65 6.65 0 0 0-7.41.53 3.61 3.61 0 0 1-2.69.59 1.29 1.29 0 0 1-1.1-.17"/><path class="cls-2" d="M158.37 134a13.2 13.2 0 0 1 7.11 9.23l12.12.33a6.86 6.86 0 0 1 1-2.66 14 14 0 0 1 15.69-7.34l7-13.44a14.36 14.36 0 0 1-3.07-17 5.23 5.23 0 0 1 2.08-2.49l-7.3-9.71a13.78 13.78 0 0 1-18.76-9.71l-23.61-.33-12.14 23.45a14.05 14.05 0 0 1 2.76 16.89 7.75 7.75 0 0 1-1.61 2.34l7.1 10a13.2 13.2 0 0 1 11.65.48m-14.43 7.2c-.31-.16-.78-.8-.94-.49l-10.81-15.11a3.49 3.49 0 0 1 .54-4.87 10.28 10.28 0 0 0 2.08-2.49 7.06 7.06 0 0 0-3-9.49 3.53 3.53 0 0 1-1.51-4.74l14.57-28.14a4 4 0 0 1 3.33-1.84l28.81.25a3.11 3.11 0 0 1 3.42 3.35 7 7 0 0 0 3.81 6.33 6.65 6.65 0 0 0 7.41-.53 3.71 3.71 0 0 1 4.71.85l11 14.8a3.71 3.71 0 0 1-.85 4.71 10.28 10.28 0 0 0-2.08 2.49 7.06 7.06 0 0 0 3 9.49 3.33 3.33 0 0 1 1.51 4.74l-9.71 18.76a3.33 3.33 0 0 1-4.74 1.51 7.06 7.06 0 0 0-9.49 3 10.28 10.28 0 0 0-.83 3.14 3.11 3.11 0 0 1-3.35 3.42l-18.45-.38a3.11 3.11 0 0 1-3.42-3.35 7 7 0 0 0-3.85-6.35 6.65 6.65 0 0 0-7.41.53 3.38 3.38 0 0 1-3.78.42"/><path class="cls-2" d="M181.51 212.63a6.86 6.86 0 0 1 1-2.66c3.4-6.57 9.1-9.16 15.69-7.34l6.8-13.13a14.36 14.36 0 0 1-3.07-17 9.75 9.75 0 0 1 1.77-2.65l-7.26-9.71a13.78 13.78 0 0 1-18.76-9.71l-12.12-.33a6.86 6.86 0 0 1-1 2.66 14 14 0 0 1-15.69 7.34l-7 13.44a14.36 14.36 0 0 1 3.07 17 6.86 6.86 0 0 1-1.61 2.34l14.22 19.25 23.93.49M154 219a3.17 3.17 0 0 1-1.4-1.12l-16.84-23.38a3.71 3.71 0 0 1 .85-4.71 10.28 10.28 0 0 0 2.08-2.49 7.06 7.06 0 0 0-3-9.49 3.33 3.33 0 0 1-1.51-4.74l9.71-18.76a3.33 3.33 0 0 1 4.74-1.51 7.06 7.06 0 0 0 9.49-3 5.68 5.68 0 0 0 .52-3.3 3.11 3.11 0 0 1 3.35-3.42l18.42.42a3.11 3.11 0 0 1 3.42 3.35 7 7 0 0 0 3.85 6.35 6.65 6.65 0 0 0 7.41-.53 3.71 3.71 0 0 1 4.71.85l10.66 14.64a3.49 3.49 0 0 1-.54 4.87 10.28 10.28 0 0 0-2.08 2.49 7.06 7.06 0 0 0 3 9.49 3.33 3.33 0 0 1 1.51 4.74l-9.71 18.76a3.33 3.33 0 0 1-4.74 1.51c-4.06-2.1-7.39-1-9.49 3a10.28 10.28 0 0 0-.83 3.14 3.11 3.11 0 0 1-3.35 3.42l-28.81-.25c-.47.15-.79 0-1.41-.33"/><path class="cls-3" d="M197.72 134.6a14.08 14.08 0 1 1-19 6 14.12 14.12 0 0 1 19-6"/><path class="cls-2" d="M191.2 162.68a15.6 15.6 0 0 1-13.79-22.74 15.6 15.6 0 0 1 21-6.67 15.57 15.57 0 0 1-2.41 28.67 15.71 15.71 0 0 1-4.8.74zm.07-28.16a12.54 12.54 0 1 0 5.76 1.41 12.6 12.6 0 0 0-5.76-1.41z"/><path class="cls-3" d="M217.15 97.08a14.08 14.08 0 1 1-19 6 14.12 14.12 0 0 1 19-6"/><path class="cls-2" d="M210.62 125.17a15.68 15.68 0 1 1 4.76-.74 15.72 15.72 0 0 1-4.76.74zm.1-28.17a12.71 12.71 0 0 0-3.85.6 12.52 12.52 0 1 0 9.59.8 12.45 12.45 0 0 0-5.74-1.4z"/><path class="cls-3" d="M279.68 129.45a14.08 14.08 0 1 1-19 6 14.12 14.12 0 0 1 19-6"/><path class="cls-2" d="M273.18 157.54a15.58 15.58 0 1 1 7.19-29.42 15.58 15.58 0 0 1-7.19 29.42zm0-28.16a12.58 12.58 0 1 0 5.76 1.41 12.51 12.51 0 0 0-5.72-1.41z"/><path class="cls-3" d="M138.95 171.57a14.08 14.08 0 1 1-19 6 14.12 14.12 0 0 1 19-6"/><path class="cls-2" d="M132.45 199.65a15.56 15.56 0 1 1 13.86-8.42 15.48 15.48 0 0 1-13.86 8.42zm.07-28.16a12.68 12.68 0 0 0-3.85.6 12.52 12.52 0 1 0 9.59.8 12.46 12.46 0 0 0-5.74-1.39z"/><path class="cls-3" d="M221.21 166.4a14.08 14.08 0 1 1-19 6 14.12 14.12 0 0 1 19-6"/><path class="cls-2" d="M214.69 194.49a15.44 15.44 0 0 1-7.11-1.74 15.49 15.49 0 1 1 7.11 1.74zm.09-28.16a12.72 12.72 0 0 0-3.85.6 12.52 12.52 0 1 0 9.59.8 12.45 12.45 0 0 0-5.74-1.4z"/><path class="cls-3" d="M194 65.26a14.08 14.08 0 1 1-19 6 14.12 14.12 0 0 1 19-6"/><path class="cls-2" d="M187.47 93.35a15.58 15.58 0 1 1 7.19-29.42 15.58 15.58 0 0 1-7.19 29.42zm0-28.16a12.58 12.58 0 1 0 5.76 1.41 12.6 12.6 0 0 0-5.71-1.41z"/><path class="cls-4" d="M100 82.08l127.41 187.34h16.09v-54.68c-4.3-1.77-8.17-4.38-12.89-7.64v47.45l-127-191H87.49v205.87H100zm173.32-4.34h11.48v-4l-29.44-44h-25.62V43h20.16zM103.39 43V29.72H48.81v282.15H100V299H62.13V43zm138.77 153.25a31.64 31.64 0 0 0 18.29 6.28h11V299h-41.71v12.86h55V190.95H262.4c-10.51 0-19.33-8.26-19.33-18.75v-48.35A18 18 0 0 1 260.74 106h24V92.75h-24.3a31.21 31.21 0 0 0-18.29 5.76c-7.14 5.35-12.41 13.78-12.41 23.38v50.45c0 9.66 5.26 18.56 12.42 23.91zM81 333.74h6.24l.38 33h-.21l-25.72-38.58H48.81v5.57h6v37.73h-6V377h12.95l-.28-39h.21l26.48 39h6.06v-43.31h6.18v-5.57H81zm38.69 7.12c-10.48 0-18.94 7.68-18.94 18.28s8.47 18.42 18.94 18.42 18.94-7.75 18.94-18.42-8.44-18.29-18.92-18.29zm0 30.88c-6.66 0-12.07-5.26-12.07-12.6s5.41-12.46 12.07-12.46a12.08 12.08 0 0 1 12.07 12.46c.02 7.33-5.46 12.59-12.05 12.59zm130.38-.1c-3.05 0-4-2-4-5v-38.48h-11.6v4.72h5.16v34.18c0 8.17 4.42 10.18 9.42 10.18 1.6 0 3-.14 3-.14v-5.54s-.85.07-1.96.07zm-34.22-30.78c-10 0-17.55 7.2-17.55 18.35 0 10.38 7.56 18.35 18.6 18.35a21.54 21.54 0 0 0 13.67-4.85l-2.78-4.92a17.52 17.52 0 0 1-10.48 3.77c-6.24 0-11.73-4.37-12.14-12.09h25.67a22.46 22.46 0 0 0 .21-2.38c.01-9.09-5.19-16.24-15.18-16.24zm-10.41 14.32c1-5.57 5.13-9.35 10.27-9.35 4.44 0 8.19 3.34 8.4 9.35zm-21.09 8.3v-15.59h8.4v-6.43h-8.58V332h-6.45v9.43h-6v6.43h5.9v16.21c0 11.7 8.83 13.13 13.27 13.13a22.5 22.5 0 0 0 2.31-.1v-5.61h-1.47c-2.63.06-7.36-.88-7.36-8.01zm-28-12.59h-.14a8.75 8.75 0 0 1-.45-2.63V346c0-2.84-.87-4.16-3.92-4.16h-8.11V347h4.57c1 0 1 .61 1 1.64v22.8h-5.16v5.15h17.19v-5.15h-4.73v-9c0-6.85 2.89-14.4 10.39-14.4h1.65v-6.48h-1.47c-5.33.09-9.17 3.76-10.76 9.33zm116.87 5.75c-4.23-1.45-8.1-2.84-8.1-6.16 0-2.84 2.62-4.22 6-4.22s5.88 1.45 5.88 3.6v1.89h6.45v-3.83c0-5.12-7.19-7.06-12.12-7.06-6.11 0-13 2.77-13 9.69 0 6.37 5.77 8.72 11 10.66 4.86 1.73 8.75 2.84 8.75 6.37 0 2.91-3.19 4.5-7.15 4.5s-8.12-1.38-8.12-4.36V365h-6v4.13c0 5.54 7.48 8.38 13.87 8.38 8 0 14.15-3.67 14.15-10.32s-6.14-8.75-11.55-10.55z"/><path class="cls-3" d="M201.8 203.32a14.08 14.08 0 1 1-19 6c3.88-7.5 11.48-9.92 19-6"/><path class="cls-2" d="M195.28 231.4a15.6 15.6 0 0 1-13.79-22.74c4.28-8.28 12.72-11 21-6.67a15.59 15.59 0 0 1-7.21 29.42zm-.54-28.4a11 11 0 0 0-3.33.51 12.95 12.95 0 1 0 9.7 1.16 13.88 13.88 0 0 0-6.37-1.67z"/><path class="cls-3" d="M158.44 135.77a14.08 14.08 0 1 1-19 6c3.88-7.5 11.48-9.92 19-6"/><path class="cls-2" d="M151.94 163.86a15.6 15.6 0 0 1-13.81-22.74c4.29-8.28 12.73-11 21-6.67a15.58 15.58 0 0 1-7.19 29.42zm-.58-28.43c-4.34 0-8.18 2.45-10.57 7.06a12.58 12.58 0 1 0 17-5.39 13.93 13.93 0 0 0-6.44-1.67z"/><path class="cls-3" d="M136.75 102.31a14.08 14.08 0 1 1-19 6c3.88-7.5 11.48-9.92 19-6z"/><path class="cls-2" d="M130.25 130.4a15.58 15.58 0 0 1-13.81-22.74c4.29-8.28 12.72-11 21-6.68a15.58 15.58 0 0 1-7.19 29.42zm-.59-28.4c-4.34 0-8.18 2.46-10.57 7.07a12.58 12.58 0 1 0 17-5.39 13.93 13.93 0 0 0-6.43-1.68z"/></g></g></svg>