<svg xmlns="http://www.w3.org/2000/svg" viewBox="0 0 512.001 512.001" width="512" height="512"><path d="M507.564 200.853l-57.737-68.66a7.522 7.522 0 0 0-11.513 9.681l57.736 68.659a3.913 3.913 0 0 1-.477 5.507l-103.225 86.804-25.324-30.114c4.812-4.046 14.045-10.472 15.275-24.705 2.371-27.432-29.765-44.105-50.834-26.393l-4.341 3.651-25.322-30.114c38.054-32 37.436-30.522 37.794-34.66a7.524 7.524 0 0 0-1.737-5.488l-8.491-10.097c-5.662-6.734-4.79-16.818 1.942-22.481s16.818-4.79 22.481 1.943l8.491 10.097a7.527 7.527 0 0 0 5.108 2.653 7.543 7.543 0 0 0 5.488-1.737l35.142-29.551 13.218 15.718a7.522 7.522 0 0 0 11.513-9.681L414.693 90.41a7.522 7.522 0 0 0-10.597-.916l-35.141 29.551-3.65-4.341c-11.001-13.082-30.592-14.775-43.675-3.775-13.08 11.001-14.772 30.593-3.773 43.674l3.651 4.341-35.14 29.551a7.522 7.522 0 0 0-.916 10.597c37.726 44.866 35.909 43.917 40.112 44.28 3.998.338 5.112-1.421 15.586-10.229 10.839-9.115 27.385-.531 26.166 13.585-.698 8.083-5.481 10.715-15.726 19.329a7.524 7.524 0 0 0-.917 10.597c37.728 44.865 35.91 43.916 40.114 44.28 4.34.374-3.112 5.495 114.468-93.381 7.997-6.723 9.033-18.7 2.309-26.7zm-188.587 54.551h-46.866v-5.673c0-17.092-13.906-30.997-30.998-30.997s-30.998 13.905-30.998 30.997v5.673H170.77V209.49a7.52 7.52 0 0 0-7.521-7.521h-13.193c-8.798 0-15.956-7.157-15.956-15.955s7.158-15.956 15.956-15.956h13.193a7.52 7.52 0 0 0 7.521-7.521v-53.435a7.52 7.52 0 0 0-7.521-7.521h-36.56a7.52 7.52 0 0 0-7.521 7.521 7.52 7.52 0 0 0 7.521 7.521h29.039v38.393h-5.672c-17.092 0-30.998 13.906-30.998 30.998s13.906 30.997 30.998 30.997h5.672v38.393h-46.866a7.52 7.52 0 0 0-7.521 7.521v13.193c0 8.798-7.158 15.956-15.956 15.956-8.798 0-15.956-7.158-15.956-15.956v-13.193a7.52 7.52 0 0 0-7.521-7.521H15.042V120.532a3.914 3.914 0 0 1 3.908-3.909h78.658a7.52 7.52 0 0 0 7.521-7.521 7.52 7.52 0 0 0-7.521-7.521H18.95C8.502 101.58 0 110.082 0 120.532v284.785c0 10.449 8.502 18.951 18.95 18.951h288.596c10.449 0 18.951-8.502 18.951-18.951V262.925a7.52 7.52 0 0 0-7.52-7.521zM155.728 363.311v45.915H18.95a3.913 3.913 0 0 1-3.908-3.909V270.446h39.345v5.672c0 17.092 13.906 30.998 30.998 30.998s30.998-13.906 30.998-30.998v-5.672h39.345v45.913a7.52 7.52 0 0 0 7.521 7.521h13.193c8.798 0 15.956 7.158 15.956 15.956 0 8.798-7.158 15.955-15.956 15.955h-13.193a7.52 7.52 0 0 0-7.521 7.52zm151.819 45.915H170.77v-38.394h5.672c17.092 0 30.998-13.905 30.998-30.997s-13.906-30.998-30.998-30.998h-5.672v-38.392h46.866a7.52 7.52 0 0 0 7.521-7.521V249.73c0-8.798 7.158-15.955 15.956-15.955s15.956 7.157 15.956 15.955v13.194a7.52 7.52 0 0 0 7.521 7.521h46.866v134.872h.001a3.915 3.915 0 0 1-3.91 3.909z" fill="#831383"/></svg>