<svg xmlns="http://www.w3.org/2000/svg" width="18" height="18" viewBox="0 0 18 18"><path fill="#FFF" d="M18 3.731a7.403 7.403 0 0 1-2.121.581 3.708 3.708 0 0 0 1.623-2.042 7.364 7.364 0 0 1-2.344.895A3.692 3.692 0 0 0 12.462 2a3.692 3.692 0 0 0-3.597 4.534 10.49 10.49 0 0 1-7.612-3.858 3.69 3.69 0 0 0 1.143 4.929 3.685 3.685 0 0 1-1.673-.461v.046a3.695 3.695 0 0 0 2.962 3.621 3.714 3.714 0 0 1-1.667.063 3.695 3.695 0 0 0 3.449 2.565 7.401 7.401 0 0 1-5.466 1.528 10.449 10.449 0 0 0 5.661 1.659c6.792 0 10.507-5.627 10.507-10.506 0-.161-.004-.321-.012-.479A7.456 7.456 0 0 0 18 3.731z"/></svg>