<?xml version="1.0" encoding="utf-8"?>
<!-- Generator: Adobe Illustrator 21.1.0, SVG Export Plug-In . SVG Version: 6.00 Build 0)  -->
<svg version="1.1" id="Layer_1" xmlns="http://www.w3.org/2000/svg" xmlns:xlink="http://www.w3.org/1999/xlink" x="0px" y="0px"
	 viewBox="0 0 696.5 207.6" style="enable-background:new 0 0 696.5 207.6;" xml:space="preserve">
<style type="text/css">
	.st0{fill:none;}
	.st1{opacity:0.7;fill:#FFFFFF;enable-background:new    ;}
	.st2{opacity:0.7;}
	.st3{fill:#FFFFFF;}
	.st4{opacity:0.7;fill:#FFFFFF;}
</style>
<title>golang-centos-redis</title>
<rect class="st0" width="696.5" height="207.6"/>
<g>
	<path id="text5083-9" class="st1" d="M401,164.3h-10.7c-1.1,0-2.2-0.2-3.2-0.5c-2.2-0.8-3.9-2.4-4.9-4.5c-1.1-2.3-1.7-4.9-1.6-7.4
		c0-2.5,0.5-5,1.5-7.3c0.9-2.1,2.5-3.8,4.5-4.8c1.5-0.7,3.1-1,4.7-1h9.7v4.9h-10.1c-1.6,0-2.8,0.9-3.6,2.8c-0.6,1.8-0.9,3.8-0.9,5.7
		c0,1.7,0.3,3.4,1.1,5c0.6,1.5,2,2.4,3.6,2.4h9.9L401,164.3 M418.8,164.4h-8.5c-2.1,0-4.1-1.1-5.4-2.8c-1.5-1.8-2.3-4.1-2.2-6.4
		c0-2.5,0.8-4.9,2.5-6.8c1.3-1.8,3.4-2.8,5.5-2.9h8v3.9h-5.9c-0.6,0-1.3,0.1-1.9,0.2c-0.5,0.1-1,0.4-1.4,0.8
		c-0.8,0.8-1.3,1.8-1.2,2.9h10.4v3.9h-10.3c0,0.5,0,1,0.2,1.5c0.2,0.5,0.5,0.9,0.8,1.2c0.4,0.4,0.9,0.7,1.4,0.8
		c0.7,0.1,1.3,0.2,2,0.2h6.1L418.8,164.4 M438.6,164.3h-4.8v-12.3c0-0.3-0.1-0.6-0.2-0.8c-0.2-0.3-0.4-0.5-0.6-0.8
		c-0.4-0.4-1-0.6-1.6-0.6h-4.7v14.6h-4.8v-18.8h9.2c1.2,0,2.4,0.1,3.6,0.3c1.1,0.3,2.1,1,2.8,1.9c0.8,1.1,1.2,2.4,1.2,3.8V164.3
		 M452.4,149.4h-4.7v8.6c0,0.7,0.3,1.4,0.8,1.9c0.6,0.5,1.5,0.8,2.3,0.8h1.4v3.7h-4.5c-1.3,0-2.6-0.5-3.4-1.5
		c-0.5-0.6-0.9-1.2-1.1-2c-0.2-0.8-0.3-1.7-0.2-2.6v-8.8h-3v-3.9h3v-6.6h4.8v6.6h4.7L452.4,149.4 M480.7,151.6
		c0,4.9-1.3,8.5-3.9,10.6c-2.1,1.7-5.2,2.6-9.3,2.6c-4.5,0-7.8-1-10-3c-2.3-2.2-3.5-5.7-3.5-10.5c0-3.9,1.1-7,3.1-9.2
		c2.3-2.4,5.7-3.6,10.3-3.6c5,0,8.5,1.1,10.6,3.4C479.8,143.9,480.7,147.1,480.7,151.6 M474.6,151.4c0.1-2.1-0.5-4.2-1.7-6
		c-1.4-1.7-3.5-2.6-5.6-2.5c-2.2-0.1-4.3,0.9-5.5,2.6c-1.1,1.7-1.7,3.7-1.6,5.8c0,2.7,0.4,4.8,1.2,6.1c1.2,1.8,3.3,2.7,6.4,2.7
		c2.7,0,4.5-0.9,5.5-2.6C474.3,155.6,474.7,153.5,474.6,151.4 M508.5,156.4c0.1,2.1-0.7,4.1-2.1,5.6c-1.4,1.5-3.3,2.3-5.4,2.3h-17.2
		v-4.6H498c0.8,0,1.7-0.2,2.4-0.7c0.7-0.5,1.1-1.3,1.1-2.2c0-2.2-1.5-3.2-4.4-3.2H490c-2,0-3.9-0.7-5.4-2c-1.5-1.2-2.4-3.1-2.3-5.1
		c-0.1-2.1,0.7-4.1,2.2-5.5c1.6-1.5,3.8-2.2,6-2.1h16.4v4.4h-14.5c-0.8,0-1.5,0.3-2,0.9c-0.6,0.5-1,1.2-1,2c0,0.8,0.3,1.6,0.9,2.2
		c0.6,0.6,1.5,0.9,2.3,0.9h7.9c2.1-0.1,4.2,0.6,5.8,2C507.7,152.5,508.5,154.4,508.5,156.4"/>
	<g class="st2">
		<polygon class="st0" points="450,76.3 447.7,74.1 450,71.8 446.8,71.8 446.8,68.6 444.5,70.8 442.2,68.6 442.2,71.8 439,71.8 
			441.3,74.1 439,76.3 442.2,76.3 442.2,79.6 444.5,77.3 446.8,79.6 446.8,76.3 		"/>
		<polygon class="st3" points="442.2,68.6 440.1,66.5 440.1,69.7 436.9,69.7 439,71.8 442.2,71.8 		"/>
		<polygon class="st3" points="432.8,38.7 430.7,40.8 440.1,40.8 440.1,63.5 442.2,65.6 442.2,38.7 		"/>
		<polygon class="st3" points="411.2,57.4 411.2,40.8 427.8,40.8 429.9,38.7 409.2,38.7 409.2,59.4 		"/>
		<polygon class="st3" points="409.2,62.4 409.2,71.8 436.1,71.8 434,69.7 411.2,69.7 411.2,60.3 		"/>
		<polygon class="st3" points="450,71.8 452.1,69.7 448.9,69.7 448.9,66.5 446.8,68.6 446.8,71.8 		"/>
		<polygon class="st3" points="479.8,62.4 477.7,60.3 477.7,69.7 455,69.7 452.9,71.8 479.8,71.8 		"/>
		<polygon class="st3" points="461.2,40.8 477.7,40.8 477.7,57.4 479.8,59.4 479.8,38.7 459.1,38.7 		"/>
		<polygon class="st3" points="456.2,38.7 446.8,38.7 446.8,65.6 448.9,63.5 448.9,40.8 458.3,40.8 		"/>
		<polygon class="st3" points="479.8,88.7 477.7,90.8 477.7,107.3 461.2,107.3 459.1,109.4 479.8,109.4 		"/>
		<polygon class="st3" points="456.2,109.4 458.3,107.3 448.9,107.3 448.9,84.6 446.8,82.5 446.8,109.4 		"/>
		<polygon class="st3" points="452.1,78.4 450,76.3 446.8,76.3 446.8,79.6 448.9,81.7 448.9,78.4 		"/>
		<polygon class="st3" points="479.8,85.8 479.8,76.3 452.9,76.3 455,78.4 477.7,78.4 477.7,87.8 		"/>
		<polygon class="st3" points="439,76.3 436.9,78.4 440.1,78.4 440.1,81.7 442.2,79.6 442.2,76.3 		"/>
		<polygon class="st3" points="409.2,85.8 411.2,87.8 411.2,78.4 434,78.4 436.1,76.3 409.2,76.3 		"/>
		<polygon class="st3" points="427.8,107.3 411.2,107.3 411.2,90.8 409.2,88.7 409.2,109.4 429.9,109.4 		"/>
		<polygon class="st3" points="432.8,109.4 442.2,109.4 442.2,82.5 440.1,84.6 440.1,107.3 430.7,107.3 		"/>
		<path class="st3" d="M411.2,90.8l6.7,6.7l19-19l2.1-2.1l2.3-2.3l-2.3-2.3l-2.1-2.1l-19-19l-6.7,6.7l-2.1,2.1l-14.7,14.6l14.6,14.6
			L411.2,90.8z M417.9,53.6L434,69.7l2,2.1l2.3,2.3l-2.3,2.3l-2,2.1l-16.1,16.1l-6.7-6.7l-2.1-2.1l-11.7-11.7l11.7-11.7l2.1-2.1
			L417.9,53.6z"/>
		<path class="st3" d="M427.8,40.8l-6.7,6.7l19,19l2.1,2.1l2.3,2.3l2.3-2.3l2.1-2.1l19-19l-6.7-6.7l-2.1-2.1l-14.6-14.6l-14.6,14.6
			L427.8,40.8z M464.9,47.5l-16.1,16.1l-2.1,2.1l-2.3,2.3l-2.3-2.3l-2.1-2.1l-16.1-16.1l6.7-6.7l2.1-2.1L444.5,27l11.7,11.7l2.1,2.1
			L464.9,47.5z"/>
		<path class="st3" d="M477.7,57.4l-6.7-6.7l-19,19l-2.1,2.1l-2.3,2.3l2.3,2.3l2.1,2.1l19,19l6.7-6.7l2.1-2.1l14.6-14.6l-14.6-14.6
			L477.7,57.4z M471.1,94.5L455,78.4l-2.1-2.1l-2.3-2.3l2.3-2.3l2.1-2.1l16.1-16.1l6.7,6.7l2.1,2.1l11.7,11.7l-11.7,11.7l-2.1,2.1
			L471.1,94.5z"/>
		<path class="st3" d="M461.2,107.3l6.7-6.7l-19-19l-2.1-2.1l-2.3-2.3l-2.3,2.3l-2.1,2.1l-19,19l6.7,6.7l2.1,2.1l14.6,14.6
			l14.6-14.6L461.2,107.3z M424.1,100.7l16.1-16.1l2.1-2.1l2.3-2.3l2.3,2.3l2.1,2.1l16.1,16.1l-6.7,6.7l-2.1,2.1l-11.7,11.7
			l-11.7-11.7l-2.1-2.1L424.1,100.7z"/>
	</g>
</g>
<g id="Layer_2-2" class="st2">
	<g id="Layer_1-2-2">
		<path class="st3" d="M79.1,69.4c0-10.1-8.2-18.3-18.3-18.3c-10.1,0-18.3,8.2-18.3,18.3c0,10.1,8.2,18.3,18.2,18.3l0,0
			C70.9,87.7,79.1,79.5,79.1,69.4z M60.8,84.2c-8.2,0-14.8-6.6-14.8-14.8c0-8.2,6.6-14.8,14.8-14.8c8.2,0,14.8,6.6,14.8,14.8
			S69,84.2,60.8,84.2C60.8,84.2,60.8,84.2,60.8,84.2z"/>
		<circle class="st3" cx="60.8" cy="72.4" r="6.4"/>
		<path class="st3" d="M120,69.4c0-10.1-8.2-18.3-18.3-18.3s-18.3,8.2-18.3,18.3c0,10.1,8.2,18.3,18.3,18.3c0,0,0,0,0,0l0,0
			C111.8,87.7,120,79.5,120,69.4z M86.9,69.4c0-8.2,6.6-14.8,14.8-14.8c8.2,0,14.8,6.6,14.8,14.8c0,8.2-6.6,14.8-14.7,14.8h-0.1
			C93.6,84.1,87,77.5,86.9,69.4L86.9,69.4z"/>
		<circle class="st3" cx="101.7" cy="72.4" r="6.4"/>
		<path class="st3" d="M83.2,105.2h1.5c1.3,0,2.4-1.1,2.4-2.4v-2.7c3,0.3,5.5,0.3,7.2-1.2c1.1-1.1,1.7-2.7,1.6-4.3
			c0-4.7-6.5-10.3-14.7-10.3s-14.7,5.7-14.7,10.3c-0.1,1.7,0.5,3.3,1.7,4.5c1.2,1,2.7,1.4,4.2,1.3h1.4v2.5c0.1,1.3,1.1,2.3,2.4,2.3
			h1.5c1.3,0,2.5-1.1,2.5-2.4v-3h0.5v3.1C80.8,104.2,81.9,105.2,83.2,105.2z M70.6,96.5c-0.4-0.6-0.5-1.2-0.5-1.9
			c0-1.5,2-3.9,5.1-5.4c-0.6,0.7-0.9,1.6-0.9,2.5c0,2.4,3.1,3.1,7,3.1s7-0.7,7-3.1c-0.1-0.9-0.4-1.8-0.9-2.5
			c3.2,1.5,5.1,3.9,5.1,5.4c0.1,0.6-0.1,1.2-0.4,1.8c-0.7,0.7-3.2,0.5-5.5,0.2c-1.6-0.1-3.3-0.3-5.3-0.3c-1.8,0-3.6,0.2-5.4,0.4
			C73.6,96.9,71.3,97.1,70.6,96.5L70.6,96.5z"/>
		<path class="st3" d="M27.2,60.6L27.2,60.6c3.3,2.2,5.7,4.2,5.3,7.2c-0.4,2.6-0.6,5.3-0.6,7.9l1.6,20.2c0.3,4.4,0.3,8.8,0,13.2
			l-0.3,4.4c0,0.7-0.6,1.2-1.2,1.2c-0.9,0-1.9,0.1-2.8,0.4c-2.4,0.8-4.2,2.8-4.8,5.3c-0.6,2.5,0,5.1,1.7,7c1.4,1.7,3.6,2.6,5.8,2.4
			H32c0.1,0.8,0.7,1.4,1.4,1.5h0.3c0.9,0,1.6-0.6,1.8-1.4c0.2-1-0.1-1.9-0.8-2.7c-0.8-0.8-2.1-1.2-3.2-1c-1.1,0.1-2.1-0.4-2.8-1.2
			c-0.9-1.1-1.2-2.5-0.9-3.8c0.3-1.3,1.3-2.3,2.5-2.7c0.5-0.2,1-0.2,1.5-0.2c2.5,0.1,4.7-1.9,4.9-4.4l0.3-4.4
			c0.4-4.6,0.4-9.2,0-13.8l-1.7-20c0-2.4,0.2-4.9,0.5-7.3c0.7-5-2.9-7.9-5.9-10v-0.2l-1.3-0.6c-2.4-1.1-3.8-3.7-3.3-6.3
			c0.4-2,1.9-3.7,3.9-4.3c1.5-0.6,3.1-0.5,4.5,0.3l0.6,0.2c1.7,0.5,8.3,2,12.4-1.9c16.6-18.9,45.4-20.9,64.3-4.3
			c1.6,1.4,3,2.8,4.4,4.4c3.8,3.6,10.2,2.3,12.1,1.9l0,0l0.8-0.2c1.4-0.7,3.1-0.8,4.5-0.3c1.9,0.7,3.3,2.3,3.7,4.3
			c0.5,2.6-0.8,5.3-3.3,6.4l-1.3,0.6v0.2c-2.9,2-6.4,5-5.8,10c0.4,2.3,0.6,4.7,0.6,7l-1.6,20.2c-0.4,4.6-0.4,9.2,0,13.8l0.4,4.4
			c0.2,2.6,2.4,4.5,5,4.4c2.2,0,4,1.8,4,4c0,0.4-0.1,0.7-0.2,1.1c-0.3,1.2-1.2,2.6-2.3,2.7c-1.8,0-3.5,0.7-4.7,1.9
			c-0.4,0.5-0.6,1.2-0.5,1.9c-0.1,1,0.6,1.8,1.6,1.9c1,0.1,1.8-0.6,1.9-1.6c0-0.1,0-0.1,0-0.2c0.7-0.3,1.4-0.5,2.2-0.5
			c2.7-0.5,4.8-2.6,5.4-5.3c1.1-4-1.3-8.1-5.3-9.2c-0.6-0.2-1.3-0.3-1.9-0.2l0,0c-0.7,0.1-1.4-0.5-1.5-1.2l-0.4-4.4
			c-0.3-4.4-0.3-8.8,0-13.2l1.6-20.3c0-2.6-0.2-5.2-0.6-7.8c-0.4-3.1,2-5,5.4-7.3c4.6-2.3,6.5-7.9,4.2-12.5
			c-1.1-2.1-2.9-3.8-5.2-4.6c-2.3-0.8-4.8-0.7-7,0.3l0,0c-2.1,0.7-6.8,1.3-9.1-0.8C100.4,22.7,69.4,20.6,49,38.5
			c-1.6,1.4-3.1,2.9-4.4,4.4c-2.3,2.2-7,1.6-9.2,0.9l0,0c-2.2-1-4.7-1.1-7-0.3c-4.8,1.7-7.3,7.1-5.6,11.9c0.8,2.2,2.4,4.1,4.6,5.2
			L27.2,60.6z"/>
		<path class="st3" d="M117.1,165.5c-0.3-0.2-2.2-1.5-3.8-2.8c-0.7-0.6-1.8-0.6-2.5,0.2c-0.6,0.7-0.6,1.8,0.2,2.5
			c0.1,0.1,0.1,0.1,0.2,0.2l0,0c0.8,0.6,3.5,2.6,4.1,2.9c2,1.2,2.5,2.3,2.4,2.6s-0.7,0.8-2.2,1.1c-2.1,0.3-4.3,0.2-6.4-0.4
			c-1.3-0.3-2.5-0.7-3.6-1.3c-1.3-0.6-2.8-0.6-4.1,0.1c-12.7,6.3-27.6,6.3-40.3,0c-1.3-0.7-2.8-0.7-4.1-0.1c-1.2,0.6-2.4,1-3.7,1.3
			c-2.1,0.5-4.2,0.7-6.3,0.4c-1.5-0.3-2.1-0.8-2.2-1.1s0.4-1.4,2.4-2.6c1.2-0.7,2-2,2.2-3.4c0.2-1.5-0.3-2.9-1.3-4l-0.5-0.5
			c-0.4-0.4-0.7-0.7-1-1.1c-0.6-0.8-1.7-1-2.4-0.4s-1,1.7-0.4,2.4l0.1,0.2c0.4,0.5,0.8,1,1.3,1.4l0.5,0.5c0.3,0.3,0.4,0.7,0.4,1.1
			c0,0.3-0.2,0.7-0.5,0.8c-3.1,1.9-4.6,4.2-4.1,6.4c0.3,1.1,1.2,3,4.9,3.7c2.6,0.4,5.3,0.3,7.8-0.4c1.5-0.4,3-0.9,4.3-1.5
			c0.3-0.2,0.7-0.2,1.1,0c13.7,6.8,29.8,6.8,43.4,0c0.3-0.2,0.7-0.2,1.1,0c1.4,0.7,2.9,1.2,4.4,1.5c2.6,0.7,5.2,0.8,7.8,0.4
			c3.7-0.7,4.7-2.6,4.9-3.7C121.7,169.8,120.2,167.4,117.1,165.5z"/>
		<path class="st3" d="M30.6,147.3c0,1.9,0.8,3.2,2.5,3.2c1.7,0,3.5-2,4.1-5.1l0.9-4.9c-0.6-0.2-1.3-0.3-2-0.2
			C33,140.3,30.6,143.9,30.6,147.3z"/>
		<path class="st3" d="M56.2,140.3c-3.1,0-4.7,4.6-4.7,7.4c0,2.1,1.1,3.5,3,3.5c2.9,0,4.6-4.4,4.6-7.5
			C59.1,142.1,58.4,140.3,56.2,140.3z"/>
		<path class="st3" d="M82.5,148c0,1.8,0.7,3.1,2.2,3.1s3.6-1.8,4.5-6.4l0.8-4.4c-0.5-0.1-1-0.2-1.5-0.2
			C85,140.3,82.5,144.5,82.5,148z"/>
		<path class="st3" d="M139.7,134.2c-2.6-1-5.4-1.6-8.1-1.5c-4.3-0.1-8.4,1.5-11.4,4.5c-0.3,0.3-0.5,0.5-0.7,0.8
			c-1.1-3.3-4.3-5.4-7.7-5.3c-1.5,0-3,0.3-4.4,0.9c-0.5-0.3-1.1-0.5-1.8-0.5h-4.8c-1,0-1.9,0.4-2.6,1.2c-0.3-0.2-0.6-0.4-1-0.5
			c-2.3-0.7-4.7-1.1-7.2-1.1c-4-0.1-8,1.2-11.1,3.8l1.4-7.6c0.4-1.9-0.9-3.7-2.8-4.1c-0.2,0-0.5-0.1-0.7-0.1h-5.3
			c-1.7,0-3.2,1.2-3.5,2.8l-1.8,9.6c-2.2-2.9-5.6-4.6-9.3-4.5c-3.6,0-7,1.3-9.6,3.6c-0.4-1-1.2-1.7-2.1-2.1c-2.6-1-5.4-1.6-8.1-1.5
			c-8.4-0.3-15.4,6.2-15.8,14.6c0,0.4,0,0.7,0,1.1c0,2.3,0.7,4.6,2,6.4c-0.6,0.4-1,1-1.3,1.8l-1.3,4.2c-0.5,1.6,0.2,3.3,1.6,4.1
			c2.4,1.1,5.1,1.7,7.7,1.6c3.3,0.1,6.6-0.9,9.3-2.8c2.6-2.4,4.3-5.6,4.9-9.1c2.2,2.9,5.6,4.6,9.3,4.5c3.4,0,6.6-1.1,9.2-3.3
			c0.3,1.7,1.8,2.9,3.5,2.9h5.4c1.7,0,3.2-1.2,3.5-2.8v-0.3c1.6,2.2,4.2,3.5,7,3.5c1.5,0,2.9-0.3,4.2-0.9c0.5,0.3,1.1,0.5,1.8,0.5h5
			c0.8,0,1.5-0.2,2.1-0.6c0.6,0.4,1.3,0.6,2,0.6h5.4c1.2,0,2.3-0.6,2.9-1.6l0.2,0.3c0.7,0.8,1.7,1.3,2.7,1.3h5.5
			c0.7,0,1.4-0.2,1.9-0.6l-0.9,2.8c-0.5,1.6,0.2,3.3,1.6,4.1c2.4,1.1,5.1,1.7,7.7,1.6c3.3,0.1,6.6-0.9,9.3-2.8
			c3.4-2.8,4.6-7.2,5.2-10.3l2.7-15.2C142.1,136.4,141.2,134.8,139.7,134.2z M37.4,160.8c-2.1,1.5-4.6,2.2-7.1,2.1
			c-2.1,0.1-4.1-0.3-6-1.2l1.3-4.1c1.5,0.7,3.2,1,4.8,1c2.7,0,4.7-1.2,5.5-4.9l0.3-1.6l0,0c-1.2,1.7-3.2,2.8-5.3,2.8
			c-3.7,0-5.9-3-5.9-6.6c-0.1-6.5,5-11.9,11.5-12.1h0.7c2.3,0,4.6,0.4,6.8,1.3l-2.8,15.1C40.6,156,39.5,159,37.4,160.8z M53.8,155.4
			c-4,0.3-7.5-2.8-7.8-6.8c0-0.3,0-0.6,0-0.9c-0.3-6.1,4.4-11.3,10.5-11.6h0.5c4-0.3,7.5,2.8,7.8,6.8c0,0.3,0,0.5,0,0.8
			c0,0.6,0,1.2-0.1,1.8l-0.4,1.9C63,152.1,58.7,155.5,53.8,155.4z M66.4,155l1.4-7.1c0.1-0.6,0.3-1.2,0.3-1.8l3.4-17.9H77L71.8,155
			L66.4,155z M88.5,155c0-1.1,0.2-2.3,0.2-3.6l0,0c-1.1,2.4-3.5,4-6.2,4.1c-3.3,0-5.6-2.6-5.6-6.4c-0.2-6.9,5.2-12.6,12-12.9
			c0,0,0,0,0,0c0.4,0,0.8,0,1.1,0c2.1,0,4.1,0.3,6.1,0.9l-1.9,9.6c-0.5,2.7-0.8,5.5-0.8,8.3H88.5z M108.7,155l2-10.2
			c0.1-0.7,0.2-1.3,0.2-2c0-1.3-0.5-2.2-1.8-2.2c-1.8,0-3.8,2.2-4.6,6.3l-1.6,8.2h-5.4l2.3-12.4c0.5-2.3,0.8-4.3,1-6h4.8l-0.3,3.1
			l0,0c1.4-2.2,3.8-3.5,6.4-3.5c2.5-0.2,4.6,1.6,4.8,4.1c0,0.3,0,0.7,0,1c0,1-0.1,2.1-0.3,3.1l-0.2,0.9l0,0l-1.9,9.8L108.7,155z
			 M135.6,152.6c-0.6,3.4-1.8,6.4-3.9,8.2c-2.1,1.5-4.6,2.2-7.1,2.1c-2.1,0.1-4.1-0.3-6-1.2l1.3-4.1c1.5,0.7,3.2,1,4.8,1
			c2.7,0,4.7-1.2,5.5-4.9l0.3-1.6l0,0c-1.2,1.7-3.2,2.8-5.3,2.8c-3.6,0-5.9-3-5.9-6.6c0-0.7,0.1-1.5,0.2-2.2l0,0
			c1-5.9,6.2-10.1,12.1-9.8c2.3,0,4.7,0.4,6.8,1.3L135.6,152.6z"/>
		<path class="st3" d="M124.9,147.3c0,1.9,0.8,3.2,2.5,3.2s3.5-2,4.1-5.1l0.9-4.9c-0.6-0.2-1.3-0.3-2-0.2
			C127.3,140.3,124.9,143.9,124.9,147.3z"/>
	</g>
</g>
<path class="st1" d="M661.7,84.4c-0.1,0.2-0.2,0.4-0.4,0.4l-41.5,17.5c-0.1,0-0.2,0.1-0.3,0.1c-0.1,0-0.2,0-0.3-0.1l-41.4-17.5
	c-0.2-0.1-0.4-0.2-0.4-0.4c-0.1,0.1-0.1,0.2-0.1,0.4v12.5c0,0.3,0.2,0.7,0.5,0.8l41.5,17.5c0.1,0,0.2,0.1,0.3,0.1
	c0.1,0,0.2,0,0.3-0.1L661.3,98c0.3-0.1,0.5-0.5,0.5-0.8V84.7C661.8,84.6,661.8,84.5,661.7,84.4L661.7,84.4z M661.7,63.9
	c-0.1,0.2-0.2,0.4-0.4,0.4l-41.5,17.5c-0.1,0-0.2,0.1-0.3,0.1c-0.1,0-0.2,0-0.3-0.1l-41.4-17.5c-0.2-0.1-0.4-0.2-0.4-0.4
	c-0.1,0.1-0.1,0.2-0.1,0.4v12.5c0,0.4,0.2,0.7,0.5,0.8L619.3,95c0.1,0,0.2,0.1,0.3,0.1c0.1,0,0.2,0,0.3-0.1l41.5-17.5
	c0.3-0.1,0.5-0.5,0.5-0.8V64.3C661.9,64.2,661.8,64,661.7,63.9L661.7,63.9z M661.8,44.1c0-0.4-0.2-0.7-0.5-0.8l-41.4-17.5
	c-0.1,0-0.2-0.1-0.3-0.1c-0.1,0-0.2,0-0.3,0.1l-41.4,17.5c-0.3,0.1-0.5,0.5-0.5,0.8v12.5c0,0.4,0.2,0.7,0.5,0.8l41.5,17.5
	c0.1,0,0.2,0.1,0.3,0.1c0.1,0,0.2,0,0.3-0.1l41.5-17.5c0.3-0.1,0.5-0.5,0.5-0.8C661.8,56.2,661.8,44.5,661.8,44.1L661.8,44.1z
	 M605.4,36.5l7.9-1.6l-1.7-3.6c0-0.1,0-0.1,0-0.2c0.1,0,0.1,0,0.2,0l6.7,2.8l7.9-1.6c0.1,0,0.1,0,0.2,0.1c0,0.1,0,0.2,0,0.2
	l-3.6,3.1l6.6,2.7c0.1,0,0.1,0.1,0.1,0.2c0,0.1-0.1,0.1-0.2,0.1l-9.1-0.7l-3.8,3.4c0,0-0.1,0-0.1,0l0,0c-0.1,0-0.1,0-0.1-0.1
	l-1.8-3.8l-9.1-0.7c-0.1,0-0.2-0.1-0.2-0.2S605.3,36.5,605.4,36.5L605.4,36.5z M598.7,49c-2.4,0-4.9-0.4-7.1-1.3c-1.9-0.8-3-2-3-3.1
	s1-2.2,2.8-2.9c2-0.8,4.2-1.1,6.4-1.1c2.4,0,4.8,0.4,7,1.2c2,0.8,3.1,2,3.1,3.2s-1,2.1-2.7,2.9C603.2,48.6,601,49,598.7,49z
	 M625.6,50.6l-4.3,8.6c0,0.1-0.1,0.1-0.2,0.1h-0.1l-15-6.5c-0.1-0.1-0.1-0.2-0.1-0.3c0,0,0.1-0.1,0.1-0.1l19.3-2.1
	c0.1,0,0.2,0,0.2,0.1C625.7,50.5,625.7,50.6,625.6,50.6L625.6,50.6z M650.4,44.8L640,49.3h-0.1l-11.8-5.1c-0.1,0-0.1-0.1-0.1-0.2
	c0-0.1,0-0.1,0.1-0.2l10.4-4.4c0,0,0.1,0,0.1,0l11.8,5c0.1,0,0.1,0.1,0.1,0.2C650.5,44.7,650.5,44.7,650.4,44.8L650.4,44.8z"/>
<g class="st2">
	<path class="st3" d="M573.5,142.9H573c0-0.4-0.2-1.6-0.5-3.7l-7.3,0.8c1,4.3,1.5,8.6,1.4,13c0,3.7-0.2,8.4-0.5,14.1h7.7
		c-0.1-4.1-0.2-10-0.2-17.6c0.7-2.4,3-4,5.6-3.8c1.5,0,2.9,0.3,4.3,0.9l1.7-6.7c-1.5-0.6-3.1-0.9-4.7-1
		C577.6,138.8,574.9,140.3,573.5,142.9z"/>
	<path class="st3" d="M601.8,138.6c-4.5,0-7.9,1.5-10.4,4.5c-2.5,3-3.8,6.7-3.8,10.6c0,3.7,1.4,7.3,4,10c2.6,2.8,6.4,4.2,11.4,4.2
		c3.3,0.1,6.7-0.4,9.8-1.4l0.6-5.6c-3,0.8-6.1,1.3-9.2,1.3c-2.3,0.1-4.5-0.6-6.3-2.1c-1.6-1.4-2.6-3.3-2.8-5.4l18.5-0.3
		c0.1-1.6,0.2-2.9,0.2-3.8c0.1-3.1-0.9-6.2-3-8.6C608.9,139.7,605.9,138.6,601.8,138.6z M595.1,150.5c0.7-4.6,2.8-6.9,6.4-6.9
		c3.8,0,5.6,2.2,5.6,6.6L595.1,150.5z"/>
	<path class="st3" d="M645.2,126.4l-8.1,0.2c0.4,4.6,0.7,9.1,0.7,13.7h-0.4c-1.3-1-3.4-1.5-6.1-1.5c-3.8-0.2-7.5,1.6-9.8,4.7
		c-2.4,3.2-3.6,7-3.5,11c-0.1,3.4,1.1,6.8,3.3,9.5c2.1,2.7,5.4,4.1,8.8,4c2.9,0.1,5.8-0.9,8.1-2.7h0.4c0,0.7,0.1,1.4,0.2,2.1
		l6.8-0.2c-0.4-5.8-0.6-12.9-0.6-21.4S644.9,130.9,645.2,126.4z M632.3,162.6c-2,0.1-3.9-0.9-5-2.6c-1.2-1.9-1.8-4-1.8-6.3
		c-0.1-2.4,0.6-4.8,1.8-6.9c1.2-1.9,3.4-3,5.6-2.8c1.7,0,3.3,0.4,4.8,1.4c0.3,4,0.4,9.1,0.4,15.2C637,161.9,635.1,162.6,632.3,162.6
		z"/>
	<path class="st3" d="M656.7,126.8c-2.6-0.2-4.9,1.8-5.1,4.4c0,0.1,0,0.3,0,0.4c0,1.1,0.4,2.2,1.1,3c0.8,0.9,2,1.3,3.2,1.3
		c1.4,0.1,2.8-0.5,3.7-1.5c0.9-0.9,1.3-2.2,1.3-3.4c0-1.1-0.4-2.2-1.1-3C659,127.2,657.9,126.7,656.7,126.8z"/>
	<path class="st3" d="M659.6,139.2l-8.3,0.8c0.7,4.4,1,8.9,1,13.4c0,5.1-0.1,9.7-0.4,13.7h7.7c-0.3-4.2-0.4-8.7-0.4-13.7
		C659.2,147.6,659.4,142.9,659.6,139.2z"/>
	<path class="st3" d="M683,153.3c-1.8-1.4-3.9-2.4-6.1-3.1c-1.4-0.5-2.7-1.1-4-1.9c-0.6-0.4-1-1.2-1-1.9c0-1.6,1.5-2.4,4.6-2.4
		c2.4,0,4.8,0.4,7,1.3l1-5.7c-2.6-0.7-5.3-1-8-0.9c-3.6,0-6.4,0.8-8.3,2.3c-1.9,1.5-2.9,3.8-2.8,6.1c0,2.1,1,4.2,2.6,5.5
		c1.9,1.4,3.9,2.5,6.2,3.3c3.2,1.3,4.8,2.6,4.8,4c0,0.9-0.5,1.6-1.3,1.9c-1.5,0.5-3.2,0.7-4.8,0.6c-2.4,0-4.9-0.4-7.2-1.3l-1,5.7
		c2.7,0.7,5.4,1.1,8.1,1c8.5,0,12.8-2.9,12.8-8.6C685.7,156.9,684.7,154.8,683,153.3z"/>
</g>
<g>
	<path class="st4" d="M343.5,52.3c0-10.9-8.8-19.7-19.7-19.7c-10.9,0-19.7,8.8-19.7,19.7c0,10.9,8.8,19.7,19.7,19.7
		C334.7,72,343.5,63.2,343.5,52.3L343.5,52.3z"/>
	<g class="st2">
		<path class="st3" d="M256.6,52.3c-37.1,0-67.2,30.1-67.2,67.2s30.1,67.2,67.2,67.2s67.2-30.1,67.2-67.2l0,0
			C323.8,82.4,293.7,52.3,256.6,52.3z M238.7,153.2h-28v-43.5h6v38.2h22V153.2z M269.4,153.2h-5.1v-4.6c-2.2,3.8-5.4,5.5-10,5.5
			c-6.1,0-10.4-3.7-10.4-9v-23.6l0,0v0h5.4v21.2c0,4.5,2.1,6.8,6.4,6.8c2.7,0,5.1-1.2,6.4-3.3c1.1-1.7,2.1-4.4,2.1-6.1v-18.6h5.4
			V153.2z M264.7,91.7c0-10.9,8.8-19.7,19.7-19.7c10.9,0,19.7,8.8,19.7,19.7s-8.8,19.7-19.7,19.7
			C273.6,111.4,264.7,102.6,264.7,91.7z M305.5,149.3v3.9c-1.6,0.5-2.2,0.6-3.5,0.6c-3.2,0-4.9-1.6-5.1-4.8
			c-3.9,3.7-6.7,5.1-10.8,5.1c-6.6,0-10.6-3.5-10.6-9.3c0-4.4,2.4-7.7,6.5-9.1c1.5-0.5,2.5-0.7,5.4-0.9c8.7-0.9,9.1-1.2,9.1-4.4
			c0-3.5-2.4-5.3-7.3-5.3c-4.5,0-6.7,1.8-7.3,6.1h-5c0.3-7,4.6-10.5,12.8-10.5c7.5,0,12,3.3,12,8.9v18.1c0,1.3,0.5,1.9,1.8,1.9
			C304.2,149.5,304.6,149.5,305.5,149.3L305.5,149.3z"/>
		<path class="st3" d="M292.9,138.3l-5.6,0.8c-4.2,0.6-6.2,2.2-6.2,5.1c0,3.5,2,5.3,5.6,5.3c4,0,7.8-1.9,9.3-4.8
			c0.4-0.8,0.4-1,0.4-2.6v-1.5l0.1-3.6v-0.1c-0.1,0-0.3,0.2-0.5,0.3C295.7,137.8,294.6,138.1,292.9,138.3z"/>
	</g>
</g>
</svg>
