<?xml version="1.0" encoding="utf-8"?>
<!-- Generator: Adobe Illustrator 21.1.0, SVG Export Plug-In . SVG Version: 6.00 Build 0)  -->
<svg version="1.1" id="Layer_1" xmlns="http://www.w3.org/2000/svg" xmlns:xlink="http://www.w3.org/1999/xlink" x="0px" y="0px"
	 viewBox="0 0 696.5 207.6" style="enable-background:new 0 0 696.5 207.6;" xml:space="preserve">
<style type="text/css">
	.st0{fill-opacity:0;}
	.st1{opacity:0.7;}
	.st2{fill:#FFFFFF;}
	.st3{fill:#316192;}
</style>
<title>logos4</title>
<rect class="st0" width="696.5" height="207.6"/>
<g class="st1">
	<path class="st2" d="M300.6,72.5c10.8,5.4,14.8,13.1,11.9,24.1c-2.4,9.1-9.3,13.4-17.8,14.1c-11,0.9-22.2,0.2-33.6,0.2V38.4
		c6.5,0,12.8-0.2,19.1,0.1c5.9,0.2,12,0.2,17.7,1.7c9,2.3,14.4,11.5,12,20.5c-0.4,1.4-0.9,2.7-1.6,4
		C306.7,67.7,303.3,69.8,300.6,72.5z M271.4,102.8c6.6,0,13,0.4,19.3-0.1c7.9-0.6,11.7-5.1,11.9-12.7c0.2-7.4-3.4-12.4-10.5-13
		c-6.8-0.6-13.7-0.1-20.8-0.1L271.4,102.8z M271.4,46.2v22.7c6.9-0.4,13.5-0.4,20.1-1.2c5.9-0.7,8.5-4.5,8.4-10.6
		c-0.1-5.7-3-9.2-8.8-9.8C284.7,46.6,278.2,46.5,271.4,46.2L271.4,46.2z"/>
	<path class="st2" d="M368.7,72.6C368.2,72.2,368.4,72.5,368.7,72.6c10.2,3.8,13.5,12.3,12.3,21.9c-1.2,8.8-8.2,15.5-18.6,16.2
		c-10.9,0.8-21.9,0.2-33.1,0.2V38.4c8.8,0,17.5-0.1,26.2,0.1c3.4,0.1,6.8,0.6,10.1,1.5c11.9,3.5,14.9,14,11,24
		C375.2,67.3,371.4,69.7,368.7,72.6z M339.2,103c5,0,9.6,0,14.3,0c1.7,0.1,3.5,0,5.2-0.1c7.2-0.9,11.2-4.6,11.9-11.1
		c0.7-6.9-1.8-12.8-7.4-13.7c-7.8-1.3-15.9-1.2-24-1.7L339.2,103z M339.2,69c7.4-0.5,14.4-0.6,21.3-1.6c5-0.7,7.3-4.2,7.6-9.3
		s-1.8-8.7-6.5-10.2c-7.3-2.4-14.8-1.2-22.4-1.2V69z"/>
	<path class="st2" d="M163.8,46.9h-39.2c-5.8,0-5.8,0-5.6-5.9c0-0.7,0.1-1.3,0.2-2.2h57.4c0.7,3.9,0.5,7.2-2.3,10.6
		c-13.7,16.4-27,33.1-40.5,49.6c-0.9,1.1-1.7,2.2-2.9,3.9h46.8v8h-59.3c-1-4.3-0.1-7.9,2.9-11.5c13.6-16.3,26.9-32.9,40.3-49.3
		C162.2,49.3,162.7,48.4,163.8,46.9z"/>
	<path class="st2" d="M250.3,110.7c-0.4,0.1-0.8,0.3-1.1,0.3c-8.9,0.6-8.9,0.6-11.9-7.8c-1.3-3.5-1.7-8.2-4.2-10s-7.1-0.6-10.9-0.6
		c-6.1,0-12.2,0.1-18.3-0.1c-2.5-0.1-3.8,0.6-4.5,3.1c-1.2,4.1-2.9,8-4.1,12c-0.8,2.5-1.9,3.8-4.8,3.4c-2.4-0.2-4.8-0.2-7.2-0.1
		c4.2-11.1,8.3-21.7,12.4-32.3c4.7-12.3,9.6-24.7,14.2-37c1-2.7,2.4-3.5,5.2-3.5c7.6,0.2,7.6,0,10.3,7c7.8,20.4,15.7,40.7,23.5,61.1
		C249.3,107.7,249.7,109.1,250.3,110.7z M216.8,48.4l-13.1,35.5h26.4L216.8,48.4z"/>
	<path class="st2" d="M484.5,111.1c-3.2,0.1-6.4,0.1-9.6-0.1c-1.1-0.1-2.3-1.5-3.1-2.6c-6-8.9-11.9-17.9-18.2-27.4
		c-1.8,2.6-3.3,4.8-4.8,7.1c-4.1,6.2-8.4,12.2-12.3,18.6c-2.1,3.5-4.6,5.2-8.6,4.5c-1.7-0.1-3.4-0.1-5.1,0c1-1.7,1.7-2.9,2.5-4
		c7-10.6,14-21.2,21.2-31.7c1.4-2,1.3-3.3,0-5.3c-6.1-9.2-12.2-18.4-18.2-27.6c-0.8-1.2-1.5-2.4-2.5-4.2c3.2-0.1,6.4-0.1,9.6,0.1
		c1.1,0.1,2.3,1.5,3.1,2.6c5.1,7.6,10.1,15.2,15.4,23.2c4.8-7.1,9.5-13.6,13.6-20.6c2.5-4.4,5.6-6.3,10.5-5.4c1.3,0.1,2.5,0.1,3.8,0
		c-1,1.7-1.7,2.9-2.5,4.1c-5.9,8.8-11.7,17.7-17.7,26.4c-1.8,2.6-2,4.4-0.1,7.2c7.3,10.6,14.3,21.4,21.3,32.1
		C483.4,109,483.8,109.8,484.5,111.1z"/>
	<path class="st2" d="M397.1,38.5h9.7v72.4h-9.7L397.1,38.5z"/>
</g>
<g class="st1">
	<path class="st2" d="M62.8,152.1L62.8,152.1l-1.3,4.6L62.8,152.1z M69.4,162.2L69.4,162.2z M69,169.1L69,169.1h-8.5H69z
		 M70.8,162.2L70.8,162.2z M69.8,168.6l1.5-5.8L69.8,168.6L69.8,168.6z M101,142.1l-2.8,13.2L101,142.1z M93.9,142.1l-2.1,9.9
		L93.9,142.1z"/>
	<path class="st2" d="M100.5,141.5h-5.9c-0.3,0-0.6,0.3-0.7,0.6l-2.1,9.9l-2.1,9.9c-0.1,0.3-0.4,0.6-0.7,0.6h-4.2
		c-4.1,0-3.6-2.9-2.8-6.9v-0.1l0.1-0.5v-0.1l0.2-1l0.2-1.1c0.1-0.3,0.2-0.8,0.2-1.1l0.9-4.7l0.9-4.7c0.1-0.2-0.1-0.5-0.3-0.6
		c0,0-0.1,0-0.1,0h-6c-0.3,0-0.6,0.3-0.7,0.6l-1.3,6.3l-1.3,6.3l0,0l-0.1,0.6c-1.5,7-1.1,13.6,7,13.8h13c0.3,0,0.6-0.3,0.7-0.6
		l2.8-13.2l2.8-13.2c0.1-0.3-0.1-0.5-0.3-0.6C100.6,141.5,100.6,141.5,100.5,141.5L100.5,141.5z M123.9,162.5c0.3,0,0.5,0.2,0.5,0.5
		c0,0,0,0.1,0,0.1l-0.6,2.9 M123.3,168.8l0.6-2.9L123.3,168.8z M122.6,169.4L122.6,169.4c-1.7,0-6.9,0.1-10.8,0.1
		C116.5,169.4,122.6,169.4,122.6,169.4L122.6,169.4z M108.2,158.8c0-0.3,0.3-0.9,0.7-0.9h-0.7C107.8,161.3,108.2,158.8,108.2,158.8z
		"/>
	<path class="st2" d="M112.3,169.4L112.3,169.4z M123.9,162.4c0.3,0,0.5,0.2,0.5,0.5c0,0,0,0.1,0,0.1l-0.6,2.9l-0.1,0.5 M115,169.3
		L115,169.3z M113.6,169.3L113.6,169.3z M113.2,169.3L113.2,169.3z M112.7,169.3L112.7,169.3z M113.5,169.3L113.5,169.3z
		 M122.5,169.3H115H122.5z M123.2,168.7l0.5-2.4L123.2,168.7L123.2,168.7z M113,169.3L113,169.3z M112.1,169.3L112.1,169.3z
		 M112.5,169.3L112.5,169.3z M26.5,158.8l0.9-4.1l-1,4.7l-1,4.8l0.9-4.2C26.4,159.6,26.5,159.1,26.5,158.8L26.5,158.8z M37.5,141.3
		h-6.4c-0.3,0-0.6,0.3-0.7,0.6l-0.6,2.8l-0.6,2.8c-0.1,0.2,0.1,0.5,0.3,0.6c0,0,0.1,0,0.1,0h6.5c0.3,0,0.6-0.3,0.7-0.6l0.6-2.8
		L38,142l0,0c0.1-0.3-0.1-0.5-0.3-0.6c0,0-0.1,0-0.1,0L37.5,141.3z M36.1,150.5L36.1,150.5l-1.9,9L36.1,150.5z M17.4,180.3
		c0,0,3.2,0,5.3,0C21.1,180.3,18.5,180.3,17.4,180.3L17.4,180.3L17.4,180.3z M28.4,150.6l-0.9,4.1L28.4,150.6z"/>
	<path class="st2" d="M35.7,150h-6.5c-0.3,0-0.6,0.3-0.7,0.6l-0.9,4.1l-0.9,4.1c-0.1,0.3-0.2,0.9-0.2,1.2l-0.9,4.2l-0.9,4.2
		c-0.1,0.3-0.2,0.9-0.3,1.2c0,0-1.2,3.7-3.3,3.6h-0.3H19l0,0c-0.3,0-0.6,0.2-0.7,0.6l-0.7,2.9l-0.7,2.9c-0.1,0.2,0.1,0.5,0.3,0.6
		c0,0,0.1,0,0.2,0c1.2,0,3.8,0,5.3,0c5.1,0,7.8-2.9,9.5-11.2l2-9.6l1.9-9c0.1-0.3-0.1-0.5-0.3-0.6C35.7,150,35.7,149.9,35.7,150
		L35.7,150z M128.1,169.1c-0.3,0-0.5-0.2-0.5-0.5c0,0,0-0.1,0-0.1l4.9-23.4 M134.9,168.5l2-10L134.9,168.5z"/>
	<path class="st2" d="M127.7,168.8c0-0.3,0-0.6,0.1-0.9l2.3-11.1l-2.5,11.7c-0.1,0.3,0.1,0.5,0.3,0.6c0,0,0.1,0,0.1,0h0.6
		C128.4,169.1,127.7,169,127.7,168.8z M134.5,168.9c-0.3,0.1-0.6,0.1-0.9,0.1h0.6c0.3,0,0.6-0.3,0.7-0.6l0.1-0.6
		C134.9,168.2,134.7,168.9,134.5,168.9L134.5,168.9z M135.9,163.5l0.9-4.4l0,0L135.9,163.5z M155.2,146.6l0.3,1.1
		c0.1,0.2-0.1,0.5-0.3,0.6c0,0-0.1,0-0.1,0 M135,167.9l0.9-4.4L135,167.9z M154.9,145.5l0.3,1.2L154.9,145.5z M136.7,159.1
		c0.1-0.3,0.2-0.9,0.2-1.2l0.9-4.5l-1.1,5.1L136.7,159.1z M132.6,144.7l-0.2,1l-2.3,11.1l2.4-11.7L132.6,144.7z"/>
	<path class="st2" d="M155.5,147.8l-0.3-1.1l-0.3-1.2l-0.1-0.6c-0.5-2.1-2.1-3.3-5.4-3.3h-15.5c-0.3,0-0.6,0.3-0.7,0.6l-0.2,1.2
		l-0.3,1.4l-0.1,0.4l-2.4,11.7l-2.3,11.1c-0.1,0.3-0.1,0.6-0.1,0.9c0,0.2,0.7,0.3,1,0.3h4.9c0.3,0,0.6,0,0.9-0.1
		c0.2-0.1,0.4-0.7,0.5-1.1l0.9-4.4l0.9-4.4l0,0l0.1-0.6l1.1-5.1l0.9-4.5c0.1-0.3,0.4-0.6,0.7-0.6H155c0.3,0,0.5-0.2,0.5-0.5
		C155.5,147.9,155.5,147.8,155.5,147.8L155.5,147.8z"/>
	<path class="st2" d="M175.3,137.5h-6.1c-0.4,0-0.7,0.2-0.9,0.5l-10.9,16.4c-0.2,0.3-0.4,0.2-0.5-0.1l-0.8-3.6
		c-0.1-0.3-0.4-0.6-0.7-0.6h-7c-0.2,0-0.4,0.2-0.5,0.4c0,0.1,0,0.1,0,0.2l3.1,11.3c0.1,0.4,0.1,0.8,0,1.2l-1.4,5.4
		c-0.1,0.2,0.1,0.5,0.3,0.6c0.1,0,0.1,0,0.2,0h6.9c0.3,0,0.6-0.3,0.7-0.6l1.4-5.4c0.1-0.4,0.3-0.7,0.5-1.1l17.7-24
		c0.2-0.3,0.1-0.5-0.2-0.5L175.3,137.5L175.3,137.5z M119.6,151.6L119.6,151.6c0,0.4-0.3,0.6-0.7,0.6H110c-0.2,0-0.4-0.1-0.4-0.3
		c0,0,0-0.1,0-0.1l0,0l0,0l0,0v-0.1c0.9-2.3,2.6-3.8,5.8-3.8C119.1,147.8,119.8,149.6,119.6,151.6L119.6,151.6z M117,141.1
		c-11.4,0-14.1,7.1-15.6,14.2s-1.4,14.1,10.4,14.1h3.3h7.5c0.3,0,0.6-0.3,0.7-0.6l0.5-2.4l0.1-0.5l0.6-2.9c0.1-0.3-0.1-0.5-0.3-0.6
		c0,0-0.1,0-0.1,0h-10.7c-4.2,0-5.5-1.1-5-4.5h17c0.3,0,0.5-0.2,0.6-0.4c0,0,0-0.1,0-0.1l0,0C128.5,147.7,127.7,141.1,117,141.1
		L117,141.1z M63,151.5l-0.2,0.6l0,0l-1.3,4.6l-1.3,4.6c-0.1,0.3-0.4,0.6-0.8,0.6h-6.8c-5.2,0-6.4-4.1-5.2-10.2s3.7-10.1,8.8-10.5
		C63.2,140.8,64.6,145.8,63,151.5L63,151.5z M67.7,161.6c0,0,3.2-7.9,3.9-12.5c1-6.1-2-15.1-13.6-15.1s-16.6,8.5-18.5,17.8
		s0.5,17.5,12,17.4h9.1H69c0.3,0,0.6-0.3,0.7-0.6l1.5-5.8c0.1-0.2-0.1-0.5-0.3-0.6c0,0-0.1,0-0.2,0H68c-0.2,0-0.4-0.1-0.4-0.3
		c0,0,0-0.1,0-0.1C67.6,161.8,67.6,161.8,67.7,161.6L67.7,161.6L67.7,161.6z"/>
	<path class="st2" d="M124.8,156.3c0,0.2-0.2,0.4-0.4,0.4c-0.2,0-0.4-0.2-0.4-0.4c0-0.2,0.2-0.4,0.4-0.4
		C124.7,155.9,124.8,156.1,124.8,156.3C124.8,156.3,124.8,156.3,124.8,156.3z"/>
</g>
<g class="st1">
	<path class="st2" d="M369.5,151.2h-4.8l-1.9,11.2h4.5c3.4-0.4,6.3-1.5,6.7-7.8C373.9,152.3,372.1,151.2,369.5,151.2z"/>
	<path class="st2" d="M419.3,151.2h-4.8l-1.9,11.2h4.5c3.4-0.4,6.3-1.5,6.7-7.8C423.8,152.3,421.9,151.2,419.3,151.2z"/>
	<path class="st2" d="M391.8,130.8c-30,0-54.3,12.7-54.3,28.3s24.3,28.3,54.3,28.3s54.3-12.7,54.3-28.3S421.8,130.8,391.8,130.8z
		 M368,168h-6.7l-1.5,7.8h-7.1l6-30.1h13.8c6,0.4,8.9,3.4,8.9,8.6C381.4,163.1,374.3,168.3,368,168z M396,151.2h-5.6l-3.4,16.7H380
		l6-30.1h7l-1.5,7.8h6.7c6,0.4,8.2,3.4,7.4,7.1L403,168h-7.4l2.6-13.8C398.6,152.3,398.6,151.2,396,151.2L396,151.2z M417.8,168
		h-6.7l-1.5,7.8h-7.1l6-30.1h13.8c6,0.4,8.9,3.4,8.9,8.6C431.2,163.1,424.1,168.3,417.8,168L417.8,168z"/>
</g>
<g class="st1">
	<path class="st2" d="M572.3,98.4l-0.8-0.2c-4,3-10.6,1.8-15,0.9c1.4,1.3,3,2.3,4.8,3.1c2.6,1,5.3,1.6,8,1.7c1.5,0.1,3,0,4.4-0.2
		c0.5,0,1-0.2,1.4-0.4C575.3,99.3,573.4,98.8,572.3,98.4z"/>
	<path class="st2" d="M574,88.7c0.3-0.6,0.6-1.2,0.9-1.8c0.2-0.6,0.8-1.6,1.5-2.9c2.7-4.9,8-14.4,7.1-20.3
		c-0.5-3.3-3.5-5.4-11.2-4.4l0,0c0,1.6,0.2,3.2,0.5,4.8c0.3,1.8,0.5,3.7,0.6,5.6c0,2.1-0.1,4.2-0.5,6.3C572.5,80,572,84.4,574,88.7z
		 M575.5,61.5c0.1-0.4,0.5-0.7,1-0.8c0.7-0.1,1.3-0.2,2-0.1c0.7,0.1,1.3,0.3,1.9,0.6c0.6,0.3,0.8,0.7,0.8,1c0,0.5-0.5,1-1.2,1.4
		c-0.5,0.3-1.1,0.4-1.7,0.4c-0.8-0.1-1.5-0.5-2-1.1C575.8,62.6,575.5,62,575.5,61.5L575.5,61.5z"/>
	<path class="st2" d="M612.6,99c-0.2-0.2-0.5-0.3-0.8-0.3c-0.6,0-1.1,0.2-1.5,0.5c-0.6,0.5-1.1,1.1-1.3,1.8
		c-0.3,0.8-0.3,1.6,0.1,2.4c1.9,2.8,4.8,4.6,8.1,5.2c2.3,0.4,4.7,0.2,7-0.4c0.8-0.2,1.6-0.5,2.3-1c-0.8-0.3-1.6-0.6-2.4-0.7l0,0
		c-6.4-1.3-7-2.1-9.1-4.8C614.2,100.8,613.5,99.9,612.6,99z"/>
	<path class="st2" d="M571.7,92c0.1-0.1,0.1-0.1,0.2-0.2c-3.5-5.7-2.8-11.2-2.2-16.3c0.3-1.9,0.4-3.9,0.4-5.8
		c-0.1-1.7-0.3-3.5-0.6-5.2c-0.4-2.1-0.6-4.3-0.6-6.5c0-0.1,0-0.1,0-0.2c0-1.2,0.2-2.4,0.7-3.5c0.7-1.8,1.5-3.6,2.4-5.3
		c3.2-5.8,8.9-13.1,18.1-17.1c-6.1-1.3-12.5-1.2-18.6,0.4c-5.6,1.6-10.6,4.9-14.1,9.5c-2.4,3-1.9,11.5,1,21.9
		c2.8,10.2,7.1,19.9,12.8,28.8C571.4,92.3,571.6,92.2,571.7,92z"/>
	<path class="st2" d="M612.2,95.3c0.2,0,0.5,0.1,0.7,0.1c-0.2-0.8-0.5-1.8-0.9-2.8c-0.5-1.6-1.1-3.2-1.9-4.7
		c-2.1-4.7-4.8-10.7-1.8-24.6c0.9-3.9,3-5.9,5.8-6.8c1.8-0.5,3.7-0.6,5.6-0.3c1.8,0.3,3.6,0.8,5.3,1.5c1,0.4,2,0.9,3,1.5
		c-0.6-8.1-4.2-27.5-23.6-27.1c-16.1,0.2-25.2,10.8-29.3,18.4c-0.9,1.6-1.6,3.2-2.2,4.9c0,0.1-0.1,0.2-0.1,0.3
		c9.5-1,13.3,2.3,14.1,7.3c1.1,7-4.6,17.3-7.5,22.5c-0.7,1.2-1.2,2.2-1.4,2.6c-0.9,2.2-2.2,4.2-3.7,6c-0.3,0.4-0.7,0.8-0.9,1.2
		c2.2,0.6,5.3,1.8,5,8.2l0,0c0.2,1.9,0.7,7.2,1.4,12.4c0.5,4.2,1.1,8.5,1.5,11c0.6,3.3,1.5,5.8,3.2,7.5s4.1,2.8,7.8,3.6
		c4.2,0.9,6.8,0,8.6-1.4c1.5-1.4,2.6-3.2,3.3-5.1c0.5-1.4,1-5.1,1.2-10.1s0.3-11.2,0.1-17.4c-0.1-1.3,0-2.6,0.4-3.8
		c0.5-1.4,1.4-2.6,2.5-3.4C609.5,95.7,610.8,95.3,612.2,95.3z"/>
	<path class="st2" d="M619.4,29.4c-1.8-1.1-3.7-1.9-5.8-2.5c-3-0.9-6.2-1.3-9.4-1.2c-1.8,0-3.5,0.1-5.2,0.3
		c-1.2,0.1-2.4,0.3-3.6,0.5c-4.2-1.2-14-3.4-23.9-1c-7.7,1.8-14.5,6.1-19.3,12.3c-3.7,4.7-3.7,15.5-0.2,27.9
		c2.8,10,7,19.5,12.3,28.4c-1.3-0.3-3.3-0.7-6.4-1.4c-1.9-0.5-4-0.4-5.8,0.3c-2.2,0.9-3.6,3.2-3.3,5.6c0.1,1.4,0.6,2.7,1.5,3.8
		c2.2,2.6,5,4.7,8.2,6.1c2.1,0.9,4.3,1.5,6.5,1.9c2.3,0.4,4.7,0.6,7.1,0.5h0.2l0.8-0.1c0,0.2,0,0.4,0.1,0.6c0,0.4,0.1,0.7,0.1,0.9
		l0,0c0.3,12.6,2.3,19.8,5.5,24.3c3.6,5.2,8.2,6.6,13.3,7.7c13.1,2.8,15.9-5.6,17.4-10.4c0.1-0.3,0.2-0.5,0.3-0.8
		c0.7-2.2,1.2-4.4,1.4-6.7c0.3-2.4,0.4-5,0.5-7.5c0-0.7,0.1-1.8,0.1-2.8c0-0.7,0-1.4-0.1-2.1c1.5,0.6,3,1.1,4.5,1.4
		c3.3,0.5,6.6,0.3,9.8-0.5c2-0.5,3.9-1.5,5.5-2.9c0.2-0.2,0.5-0.5,0.7-0.7c1.1,0.9,2.4,1.7,3.7,2.1c4.7,1.7,8.8-0.1,12.5-4.1
		c2.6-2.9,4.9-7.1,7-12c6-14.1,9.9-34.5,10.1-39.5C667.5,15.9,629.7,25.9,619.4,29.4z M662,57.5c-0.2,4.8-4.1,24.6-9.9,38.4
		c-1.5,4-3.7,7.7-6.4,11.1c-2.7,3-5.6,4.3-8.8,3.2c-1.8-0.7-3.3-1.9-4.5-3.4c-4.1-4.9-7.9-9-9.3-10.5c-2.1,1.1-4.3,1.7-6.7,1.8
		c0,0.1,0,0.2,0,0.2c0.4,0.5,0.8,0.9,1.2,1.4c1.5,1.9,1.9,2.5,7.1,3.5c1.6,0.2,3.2,0.9,4.5,1.8c0.7,0.6,1.1,1.5,0.9,2.4
		c-0.1,0.7-0.5,1.4-1.1,1.9c-1.2,1-2.5,1.6-4,2c-2.7,0.7-5.6,0.9-8.4,0.4c-2.9-0.5-5.6-1.8-7.7-3.8c0,4.8,0,9.3-0.2,13.2
		c-0.2,5.3-0.7,9.5-1.4,11.2c-0.8,2.5-2.3,4.7-4.2,6.5c-2.4,2-6,3.3-11.4,2.1c-4.4-0.9-7.4-2.4-9.5-4.6s-3.3-5.2-4-9.2
		c-0.4-2.4-1-6.7-1.6-11.1c-0.5-3.5-0.9-7-1.1-9.4c-0.3,0.1-0.7,0.2-1.1,0.3c-1.7,0.3-3.5,0.4-5.3,0.3c-3.2-0.1-6.3-0.8-9.2-2
		c-2.6-1.1-5-2.8-6.9-5c-0.5-0.6-0.7-1.3-0.8-2c-0.1-1,0.4-2,1.4-2.3c1.2-0.4,2.5-0.5,3.7-0.1c8.8,1.8,11.4,0.7,12.2-0.1l0,0
		c-6.3-9.6-11-20.1-14.2-31.2c-3.2-11.4-3.4-21-0.4-24.9c4-5.1,9.5-8.9,15.7-10.7c8.5-2.5,16.8-1.2,21.4-0.2L593,29
		c0.1,0,1.8,0.5,3,0.9c2.7-0.6,5.5-1,8.3-1c5.2-0.2,10.3,1.2,14.6,4C625.1,30.5,664,17.7,662,57.5z"/>
	<path class="st2" d="M621.9,35.3c10,9.8,9.6,27.5,9.5,27.6c0,0.4,0,1-0.1,1.7c-0.4,4.6-0.3,9.3,0.3,13.9c0.2,1.4,0.2,2.9,0.1,4.3
		c-0.4,4.5-2.5,8.6-5.9,11.5c3.1,3.3,6.1,6.8,9,10.2c0.8,1,1.8,1.9,3,2.4c1.7,0.6,3.5-0.3,5.2-2.2c2.4-3,4.4-6.5,5.8-10.1
		c5.6-13.4,9.4-32.5,9.6-37.2C660.2,25.2,631,32.4,621.9,35.3z"/>
	<path class="st2" d="M628.4,79c-0.6-4.8-0.7-9.7-0.4-14.5c0-0.5,0.1-1,0.1-1.5c-1.4-0.7-2.9-1.4-4.3-2c-1.5-0.6-3-1-4.5-1.3
		c-1.4-0.2-2.8-0.2-4.1,0.2c-1.6,0.5-2.9,1.8-3.5,4.3c-2.8,12.9-0.3,18.3,1.6,22.5c0.7,1.6,1.4,3.2,1.9,4.8c0.4,1.1,0.7,2.1,1,3.2
		c0.5,0,1-0.1,1.5-0.1c2.8-0.4,5.4-1.8,7.3-3.9c2-2.2,3.3-5.1,3.6-8.1C628.6,81.3,628.6,80.2,628.4,79z M618.6,64.3
		c-0.6,0.6-1.3,1-2.1,1.2l0,0c-0.8,0.1-1.6-0.1-2.2-0.6c-0.5-0.3-0.9-0.8-1.1-1.4c0-0.6,0.4-1.1,0.9-1.4c1.2-0.6,2.6-0.8,4-0.6l0,0
		c0.9,0.2,1.2,0.6,1.3,1.1C619.3,63.3,619.1,63.9,618.6,64.3L618.6,64.3z"/>
</g>
<g class="st1">
	<polygon class="st2" points="527.6,166.2 527.6,166.2 527.6,166.2 	"/>
	<path class="st2" d="M523.7,159.6h-11.3v22.8h2.3v-9.7h8.4c1.8,0.1,3.6-0.5,5-1.7c1.3-1.3,1.9-3,1.8-4.8l0,0
		c0.1-1.7-0.5-3.4-1.6-4.8C527.1,160.1,525.4,159.5,523.7,159.6z M527.6,166.2L527.6,166.2c0,3.1-1.7,4.6-5,4.6h-7.9v-9.5h8.3
		C526,161.4,527.6,163,527.6,166.2L527.6,166.2L527.6,166.2z"/>
	<path class="st2" d="M538.4,166.9c-2.2-0.1-4.4,0.8-6,2.4c-1.3,1.6-2,3.6-1.9,5.6c-0.1,2.1,0.6,4.1,2,5.7c0.7,0.7,1.6,1.3,2.5,1.7
		c1.1,0.4,2.2,0.6,3.4,0.5c4.4,0.3,8.3-3,8.6-7.4c0.3-4.4-3-8.3-7.4-8.6C539.2,166.9,538.8,166.9,538.4,166.9L538.4,166.9z
		 M544.5,174.9c0,0.9-0.1,1.8-0.3,2.7c-0.2,0.7-0.6,1.4-1.1,1.9c-1.2,1.3-2.9,1.9-4.7,1.8c-1.6,0.1-3.2-0.5-4.4-1.7
		c-1.1-1.3-1.6-3-1.5-4.7c0-0.9,0.1-1.8,0.4-2.7c0.8-2.4,3-3.9,5.5-3.7C542.4,168.5,544.5,170.6,544.5,174.9L544.5,174.9z"/>
	<path class="st2" d="M560.3,174.8c-1.3-0.5-2.7-0.8-4-0.9c-1.4-0.1-2.8-0.4-4.2-0.7c-0.9-0.2-1.6-1-1.6-2c0-0.9,0.4-1.7,1.2-2.2
		c1.1-0.6,2.3-0.8,3.6-0.7c3.1,0,4.7,1.2,4.7,3.5h2c0-3.3-2.2-5-6.6-5c-1,0-2,0.1-2.9,0.3c-0.7,0.1-1.4,0.4-2.1,0.7
		c-1.1,0.8-1.8,2.1-1.7,3.4c-0.1,1.4,0.6,2.7,1.9,3.3c1.4,0.5,2.9,0.8,4.4,0.9c1.3,0.1,2.6,0.4,3.9,0.7c1,0.3,1.7,1.3,1.6,2.3
		c0,1.9-1.6,2.9-4.8,2.9c-1.5,0.1-3-0.2-4.3-1c-0.8-0.7-1.2-1.6-1.1-2.7h-2.1c0.1,0.8,0.2,1.5,0.5,2.3c0.2,0.6,0.6,1.1,1.1,1.5
		c0.7,0.5,1.5,0.9,2.4,1.1c1.2,0.2,2.4,0.3,3.6,0.3c4.6,0,6.9-1.5,6.9-4.6l0,0C562.7,176.6,561.8,175.3,560.3,174.8z"/>
	<path class="st2" d="M571,180.9c-0.1,0-0.3,0-0.4,0c-0.6,0.1-1.3-0.1-1.8-0.4c-0.4-0.4-0.6-1-0.5-1.5v-10h3.4v-1.5h-3.4v-4.9h-1.9
		v4.9h-2.5v1.5h2.5v10.3c-0.1,0.9,0.2,1.9,0.9,2.6c0.9,0.6,2,0.8,3,0.7c0.2,0,0.4,0,0.5,0c0.3,0,0.5-0.1,0.9-0.1l0,0v-1.5L571,180.9
		z"/>
	<path class="st2" d="M587.6,167.4h-1.9v2.6c-0.5-0.7-1.2-1.4-1.8-2c-1.3-0.8-2.7-1.1-4.2-1.1c-2.1-0.1-4.2,0.6-5.8,2.1
		c-1.4,1.5-2,3.5-1.9,5.5c0,1.1,0.1,2.2,0.5,3.2c0.3,0.9,0.8,1.7,1.4,2.4c1.5,1.4,3.6,2.1,5.7,2c2.9,0,5-1,6.2-2.9v2.7
		c0.1,1.4-0.4,2.9-1.3,3.9c-1.2,1-2.8,1.5-4.4,1.4c-1.4,0.1-2.9-0.2-4.1-1c-0.7-0.7-1.2-1.6-1.3-2.5h-2c0.1,1.4,0.7,2.7,1.8,3.6
		c1.1,0.9,3,1.3,5.7,1.3c5.1,0,7.6-2.3,7.6-6.8l0,0L587.6,167.4z M584.2,178.9c-0.5,0.5-1.1,0.9-1.8,1.2c-0.8,0.3-1.6,0.4-2.4,0.4
		c-4.1,0-6.1-2-6.1-6c-0.3-3,1.9-5.7,4.9-6c0.3,0,0.7,0,1.1,0c1.6-0.1,3.2,0.5,4.3,1.6c1,1.2,1.6,2.7,1.5,4.3
		C585.8,176,585.2,177.6,584.2,178.9z"/>
	<path class="st2" d="M597.6,166.9c-1.2-0.1-2.4,0.2-3.5,0.8c-0.8,0.6-1.3,1.4-1.5,2.4h-0.1v-2.7h-1.9v14.9h1.9V175
		c0-4.2,1.6-6.3,4.8-6.3c0.5,0,1.1,0.1,1.6,0.2l0,0v-2c-0.2,0-0.4,0-0.5,0H597.6z"/>
	<path class="st2" d="M613.1,169.3c-0.7-0.8-1.6-1.4-2.5-1.8c-1.1-0.4-2.4-0.6-3.6-0.6c-2.2-0.1-4.3,0.6-5.9,2.1
		c-1.4,1.5-2.2,3.6-2.1,5.7c-0.1,2.1,0.6,4.2,2,5.7c1.6,1.6,3.8,2.5,6.1,2.4c1,0,2-0.1,2.9-0.5c0.9-0.2,1.7-0.7,2.4-1.2
		c1.1-1,1.9-2.3,2.2-3.7h-2.1c-0.7,2.6-2.5,3.9-5.4,3.9c-1.8,0.1-3.5-0.6-4.7-1.9c-1-1.2-1.5-2.7-1.4-4.2h13.9
		C615.1,173.1,614.4,171,613.1,169.3z M612.9,173.9h-11.8c0.1-1.4,0.7-2.8,1.7-3.9c0.5-0.5,1.2-0.9,1.9-1.2c0.8-0.3,1.6-0.4,2.4-0.4
		c1.6-0.1,3.1,0.6,4.2,1.7C612.3,171.1,612.9,172.5,612.9,173.9L612.9,173.9z"/>
	<path class="st2" d="M637.8,170.8c-1.3-0.9-3.7-1.6-7.3-2.3c-2.4-0.4-4.7-0.9-6.9-1.8c-1.5-0.7-2.3-2.2-2.2-3.9
		c-0.1-1.5,0.5-3,1.7-4c1.8-1,3.7-1.4,5.7-1.3c5.2,0,7.8,2.1,7.8,6.3h2.9c0-5.6-3.5-8.3-10.6-8.3c-3.9,0-6.6,0.7-8.2,2
		c-1.6,1.4-2.4,3.4-2.2,5.4c-0.2,2.2,0.8,4.3,2.6,5.6c1.2,0.8,3.9,1.5,7.9,2.2c2.1,0.3,4.1,0.8,6.1,1.5c1.5,0.8,2.3,2.3,2.2,4
		c0.1,1.6-0.5,3.1-1.6,4.2c-1.3,1-3.3,1.5-6.2,1.5c-6,0-9-2.5-9-7.4h-2.9c0,3.1,0.8,5.4,2.4,6.9c2,1.8,5.1,2.8,9.4,2.8
		c7.2,0,10.7-2.7,10.7-8C640.3,173.7,639.5,171.9,637.8,170.8z"/>
	<path class="st2" d="M668.3,176.2c0.8-2,1.1-4.1,1.1-6.3c0.2-3.7-1.1-7.4-3.6-10.2c-1.2-1.4-2.8-2.5-4.6-3.1c-2-0.7-4-1.1-6.1-1
		c-4.5,0-7.9,1.3-10.5,3.9c-5.1,6-5.1,14.9,0,20.9c2.8,2.7,6.6,4.2,10.5,4c1.5,0,3-0.1,4.5-0.4c1.2-0.2,2.3-0.7,3.3-1.3l4.3,3.6
		l1.8-1.9l-4.1-3.4C666.5,179.6,667.6,178,668.3,176.2z M663.5,179c-1,1-2.3,1.8-3.7,2.4c-1.5,0.5-3,0.8-4.6,0.8
		c-3.1,0.1-6.2-1.1-8.3-3.3c-2.2-2.4-3.3-5.6-3.2-8.9c0-3.8,1-6.8,3.1-9c2.2-2.2,5.2-3.3,8.3-3.2c3.1-0.2,6.2,1.1,8.3,3.4
		c1.1,1.1,1.9,2.4,2.4,3.9c0.5,1.6,0.8,3.3,0.8,5l0,0C666.8,173.3,665.7,176.5,663.5,179L663.5,179z"/>
	<polygon class="st2" points="674,181.3 674,156.2 671.2,156.3 671.2,183.6 691,183.6 691,181.3 	"/>
	<polygon class="st3" points="691,183.6 691,183.6 691,183.6 	"/>
</g>
</svg>
