<?xml version="1.0" encoding="utf-8"?>
<!-- Generator: Adobe Illustrator 21.1.0, SVG Export Plug-In . SVG Version: 6.00 Build 0)  -->
<svg version="1.1" id="Layer_1" xmlns="http://www.w3.org/2000/svg" xmlns:xlink="http://www.w3.org/1999/xlink" x="0px" y="0px"
	 viewBox="0 0 696.5 207.6" style="enable-background:new 0 0 696.5 207.6;" xml:space="preserve">
<style type="text/css">
	.st0{fill:none;}
	.st1{opacity:0.7;fill:#FFFFFF;enable-background:new    ;}
	.st2{opacity:0.7;}
	.st3{fill:#FFFFFF;}
	.st4{opacity:0.7;fill:#FFFFFF;}
</style>
<title>golang-centos-redis</title>
<rect class="st0" width="696.5" height="207.6"/>
<g>
	<path id="text5083-9" class="st1" d="M385,164.3h-10.7c-1.1,0-2.2-0.2-3.2-0.5c-2.2-0.8-3.9-2.4-4.9-4.5c-1.1-2.3-1.7-4.9-1.6-7.4
		c0-2.5,0.5-5,1.5-7.3c0.9-2.1,2.5-3.8,4.5-4.8c1.5-0.7,3.1-1,4.7-1h9.7v4.9h-10.1c-1.6,0-2.8,0.9-3.6,2.8c-0.6,1.8-0.9,3.8-0.9,5.7
		c0,1.7,0.3,3.4,1.1,5c0.6,1.5,2,2.4,3.6,2.4h9.9L385,164.3 M402.8,164.4h-8.5c-2.1,0-4.1-1.1-5.4-2.8c-1.5-1.8-2.3-4.1-2.2-6.4
		c0-2.5,0.8-4.9,2.5-6.8c1.3-1.8,3.4-2.8,5.5-2.9h8v3.9h-5.9c-0.6,0-1.3,0.1-1.9,0.2c-0.5,0.1-1,0.4-1.4,0.8
		c-0.8,0.8-1.3,1.8-1.2,2.9h10.4v3.9h-10.3c0,0.5,0,1,0.2,1.5c0.2,0.5,0.5,0.9,0.8,1.2c0.4,0.4,0.9,0.7,1.4,0.8
		c0.7,0.1,1.3,0.2,2,0.2h6.1L402.8,164.4 M422.6,164.3h-4.8v-12.3c0-0.3-0.1-0.6-0.2-0.8c-0.2-0.3-0.4-0.5-0.6-0.8
		c-0.4-0.4-1-0.6-1.6-0.6h-4.7v14.6h-4.8v-18.8h9.2c1.2,0,2.4,0.1,3.6,0.3c1.1,0.3,2.1,1,2.8,1.9c0.8,1.1,1.2,2.4,1.2,3.8V164.3
		 M436.4,149.4h-4.7v8.6c0,0.7,0.3,1.4,0.8,1.9c0.6,0.5,1.5,0.8,2.3,0.8h1.4v3.7h-4.5c-1.3,0-2.6-0.5-3.4-1.5
		c-0.5-0.6-0.9-1.2-1.1-2c-0.2-0.8-0.3-1.7-0.2-2.6v-8.8h-3v-3.9h3v-6.6h4.8v6.6h4.7L436.4,149.4 M464.7,151.6
		c0,4.9-1.3,8.5-3.9,10.6c-2.1,1.7-5.2,2.6-9.3,2.6c-4.5,0-7.8-1-10-3c-2.3-2.2-3.5-5.7-3.5-10.5c0-3.9,1.1-7,3.1-9.2
		c2.3-2.4,5.7-3.6,10.3-3.6c5,0,8.5,1.1,10.6,3.4C463.8,143.9,464.7,147.1,464.7,151.6 M458.6,151.4c0.1-2.1-0.5-4.2-1.7-6
		c-1.4-1.7-3.5-2.6-5.6-2.5c-2.2-0.1-4.3,0.9-5.5,2.6c-1.1,1.7-1.7,3.7-1.6,5.8c0,2.7,0.4,4.8,1.2,6.1c1.2,1.8,3.3,2.7,6.4,2.7
		c2.7,0,4.5-0.9,5.5-2.6C458.3,155.6,458.7,153.5,458.6,151.4 M492.5,156.4c0.1,2.1-0.7,4.1-2.1,5.6c-1.4,1.5-3.3,2.3-5.4,2.3h-17.2
		v-4.6H482c0.8,0,1.7-0.2,2.4-0.7c0.7-0.5,1.1-1.3,1.1-2.2c0-2.2-1.5-3.2-4.4-3.2H474c-2,0-3.9-0.7-5.4-2c-1.5-1.2-2.4-3.1-2.3-5.1
		c-0.1-2.1,0.7-4.1,2.2-5.5c1.6-1.5,3.8-2.2,6-2.1h16.4v4.4h-14.5c-0.8,0-1.5,0.3-2,0.9c-0.6,0.5-1,1.2-1,2c0,0.8,0.3,1.6,0.9,2.2
		c0.6,0.6,1.5,0.9,2.3,0.9h7.9c2.1-0.1,4.2,0.6,5.8,2C491.7,152.5,492.5,154.4,492.5,156.4"/>
	<g class="st2">
		<polygon class="st0" points="434,76.3 431.7,74.1 434,71.8 430.8,71.8 430.8,68.6 428.5,70.8 426.2,68.6 426.2,71.8 423,71.8 
			425.3,74.1 423,76.3 426.2,76.3 426.2,79.6 428.5,77.3 430.8,79.6 430.8,76.3 		"/>
		<polygon class="st3" points="426.2,68.6 424.1,66.5 424.1,69.7 420.9,69.7 423,71.8 426.2,71.8 		"/>
		<polygon class="st3" points="416.8,38.7 414.7,40.8 424.1,40.8 424.1,63.5 426.2,65.6 426.2,38.7 		"/>
		<polygon class="st3" points="395.2,57.4 395.2,40.8 411.8,40.8 413.9,38.7 393.2,38.7 393.2,59.4 		"/>
		<polygon class="st3" points="393.2,62.4 393.2,71.8 420.1,71.8 418,69.7 395.2,69.7 395.2,60.3 		"/>
		<polygon class="st3" points="434,71.8 436.1,69.7 432.9,69.7 432.9,66.5 430.8,68.6 430.8,71.8 		"/>
		<polygon class="st3" points="463.8,62.4 461.7,60.3 461.7,69.7 439,69.7 436.9,71.8 463.8,71.8 		"/>
		<polygon class="st3" points="445.2,40.8 461.7,40.8 461.7,57.4 463.8,59.4 463.8,38.7 443.1,38.7 		"/>
		<polygon class="st3" points="440.2,38.7 430.8,38.7 430.8,65.6 432.9,63.5 432.9,40.8 442.3,40.8 		"/>
		<polygon class="st3" points="463.8,88.7 461.7,90.8 461.7,107.3 445.2,107.3 443.1,109.4 463.8,109.4 		"/>
		<polygon class="st3" points="440.2,109.4 442.3,107.3 432.9,107.3 432.9,84.6 430.8,82.5 430.8,109.4 		"/>
		<polygon class="st3" points="436.1,78.4 434,76.3 430.8,76.3 430.8,79.6 432.9,81.7 432.9,78.4 		"/>
		<polygon class="st3" points="463.8,85.8 463.8,76.3 436.9,76.3 439,78.4 461.7,78.4 461.7,87.8 		"/>
		<polygon class="st3" points="423,76.3 420.9,78.4 424.1,78.4 424.1,81.7 426.2,79.6 426.2,76.3 		"/>
		<polygon class="st3" points="393.2,85.8 395.2,87.8 395.2,78.4 418,78.4 420.1,76.3 393.2,76.3 		"/>
		<polygon class="st3" points="411.8,107.3 395.2,107.3 395.2,90.8 393.2,88.7 393.2,109.4 413.9,109.4 		"/>
		<polygon class="st3" points="416.8,109.4 426.2,109.4 426.2,82.5 424.1,84.6 424.1,107.3 414.7,107.3 		"/>
		<path class="st3" d="M395.2,90.8l6.7,6.7l19-19l2.1-2.1l2.3-2.3l-2.3-2.3l-2.1-2.1l-19-19l-6.7,6.7l-2.1,2.1l-14.7,14.6l14.6,14.6
			L395.2,90.8z M401.9,53.6L418,69.7l2,2.1l2.3,2.3l-2.3,2.3l-2,2.1l-16.1,16.1l-6.7-6.7l-2.1-2.1l-11.7-11.7l11.7-11.7l2.1-2.1
			L401.9,53.6z"/>
		<path class="st3" d="M411.8,40.8l-6.7,6.7l19,19l2.1,2.1l2.3,2.3l2.3-2.3l2.1-2.1l19-19l-6.7-6.7l-2.1-2.1l-14.6-14.6l-14.6,14.6
			L411.8,40.8z M448.9,47.5l-16.1,16.1l-2.1,2.1l-2.3,2.3l-2.3-2.3l-2.1-2.1l-16.1-16.1l6.7-6.7l2.1-2.1L428.5,27l11.7,11.7l2.1,2.1
			L448.9,47.5z"/>
		<path class="st3" d="M461.7,57.4l-6.7-6.7l-19,19l-2.1,2.1l-2.3,2.3l2.3,2.3l2.1,2.1l19,19l6.7-6.7l2.1-2.1l14.6-14.6l-14.6-14.6
			L461.7,57.4z M455.1,94.5L439,78.4l-2.1-2.1l-2.3-2.3l2.3-2.3l2.1-2.1l16.1-16.1l6.7,6.7l2.1,2.1l11.7,11.7l-11.7,11.7l-2.1,2.1
			L455.1,94.5z"/>
		<path class="st3" d="M445.2,107.3l6.7-6.7l-19-19l-2.1-2.1l-2.3-2.3l-2.3,2.3l-2.1,2.1l-19,19l6.7,6.7l2.1,2.1l14.6,14.6
			l14.6-14.6L445.2,107.3z M408.1,100.7l16.1-16.1l2.1-2.1l2.3-2.3l2.3,2.3l2.1,2.1l16.1,16.1l-6.7,6.7l-2.1,2.1l-11.7,11.7
			l-11.7-11.7l-2.1-2.1L408.1,100.7z"/>
	</g>
</g>
<g id="Layer_2-2" class="st2">
	<g id="Layer_1-2-2">
		<path class="st3" d="M99.1,69.4c0-10.1-8.2-18.3-18.3-18.3s-18.3,8.2-18.3,18.3c0,10.1,8.2,18.3,18.2,18.3l0,0
			C90.9,87.7,99.1,79.5,99.1,69.4z M80.8,84.2c-8.2,0-14.8-6.6-14.8-14.8c0-8.2,6.6-14.8,14.8-14.8c8.2,0,14.8,6.6,14.8,14.8
			S89,84.2,80.8,84.2C80.8,84.2,80.8,84.2,80.8,84.2z"/>
		<circle class="st3" cx="80.8" cy="72.4" r="6.4"/>
		<path class="st3" d="M140,69.4c0-10.1-8.2-18.3-18.3-18.3s-18.3,8.2-18.3,18.3c0,10.1,8.2,18.3,18.3,18.3c0,0,0,0,0,0l0,0
			C131.8,87.7,140,79.5,140,69.4z M106.9,69.4c0-8.2,6.6-14.8,14.8-14.8c8.2,0,14.8,6.6,14.8,14.8c0,8.2-6.6,14.8-14.7,14.8h-0.1
			C113.6,84.1,107,77.5,106.9,69.4L106.9,69.4z"/>
		<circle class="st3" cx="121.7" cy="72.4" r="6.4"/>
		<path class="st3" d="M103.2,105.2h1.5c1.3,0,2.4-1.1,2.4-2.4v-2.7c3,0.3,5.5,0.3,7.2-1.2c1.1-1.1,1.7-2.7,1.6-4.3
			c0-4.7-6.5-10.3-14.7-10.3s-14.7,5.7-14.7,10.3c-0.1,1.7,0.5,3.3,1.7,4.5c1.2,1,2.7,1.4,4.2,1.3h1.4v2.5c0.1,1.3,1.1,2.3,2.4,2.3
			h1.5c1.3,0,2.5-1.1,2.5-2.4v-3h0.5v3.1C100.8,104.2,101.9,105.2,103.2,105.2z M90.6,96.5c-0.4-0.6-0.5-1.2-0.5-1.9
			c0-1.5,2-3.9,5.1-5.4c-0.6,0.7-0.9,1.6-0.9,2.5c0,2.4,3.1,3.1,7,3.1s7-0.7,7-3.1c-0.1-0.9-0.4-1.8-0.9-2.5
			c3.2,1.5,5.1,3.9,5.1,5.4c0.1,0.6-0.1,1.2-0.4,1.8c-0.7,0.7-3.2,0.5-5.5,0.2c-1.6-0.1-3.3-0.3-5.3-0.3c-1.8,0-3.6,0.2-5.4,0.4
			C93.6,96.9,91.3,97.1,90.6,96.5L90.6,96.5z"/>
		<path class="st3" d="M47.2,60.6L47.2,60.6c3.3,2.2,5.7,4.2,5.3,7.2c-0.4,2.6-0.6,5.3-0.6,7.9l1.6,20.2c0.3,4.4,0.3,8.8,0,13.2
			l-0.3,4.4c0,0.7-0.6,1.2-1.2,1.2c-0.9,0-1.9,0.1-2.8,0.4c-2.4,0.8-4.2,2.8-4.8,5.3c-0.6,2.5,0,5.1,1.7,7c1.4,1.7,3.6,2.6,5.8,2.4
			H52c0.1,0.8,0.7,1.4,1.4,1.5h0.3c0.9,0,1.6-0.6,1.8-1.4c0.2-1-0.1-1.9-0.8-2.7c-0.8-0.8-2.1-1.2-3.2-1c-1.1,0.1-2.1-0.4-2.8-1.2
			c-0.9-1.1-1.2-2.5-0.9-3.8c0.3-1.3,1.3-2.3,2.5-2.7c0.5-0.2,1-0.2,1.5-0.2c2.5,0.1,4.7-1.9,4.9-4.4l0.3-4.4
			c0.4-4.6,0.4-9.2,0-13.8l-1.7-20c0-2.4,0.2-4.9,0.5-7.3c0.7-5-2.9-7.9-5.9-10v-0.2l-1.3-0.6c-2.4-1.1-3.8-3.7-3.3-6.3
			c0.4-2,1.9-3.7,3.9-4.3c1.5-0.6,3.1-0.5,4.5,0.3l0.6,0.2c1.7,0.5,8.3,2,12.4-1.9c16.6-18.9,45.4-20.9,64.3-4.3
			c1.6,1.4,3,2.8,4.4,4.4c3.8,3.6,10.2,2.3,12.1,1.9l0,0l0.8-0.2c1.4-0.7,3.1-0.8,4.5-0.3c1.9,0.7,3.3,2.3,3.7,4.3
			c0.5,2.6-0.8,5.3-3.3,6.4l-1.3,0.6v0.2c-2.9,2-6.4,5-5.8,10c0.4,2.3,0.6,4.7,0.6,7l-1.6,20.2c-0.4,4.6-0.4,9.2,0,13.8l0.4,4.4
			c0.2,2.6,2.4,4.5,5,4.4c2.2,0,4,1.8,4,4c0,0.4-0.1,0.7-0.2,1.1c-0.3,1.2-1.2,2.6-2.3,2.7c-1.8,0-3.5,0.7-4.7,1.9
			c-0.4,0.5-0.6,1.2-0.5,1.9c-0.1,1,0.6,1.8,1.6,1.9c1,0.1,1.8-0.6,1.9-1.6c0-0.1,0-0.1,0-0.2c0.7-0.3,1.4-0.5,2.2-0.5
			c2.7-0.5,4.8-2.6,5.4-5.3c1.1-4-1.3-8.1-5.3-9.2c-0.6-0.2-1.3-0.3-1.9-0.2l0,0c-0.7,0.1-1.4-0.5-1.5-1.2l-0.4-4.4
			c-0.3-4.4-0.3-8.8,0-13.2l1.6-20.3c0-2.6-0.2-5.2-0.6-7.8c-0.4-3.1,2-5,5.4-7.3c4.6-2.3,6.5-7.9,4.2-12.5
			c-1.1-2.1-2.9-3.8-5.2-4.6c-2.3-0.8-4.8-0.7-7,0.3l0,0c-2.1,0.7-6.8,1.3-9.1-0.8C120.4,22.7,89.4,20.6,69,38.5
			c-1.6,1.4-3.1,2.9-4.4,4.4c-2.3,2.2-7,1.6-9.2,0.9l0,0c-2.2-1-4.7-1.1-7-0.3c-4.8,1.7-7.3,7.1-5.6,11.9c0.8,2.2,2.4,4.1,4.6,5.2
			L47.2,60.6z"/>
		<path class="st3" d="M137.1,165.5c-0.3-0.2-2.2-1.5-3.8-2.8c-0.7-0.6-1.8-0.6-2.5,0.2c-0.6,0.7-0.6,1.8,0.2,2.5
			c0.1,0.1,0.1,0.1,0.2,0.2l0,0c0.8,0.6,3.5,2.6,4.1,2.9c2,1.2,2.5,2.3,2.4,2.6s-0.7,0.8-2.2,1.1c-2.1,0.3-4.3,0.2-6.4-0.4
			c-1.3-0.3-2.5-0.7-3.6-1.3c-1.3-0.6-2.8-0.6-4.1,0.1c-12.7,6.3-27.6,6.3-40.3,0c-1.3-0.7-2.8-0.7-4.1-0.1c-1.2,0.6-2.4,1-3.7,1.3
			c-2.1,0.5-4.2,0.7-6.3,0.4c-1.5-0.3-2.1-0.8-2.2-1.1s0.4-1.4,2.4-2.6c1.2-0.7,2-2,2.2-3.4c0.2-1.5-0.3-2.9-1.3-4l-0.5-0.5
			c-0.4-0.4-0.7-0.7-1-1.1c-0.6-0.8-1.7-1-2.4-0.4s-1,1.7-0.4,2.4l0.1,0.2c0.4,0.5,0.8,1,1.3,1.4l0.5,0.5c0.3,0.3,0.4,0.7,0.4,1.1
			c0,0.3-0.2,0.7-0.5,0.8c-3.1,1.9-4.6,4.2-4.1,6.4c0.3,1.1,1.2,3,4.9,3.7c2.6,0.4,5.3,0.3,7.8-0.4c1.5-0.4,3-0.9,4.3-1.5
			c0.3-0.2,0.7-0.2,1.1,0c13.7,6.8,29.8,6.8,43.4,0c0.3-0.2,0.7-0.2,1.1,0c1.4,0.7,2.9,1.2,4.3,1.5c2.6,0.7,5.2,0.8,7.8,0.4
			c3.7-0.7,4.7-2.6,4.9-3.7C141.7,169.8,140.2,167.4,137.1,165.5z"/>
		<path class="st3" d="M50.6,147.3c0,1.9,0.8,3.2,2.5,3.2s3.5-2,4.1-5.1l0.9-4.9c-0.6-0.2-1.3-0.3-2-0.2
			C53,140.3,50.6,143.9,50.6,147.3z"/>
		<path class="st3" d="M76.2,140.3c-3.1,0-4.7,4.6-4.7,7.4c0,2.1,1.1,3.5,3,3.5c2.9,0,4.6-4.4,4.6-7.5
			C79.1,142.1,78.4,140.3,76.2,140.3z"/>
		<path class="st3" d="M102.5,148c0,1.8,0.7,3.1,2.2,3.1s3.6-1.8,4.5-6.4l0.8-4.4c-0.5-0.1-1-0.2-1.5-0.2
			C105,140.3,102.5,144.5,102.5,148z"/>
		<path class="st3" d="M159.7,134.2c-2.6-1-5.4-1.6-8.1-1.5c-4.3-0.1-8.4,1.5-11.4,4.5c-0.3,0.3-0.5,0.5-0.7,0.8
			c-1.1-3.3-4.3-5.4-7.7-5.3c-1.5,0-3,0.3-4.4,0.9c-0.5-0.3-1.1-0.5-1.8-0.5h-4.8c-1,0-1.9,0.4-2.6,1.2c-0.3-0.2-0.6-0.4-1-0.5
			c-2.3-0.7-4.7-1.1-7.2-1.1c-4-0.1-8,1.2-11.1,3.8l1.4-7.6c0.4-1.9-0.9-3.7-2.8-4.1c-0.2,0-0.5-0.1-0.7-0.1h-5.3
			c-1.7,0-3.2,1.2-3.5,2.8l-1.8,9.6c-2.2-2.9-5.6-4.6-9.3-4.5c-3.6,0-7,1.3-9.6,3.6c-0.4-1-1.2-1.7-2.1-2.1c-2.6-1-5.4-1.6-8.1-1.5
			c-8.4-0.3-15.4,6.2-15.8,14.6c0,0.4,0,0.7,0,1.1c0,2.3,0.7,4.6,2,6.4c-0.6,0.4-1,1-1.3,1.8l-1.3,4.2c-0.5,1.6,0.2,3.3,1.6,4.1
			c2.4,1.1,5.1,1.7,7.7,1.6c3.3,0.1,6.6-0.9,9.3-2.8c2.6-2.4,4.3-5.6,4.9-9.1c2.2,2.9,5.6,4.6,9.3,4.5c3.4,0,6.6-1.1,9.2-3.3
			c0.3,1.7,1.8,2.9,3.5,2.9h5.4c1.7,0,3.2-1.2,3.5-2.8v-0.3c1.6,2.2,4.2,3.5,7,3.5c1.5,0,2.9-0.3,4.2-0.9c0.5,0.3,1.1,0.5,1.8,0.5h5
			c0.8,0,1.5-0.2,2.1-0.6c0.6,0.4,1.3,0.6,2,0.6h5.4c1.2,0,2.3-0.6,2.9-1.6l0.2,0.3c0.7,0.8,1.7,1.3,2.7,1.3h5.5
			c0.7,0,1.4-0.2,1.9-0.6l-0.9,2.8c-0.5,1.6,0.2,3.3,1.6,4.1c2.4,1.1,5.1,1.7,7.7,1.6c3.3,0.1,6.6-0.9,9.3-2.8
			c3.4-2.8,4.6-7.2,5.2-10.3l2.7-15.2C162.1,136.4,161.2,134.8,159.7,134.2z M57.4,160.8c-2.1,1.5-4.6,2.2-7.1,2.1
			c-2.1,0.1-4.1-0.3-6-1.2l1.3-4.1c1.5,0.7,3.2,1,4.8,1c2.7,0,4.7-1.2,5.5-4.9l0.3-1.6l0,0c-1.2,1.7-3.2,2.8-5.3,2.8
			c-3.7,0-5.9-3-5.9-6.6c-0.1-6.5,5-11.9,11.5-12.1h0.7c2.3,0,4.6,0.4,6.8,1.3l-2.8,15.1C60.6,156,59.5,159,57.4,160.8z M73.8,155.4
			c-4,0.3-7.5-2.8-7.8-6.8c0-0.3,0-0.6,0-0.9c-0.3-6.1,4.4-11.3,10.5-11.6h0.5c4-0.3,7.5,2.8,7.8,6.8c0,0.3,0,0.5,0,0.8
			c0,0.6,0,1.2-0.1,1.8l-0.4,1.9C83,152.1,78.7,155.5,73.8,155.4z M86.4,155l1.4-7.1c0.1-0.6,0.3-1.2,0.3-1.8l3.4-17.9H97L91.8,155
			L86.4,155z M108.5,155c0-1.1,0.2-2.3,0.2-3.6l0,0c-1.1,2.4-3.5,4-6.2,4.1c-3.3,0-5.6-2.6-5.6-6.4c-0.2-6.9,5.2-12.6,12-12.9
			c0,0,0,0,0,0c0.4,0,0.8,0,1.1,0c2.1,0,4.1,0.3,6.1,0.9l-1.9,9.6c-0.5,2.7-0.8,5.5-0.8,8.3H108.5z M128.7,155l2-10.2
			c0.1-0.7,0.2-1.3,0.2-2c0-1.3-0.5-2.2-1.8-2.2c-1.7,0-3.8,2.2-4.6,6.3l-1.6,8.2h-5.4l2.3-12.4c0.5-2.3,0.8-4.3,1-6h4.8l-0.3,3.1
			l0,0c1.4-2.2,3.8-3.5,6.4-3.5c2.5-0.2,4.6,1.6,4.8,4.1c0,0.3,0,0.7,0,1c0,1-0.1,2.1-0.3,3.1l-0.2,0.9l0,0l-1.9,9.8L128.7,155z
			 M155.6,152.6c-0.6,3.4-1.8,6.4-3.9,8.2c-2.1,1.5-4.6,2.2-7.1,2.1c-2.1,0.1-4.1-0.3-6-1.2l1.3-4.1c1.5,0.7,3.2,1,4.8,1
			c2.7,0,4.7-1.2,5.5-4.9l0.3-1.6l0,0c-1.2,1.7-3.2,2.8-5.3,2.8c-3.6,0-5.9-3-5.9-6.6c0-0.7,0.1-1.5,0.2-2.2l0,0
			c1-5.9,6.2-10.1,12.1-9.8c2.3,0,4.7,0.4,6.8,1.3L155.6,152.6z"/>
		<path class="st3" d="M144.9,147.3c0,1.9,0.8,3.2,2.5,3.2s3.5-2,4.1-5.1l0.9-4.9c-0.6-0.2-1.3-0.3-2-0.2
			C147.3,140.3,144.9,143.9,144.9,147.3z"/>
	</g>
</g>
<path class="st1" d="M631.7,84.4c-0.1,0.2-0.2,0.4-0.4,0.4l-41.5,17.5c-0.1,0-0.2,0.1-0.3,0.1c-0.1,0-0.2,0-0.3-0.1l-41.4-17.5
	c-0.2-0.1-0.4-0.2-0.4-0.4c-0.1,0.1-0.1,0.2-0.1,0.4v12.5c0,0.3,0.2,0.7,0.5,0.8l41.5,17.5c0.1,0,0.2,0.1,0.3,0.1
	c0.1,0,0.2,0,0.3-0.1L631.3,98c0.3-0.1,0.5-0.5,0.5-0.8V84.7C631.8,84.6,631.8,84.5,631.7,84.4L631.7,84.4z M631.7,63.9
	c-0.1,0.2-0.2,0.4-0.4,0.4l-41.5,17.5c-0.1,0-0.2,0.1-0.3,0.1c-0.1,0-0.2,0-0.3-0.1l-41.4-17.5c-0.2-0.1-0.4-0.2-0.4-0.4
	c-0.1,0.1-0.1,0.2-0.1,0.4v12.5c0,0.4,0.2,0.7,0.5,0.8L589.2,95c0.1,0,0.2,0.1,0.3,0.1c0.1,0,0.2,0,0.3-0.1l41.5-17.5
	c0.3-0.1,0.5-0.5,0.5-0.8V64.3C631.8,64.2,631.8,64,631.7,63.9L631.7,63.9z M631.8,44.1c0-0.4-0.2-0.7-0.5-0.8l-41.4-17.5
	c-0.1,0-0.2-0.1-0.3-0.1c-0.1,0-0.2,0-0.3,0.1l-41.4,17.5c-0.3,0.1-0.5,0.5-0.5,0.8v12.5c0,0.4,0.2,0.7,0.5,0.8l41.5,17.5
	c0.1,0,0.2,0.1,0.3,0.1c0.1,0,0.2,0,0.3-0.1l41.5-17.5c0.3-0.1,0.5-0.5,0.5-0.8C631.8,56.2,631.8,44.5,631.8,44.1L631.8,44.1z
	 M575.3,36.5l7.9-1.6l-1.7-3.6c0-0.1,0-0.1,0-0.2c0.1,0,0.1,0,0.2,0l6.7,2.8l7.9-1.6c0.1,0,0.1,0,0.2,0.1c0,0.1,0,0.2,0,0.2
	l-3.6,3.1l6.6,2.7c0.1,0,0.1,0.1,0.1,0.2c0,0.1-0.1,0.1-0.2,0.1l-9.1-0.7l-3.8,3.4c0,0-0.1,0-0.1,0l0,0c-0.1,0-0.1,0-0.1-0.1
	l-1.8-3.8l-9.1-0.7c-0.1,0-0.2-0.1-0.2-0.2S575.3,36.5,575.3,36.5L575.3,36.5z M568.7,49c-2.4,0-4.9-0.4-7.1-1.3c-1.9-0.8-3-2-3-3.1
	s1-2.2,2.8-2.9c2-0.8,4.2-1.1,6.4-1.1c2.4,0,4.8,0.4,7,1.2c2,0.8,3.1,2,3.1,3.2s-1,2.1-2.7,2.9C573.2,48.6,570.9,49,568.7,49z
	 M595.6,50.6l-4.3,8.6c0,0.1-0.1,0.1-0.2,0.1h-0.1l-15-6.5c-0.1-0.1-0.1-0.2-0.1-0.3c0,0,0.1-0.1,0.1-0.1l19.3-2.1
	c0.1,0,0.2,0,0.2,0.1C595.7,50.5,595.7,50.6,595.6,50.6L595.6,50.6z M620.4,44.8L610,49.3h-0.1l-11.8-5.1c-0.1,0-0.1-0.1-0.1-0.2
	c0-0.1,0-0.1,0.1-0.2l10.4-4.4c0,0,0.1,0,0.1,0l11.8,5c0.1,0,0.1,0.1,0.1,0.2C620.5,44.7,620.5,44.7,620.4,44.8L620.4,44.8z"/>
<g class="st2">
	<path class="st3" d="M543.5,142.9H543c0-0.4-0.2-1.6-0.5-3.7l-7.3,0.8c1,4.3,1.5,8.6,1.4,13c0,3.7-0.2,8.4-0.5,14.1h7.7
		c-0.1-4.1-0.2-10-0.2-17.6c0.7-2.4,3-4,5.6-3.8c1.5,0,2.9,0.3,4.3,0.9l1.7-6.7c-1.5-0.6-3.1-0.9-4.7-1
		C547.6,138.8,544.9,140.3,543.5,142.9z"/>
	<path class="st3" d="M571.8,138.6c-4.5,0-7.9,1.5-10.4,4.5c-2.5,3-3.8,6.7-3.8,10.6c0,3.7,1.4,7.3,4,10c2.6,2.8,6.4,4.2,11.4,4.2
		c3.3,0.1,6.7-0.4,9.8-1.4l0.6-5.6c-3,0.8-6.1,1.3-9.2,1.3c-2.3,0.1-4.5-0.6-6.3-2.1c-1.6-1.4-2.6-3.3-2.8-5.4l18.5-0.3
		c0.1-1.6,0.2-2.9,0.2-3.8c0.1-3.1-0.9-6.2-3-8.6C578.9,139.7,575.9,138.6,571.8,138.6z M565.1,150.5c0.7-4.6,2.8-6.9,6.4-6.9
		c3.8,0,5.6,2.2,5.6,6.6L565.1,150.5z"/>
	<path class="st3" d="M615.2,126.4l-8.1,0.2c0.4,4.6,0.7,9.1,0.7,13.7h-0.4c-1.3-1-3.4-1.5-6.1-1.5c-3.8-0.2-7.5,1.6-9.8,4.7
		c-2.4,3.2-3.6,7-3.5,11c-0.1,3.4,1.1,6.8,3.3,9.5c2.1,2.7,5.4,4.1,8.8,4c2.9,0.1,5.8-0.9,8.1-2.7h0.4c0,0.7,0.1,1.4,0.2,2.1
		l6.8-0.2c-0.4-5.8-0.6-12.9-0.6-21.4S614.9,130.9,615.2,126.4z M602.3,162.6c-2,0.1-3.9-0.9-5-2.6c-1.2-1.9-1.8-4-1.8-6.3
		c-0.1-2.4,0.6-4.8,1.8-6.9c1.2-1.9,3.4-3,5.6-2.8c1.7,0,3.3,0.4,4.8,1.4c0.3,4,0.4,9.1,0.4,15.2C607,161.9,605.1,162.6,602.3,162.6
		z"/>
	<path class="st3" d="M626.7,126.8c-2.6-0.2-4.9,1.8-5.1,4.4c0,0.1,0,0.3,0,0.4c0,1.1,0.4,2.2,1.1,3c0.8,0.9,2,1.3,3.2,1.3
		c1.4,0.1,2.8-0.5,3.7-1.5c0.9-0.9,1.3-2.2,1.3-3.4c0-1.1-0.4-2.2-1.1-3C629,127.2,627.9,126.7,626.7,126.8z"/>
	<path class="st3" d="M629.6,139.2l-8.3,0.8c0.7,4.4,1,8.9,1,13.4c0,5.1-0.1,9.7-0.4,13.7h7.7c-0.3-4.2-0.4-8.7-0.4-13.7
		C629.2,147.6,629.4,142.9,629.6,139.2z"/>
	<path class="st3" d="M653,153.3c-1.8-1.4-3.9-2.4-6.1-3.1c-1.4-0.5-2.7-1.1-4-1.9c-0.6-0.4-1-1.2-1-1.9c0-1.6,1.5-2.4,4.6-2.4
		c2.4,0,4.8,0.4,7,1.3l1-5.7c-2.6-0.7-5.3-1-8-0.9c-3.6,0-6.4,0.8-8.3,2.3c-1.9,1.5-2.9,3.8-2.8,6.1c0,2.1,1,4.2,2.6,5.5
		c1.9,1.4,3.9,2.5,6.2,3.3c3.2,1.3,4.8,2.6,4.8,4c0,0.9-0.5,1.6-1.3,1.9c-1.5,0.5-3.2,0.7-4.8,0.6c-2.4,0-4.9-0.4-7.2-1.3l-1,5.7
		c2.7,0.7,5.4,1.1,8.1,1c8.5,0,12.8-2.9,12.8-8.6C655.7,156.9,654.7,154.8,653,153.3z"/>
</g>
<g>
	<path class="st4" d="M328.6,63.4c0-8.8-7.1-15.9-15.9-15.9c-8.8,0-15.9,7.1-15.9,15.9c0,8.8,7.1,15.9,15.9,15.9
		C321.5,79.3,328.6,72.2,328.6,63.4L328.6,63.4z"/>
	<g class="st2">
		<path class="st3" d="M258.5,63.4c-30,0-54.3,24.3-54.3,54.3s24.3,54.3,54.3,54.3c30,0,54.3-24.3,54.3-54.3l0,0
			C312.7,87.7,288.5,63.4,258.5,63.4z M244,144.8h-22.6v-35.1h4.8v30.8H244V144.8z M268.8,144.8h-4.2v-3.7c-1.8,3-4.3,4.4-8.1,4.4
			c-4.9,0-8.4-3-8.4-7.3v-19l0,0v0h4.3v17.1c0,3.7,1.7,5.5,5.1,5.5c2.1,0,4.1-1,5.2-2.6c0.9-1.4,1.7-3.6,1.7-4.9v-15h4.4V144.8z
			 M265.1,95.2c0-8.8,7.1-15.9,15.9-15.9c8.8,0,15.9,7.1,15.9,15.9c0,8.8-7.1,15.9-15.9,15.9C272.2,111.1,265.1,104,265.1,95.2z
			 M298,141.7v3.2c-1.3,0.4-1.8,0.5-2.8,0.5c-2.6,0-4-1.3-4.1-3.9c-3.2,3-5.4,4.1-8.7,4.1c-5.3,0-8.5-2.8-8.5-7.5
			c0-3.5,2-6.2,5.3-7.3c1.2-0.4,2-0.5,4.4-0.7c7-0.7,7.4-0.9,7.4-3.6c0-2.8-2-4.3-5.9-4.3c-3.6,0-5.4,1.5-5.9,4.9h-4
			c0.2-5.7,3.7-8.5,10.4-8.5c6.1,0,9.7,2.7,9.7,7.2v14.6c0,1.1,0.4,1.5,1.4,1.5C296.9,141.8,297.3,141.8,298,141.7L298,141.7z"/>
		<path class="st3" d="M287.8,132.8l-4.5,0.7c-3.4,0.5-5,1.8-5,4.2c0,2.8,1.6,4.3,4.5,4.3c3.2,0,6.3-1.6,7.5-3.9
			c0.3-0.6,0.3-0.8,0.3-2.1v-1.2l0.1-2.9v-0.1c-0.1,0-0.2,0.2-0.4,0.2C290,132.4,289.2,132.6,287.8,132.8z"/>
	</g>
</g>
</svg>
