<svg xmlns="http://www.w3.org/2000/svg" viewBox="0 0 696.48 207.57"><defs><style>.cls-1{fill:none;}.cls-2{opacity:0.7;}.cls-3{fill:#fff;}</style></defs><title>freeswitch</title><g id="Layer_2" data-name="Layer 2"><g id="Layer_1-2" data-name="Layer 1"><rect class="cls-1" width="696.48" height="207.57"/><g class="cls-2"><path class="cls-3" d="M409,89.71h17.69l-13.5,61.24H394.54L384,113.27l-.69-.07c-1,3.58-2.1,7.15-3.1,10.73-2.3,8.25-4.63,16.49-6.79,24.77-.5,1.9-1.31,2.49-3.24,2.43-4.64-.14-9.28-.08-13.92,0-1.44,0-2.26-.2-2.63-1.94-4.26-19.51-8.64-39-13-58.48a3.21,3.21,0,0,1,.12-.83h17.45L364.6,123l.78,0q2.77-9.91,5.53-19.83C372,99.33,373,95.54,374,91.73a2.45,2.45,0,0,1,2.88-2.18c4.35.14,8.71.18,13.06,0,2.16-.1,2.85.81,3.36,2.7,2.65,9.8,5.43,19.56,8.18,29.33a2.1,2.1,0,0,0,1.15,1.4Z"/><path class="cls-3" d="M613.58,126.27v24.65H594.93V89.81h18.58v21.4h21.25V89.64c6.06,0,11.68-.08,17.29.11.63,0,1.72,1.57,1.72,2.41,0,12.05-.19,24.11-.27,36.16-.05,7.54,0,15.07,0,22.64H634.8V126.27Z"/><path class="cls-3" d="M281.41,131l17.19-1.17c.3,1,.61,1.77.8,2.6,1.59,6.94,8.65,9.29,14.39,7.36,2.68-.9,4.72-2.78,4.77-5.81a5.8,5.8,0,0,0-4.31-5.77c-4.94-1.62-10-2.89-15-4.43a43.2,43.2,0,0,1-6-2.41c-6.28-3-10.14-7.76-9.92-15.08s3.9-12.35,10.38-14.82c10.59-4,21.47-4.18,31.91.61,6,2.74,8.39,8.23,9,14.85l-17.13,1c-3.17-7-5.58-8.54-11.84-7.87-2.65.28-4.54,1.73-4.92,4.32s1.62,3.92,3.82,4.53c5.69,1.59,11.47,2.87,17.12,4.56,5.09,1.52,9.74,4,12.67,8.68,6.21,10,.87,24-11,28a45.11,45.11,0,0,1-29.87-.28C286.33,147.26,280.83,138.52,281.41,131Z"/><path class="cls-3" d="M584.11,107.66l-16.17,3.54c-.22-.2-.42-.3-.5-.46-2.89-6.18-6.7-8.46-13.07-7.81-4.9.5-9,4.46-10.12,10.18a36.37,36.37,0,0,0,.41,16.42c1.31,5.13,4.65,8.06,9.68,8.62,5.36.6,9.63-1.61,11.94-6.34.85-1.74,1.45-3.62,2.21-5.55,4.9,1.45,9.7,2.9,14.52,4.28,1.82.52,1.53,1.58,1.1,3-3.57,11.6-11.69,18.14-24.19,18.59a58.08,58.08,0,0,1-15.51-1.46c-9.33-2.24-14.93-8.92-17.82-17.76a42.09,42.09,0,0,1,0-25.62A26.11,26.11,0,0,1,550.8,89a64.91,64.91,0,0,1,16.41,1.23C576.24,92.24,581.08,99,584.11,107.66Z"/><path class="cls-3" d="M314.69,66.62c-7.4,2.84-14.27,5.54-21.21,8.07a3.48,3.48,0,0,1-2.87-.54C272.38,59.21,251,52.72,228,50.62c-23.83-2.18-46.93.77-68.72,10.89-7,3.25-13.2,8.18-19.82,12.24-.95.58-2.43,1.13-3.33.8-7.29-2.71-14.5-5.63-22-9.3,6-2.71,11.79-5.75,17.9-8.06,16.12-6.09,32.92-9.29,50-11.15a286.29,286.29,0,0,1,46.15-1.4c24.71,1.31,49,4.88,72.08,14.39,4,1.65,7.82,3.77,11.7,5.72A28.69,28.69,0,0,1,314.69,66.62Z"/><path class="cls-3" d="M116.95,102.4H94.44c-5.82,0-5.82,0-5.82,5.75,0,1.76,0,3.52,0,5.58h24v11.94c-5.33,0-10.6,0-15.87,0-8.14-.08-8.14-.11-8.14,7.86,0,5.72,0,11.43,0,17.37h-19V89.78c.84-.07,1.51-.17,2.17-.17,14.05,0,28.1.06,42.15-.07,2.57,0,3.21.85,3.07,3.23C116.81,95.87,116.95,99,116.95,102.4Z"/><path class="cls-3" d="M463.08,104.72c-.06-1.19-.14-2.05-.14-2.92,0-3.94,0-7.87,0-12h57.78v14.9H501.48v46.15h-19c0-1.09,0-2.33,0-3.56,0-13.24-.05-26.49,0-39.73,0-2.2-.57-2.93-2.82-2.87C474.31,104.82,468.87,104.72,463.08,104.72Z"/><path class="cls-3" d="M210.89,133.21H176.55c.14,3.64,1.41,6.41,4.34,8.1,3.17,1.83,7,2.06,9.44-.42,2.75-2.77,5.58-2.27,8.62-2.06,3.53.25,7,.65,10.89,1-3.36,5.7-7.61,9.71-13.86,11.19a44.53,44.53,0,0,1-22-.14c-8.65-2.31-14.52-11-14.74-21.35-.29-14,8.64-23.31,23.3-23.94a44.17,44.17,0,0,1,11.17.89c10.58,2.3,16.42,9.74,17.12,21.24C211,129.41,210.89,131.08,210.89,133.21Zm-17.65-8.32c0-6-3.34-9.5-8.39-9.25a8.05,8.05,0,0,0-7.67,9.25Z"/><path class="cls-3" d="M268.53,133.16h-34c-.11,3.65,1.17,6.33,4.07,8.09,3.16,1.91,6.91,2.11,9.42-.27,2.83-2.68,5.72-2.37,8.86-2.14,3.42.24,6.84.63,10.66,1-3.5,6.53-8.49,10.72-15.42,11.48a70.55,70.55,0,0,1-18.22,0c-9.67-1.48-16.38-10.19-16.81-20.22-.66-15.47,8.92-25.57,24.44-25.46a50.7,50.7,0,0,1,12.26,1.47c8.53,2.21,14.21,10,14.73,19.44C268.63,128.58,268.53,130.65,268.53,133.16Zm-17.46-8.28c-.05-5.9-3.24-9.39-8.25-9.25-4.81.14-8.28,4.11-7.92,9.25Z"/><path class="cls-3" d="M453.12,151H434.64V89.78h18.48Z"/><path class="cls-3" d="M122.78,106.83h15.5l.36,6.1c7.32-8.17,11.86-9.34,18.86-4.86l-4.89,11.37a3,3,0,0,1-.84.15c-7.23-1.71-10.64.47-11.45,7.89-.55,5-.5,10-.65,15.07-.08,2.74,0,5.49,0,8.41H122.78Z"/><path class="cls-3" d="M275.21,81.71c-4.75,1.82-9.3,3.59-13.88,5.26a2.08,2.08,0,0,1-1.71-.55c-8.7-8.44-19.69-12-31.19-13.59-14.58-2.05-29.12-1.38-43.15,3.85A44.57,44.57,0,0,0,169.65,86a3.24,3.24,0,0,1-2.74.68c-4.43-1.6-8.79-3.42-13.25-5.2C181.27,60.91,246.24,60.45,275.21,81.71Z"/><path class="cls-3" d="M241.05,94.78c-3.28,1.25-6.18,2.44-9.14,3.44A3.52,3.52,0,0,1,229.5,98c-10.19-5-20.32-4.82-30.46.14a3.26,3.26,0,0,1-2.16.45c-2.84-1-5.62-2.24-8.52-3.43C199.7,86.09,228.71,85.81,241.05,94.78Z"/></g></g></g></svg>