<svg xmlns="http://www.w3.org/2000/svg" viewBox="0 0 696.48 207.57"><defs><style>.cls-1{opacity:0;}.cls-2{opacity:0.7;}.cls-3{fill:#fff;}.cls-4{fill:#316192;}</style></defs><title>logos4</title><g id="Layer_2" data-name="Layer 2"><g id="Layer_1-2" data-name="Layer 1"><rect class="cls-1" width="696.48" height="207.57"/><g class="cls-2"><path class="cls-3" d="M244.79,72.46c10.78,5.38,14.81,13.09,11.95,24.06-2.38,9.11-9.32,13.41-17.76,14.07-11,.87-22.21.21-33.6.21V38.37c6.46,0,12.78-.2,19.08.06,5.92.25,12,.19,17.69,1.67a16.81,16.81,0,0,1,10.44,24.48C250.92,67.68,247.47,69.83,244.79,72.46Zm-29.24,30.39c6.65,0,13,.38,19.33-.1,7.87-.6,11.73-5.06,11.93-12.67.19-7.4-3.36-12.36-10.5-13-6.8-.62-13.7-.13-20.76-.13Zm.08-56.64V68.87c6.9-.38,13.53-.4,20.06-1.21,5.93-.74,8.55-4.52,8.42-10.57-.12-5.7-3-9.2-8.82-9.81C228.86,46.62,222.37,46.55,215.62,46.21Z"/><path class="cls-3" d="M312.87,72.62c-.52-.39-.28-.11,0,0,10.19,3.84,13.55,12.26,12.3,21.91C324,103.28,317,110,306.61,110.69c-10.92.77-21.93.17-33.14.17V38.38c8.75,0,17.46-.14,26.16.07a39.72,39.72,0,0,1,10.15,1.5c11.93,3.5,14.9,14,11,24C319.42,67.3,315.6,69.71,312.87,72.62ZM283.37,103c5,0,9.65,0,14.27,0a45.17,45.17,0,0,0,5.17-.12c7.25-.86,11.17-4.59,11.86-11.14.72-6.88-1.77-12.78-7.36-13.74-7.82-1.33-15.88-1.21-23.95-1.72Zm0-34c7.38-.5,14.38-.6,21.26-1.58,5-.71,7.31-4.24,7.58-9.31s-1.83-8.66-6.48-10.17c-7.31-2.36-14.81-1.25-22.36-1.23Z"/><path class="cls-3" d="M108,46.87H68.76c-5.79,0-5.79,0-5.59-5.93,0-.65.13-1.29.22-2.25h57.38c.67,3.9.48,7.22-2.34,10.62-13.66,16.42-27,33.06-40.51,49.64-.89,1.09-1.7,2.25-2.94,3.91h46.83v8H62.48c-1-4.32-.07-7.86,2.94-11.48C79,83.06,92.33,66.53,105.74,50.08,106.38,49.29,106.92,48.43,108,46.87Z"/><path class="cls-3" d="M194.48,110.73a7.29,7.29,0,0,1-1.15.34c-8.92.57-8.9.56-11.93-7.75-1.27-3.47-1.7-8.24-4.21-10s-7.15-.59-10.86-.62c-6.11,0-12.22.12-18.32-.07-2.51-.08-3.8.63-4.53,3.12-1.2,4.05-2.9,8-4.15,12-.78,2.49-1.92,3.82-4.77,3.45a60.19,60.19,0,0,0-7.15-.06c4.25-11.13,8.28-21.73,12.35-32.32,4.74-12.35,9.57-24.66,14.18-37.05,1-2.71,2.44-3.53,5.25-3.47,7.59.16,7.6,0,10.28,7q11.75,30.55,23.5,61.1C193.46,107.74,193.91,109.11,194.48,110.73ZM161,48.42,147.89,83.9h26.38Z"/><path class="cls-3" d="M428.72,111.11a80.7,80.7,0,0,1-9.57-.12c-1.13-.14-2.34-1.52-3.08-2.62-6-8.9-11.87-17.87-18.16-27.38-1.75,2.59-3.27,4.84-4.78,7.09-4.12,6.18-8.41,12.24-12.26,18.59-2.1,3.47-4.58,5.15-8.64,4.51a37.72,37.72,0,0,0-5.1,0c1-1.67,1.72-2.87,2.48-4,7-10.6,14-21.23,21.2-31.74,1.36-2,1.29-3.33,0-5.27C384.66,61,378.65,51.79,372.61,42.6c-.78-1.18-1.46-2.42-2.54-4.21a80.67,80.67,0,0,1,9.59.13c1.12.14,2.31,1.53,3.06,2.64,5.11,7.56,10.12,15.19,15.41,23.18,4.76-7.11,9.55-13.63,13.61-20.58,2.55-4.36,5.57-6.33,10.51-5.41a24.87,24.87,0,0,0,3.81,0c-1,1.71-1.74,2.93-2.51,4.08-5.87,8.83-11.66,17.72-17.7,26.43-1.82,2.63-2,4.45-.1,7.25C413,86.71,420,97.52,427.09,108.25,427.57,109,428,109.77,428.72,111.11Z"/><path class="cls-3" d="M341.33,38.5H351v72.41h-9.7Z"/></g><g class="cls-2"><path class="cls-3" d="M103.8,152.12h0l-1.28,4.65Zm6.6,10.09h0Zm-.36,6.94h0l-8.47,0Zm1.78-6.93h0Zm-1,6.34,1.48-5.75-1.48,5.75h0ZM142,142.08l-2.75,13.21Zm-7.07,0-2.09,9.87,2.09-9.87Z"/><path class="cls-3" d="M141.5,141.48h-5.88a.78.78,0,0,0-.72.59l-2.09,9.87-2.09,9.87a.77.77,0,0,1-.72.59h-4.16c-4.12,0-3.64-2.91-2.8-6.9l0-.12.09-.5,0-.09.19-1,.2-1.1c.06-.33.15-.81.21-1.12l.95-4.74.95-4.74a.47.47,0,0,0-.47-.6h-6a.77.77,0,0,0-.72.59l-1.3,6.29-1.3,6.29h0l-.12.58c-1.49,7-1.1,13.62,7,13.83h13a.77.77,0,0,0,.72-.59l2.75-13.21L142,142.08a.47.47,0,0,0-.47-.59Zm23.45,21a.47.47,0,0,1,.47.59l-.57,2.85m-.57,2.85.57-2.85-.57,2.85Zm-.72.6h0c-1.73,0-6.93.05-10.84.05C157.49,169.42,163.57,169.37,163.57,169.37ZM149.23,158.8c0-.31.34-.85.67-.85h-.74C148.84,161.34,149.23,158.8,149.23,158.8Z"/><path class="cls-3" d="M153.27,169.42h0Zm11.68-7a.47.47,0,0,1,.47.59l-.57,2.85-.09.46m-8.71,3h0Zm-1.44,0h0Zm-.44,0h0Zm-.45,0h0Zm.8,0h0Zm9-.05-7.52,0Zm.71-.6.48-2.39-.48,2.39h0Zm-10.25.65h0Zm-.88,0h0Zm.44,0h0Zm-86-10.55.91-4.14-1,4.73-1,4.82.88-4.22c.07-.33.18-.86.25-1.19Zm10.93-17.46H72.08a.79.79,0,0,0-.73.59l-.61,2.76-.61,2.76a.46.46,0,0,0,.46.59H77.1a.78.78,0,0,0,.72-.59l.59-2.76L79,142h0a.47.47,0,0,0-.47-.59Zm-1.4,9.19h0l-1.89,9,1.89-9ZM58.38,180.26s3.25,0,5.32,0c-1.57,0-4.17,0-5.33,0h0ZM69.44,150.6l-.91,4.14Z"/><path class="cls-3" d="M76.67,150H70.16a.78.78,0,0,0-.72.59l-.91,4.14-.91,4.14c-.07.33-.19.86-.25,1.19l-.88,4.22-.88,4.22c-.07.32-.21.85-.31,1.17,0,0-1.22,3.7-3.26,3.65h-.26l-1.77,0h0a.78.78,0,0,0-.73.58l-.67,2.9-.67,2.9a.46.46,0,0,0,.45.6c1.16,0,3.75,0,5.33,0,5.1,0,7.8-2.89,9.52-11.21l2-9.55,1.89-9a.47.47,0,0,0-.47-.59Zm92.43,19.08a.47.47,0,0,1-.47-.59l4.89-23.43m2.38,23.43,2-10Z"/><path class="cls-3" d="M168.7,168.79a2.64,2.64,0,0,1,.05-.89l2.32-11.12-2.45,11.72a.47.47,0,0,0,.47.59h.59C169.37,169.09,168.74,169,168.7,168.79Zm6.81.16a3,3,0,0,1-.92.13h.59a.76.76,0,0,0,.71-.59l.12-.59c-.06.33-.33,1-.51,1.06Zm1.38-5.46.87-4.41h0l-.87,4.41Zm19.31-16.86.27,1.14a.46.46,0,0,1-.46.59M176,167.9l.87-4.41Zm19.92-22.43.27,1.17Zm-18.17,13.61c.06-.33.17-.86.24-1.18l.93-4.47-1.06,5.06Zm-4.16-14.4-.2,1-2.32,11.12,2.45-11.72Z"/><path class="cls-3" d="M196.48,147.77l-.27-1.14-.27-1.17-.14-.59c-.53-2.1-2.08-3.31-5.45-3.31H174.85a.77.77,0,0,0-.72.59l-.24,1.16-.28,1.37-.08.38-2.45,11.72-2.32,11.12a2.65,2.65,0,0,0-.05.89c0,.16.67.3,1,.3h4.9a3,3,0,0,0,.92-.13c.18-.07.44-.73.51-1.06l.87-4.41.87-4.4h0l.12-.59,1.06-5.06.93-4.47a.77.77,0,0,1,.72-.59H196a.46.46,0,0,0,.45-.59Z"/><path class="cls-3" d="M216.34,137.47h-6.13a1.25,1.25,0,0,0-.93.5l-10.92,16.35c-.18.28-.4.23-.47-.09l-.8-3.6a.79.79,0,0,0-.73-.59h-7a.43.43,0,0,0-.43.58l3.15,11.26a2.73,2.73,0,0,1,0,1.17l-1.37,5.45a.45.45,0,0,0,.45.59h6.94a.81.81,0,0,0,.74-.59l1.37-5.45a3.62,3.62,0,0,1,.51-1.07l17.73-24c.2-.27.09-.48-.24-.48h-1.86Zm-55.77,14.11h0a.72.72,0,0,1-.7.63H151a.39.39,0,0,1-.42-.48v0h0v0l0-.15c.85-2.31,2.58-3.83,5.84-3.83,3.66,0,4.38,1.83,4.13,3.89ZM158,141.08c-11.42,0-14.13,7.09-15.65,14.24s-1.39,14.11,10.43,14.11h3.32l7.52,0a.78.78,0,0,0,.71-.6l.48-2.39.09-.46.57-2.85a.47.47,0,0,0-.47-.59H154.33c-4.23,0-5.48-1.15-5-4.52h17a.7.7,0,0,0,.62-.45.69.69,0,0,0,0-.15h0c2.52-9.72,1.8-16.27-9-16.27Zm-54,10.46-.16.58h0l-1.28,4.65-1.28,4.65a.83.83,0,0,1-.76.58H93.69c-5.15,0-6.4-4.12-5.15-10.19s3.71-10.07,8.78-10.46c6.93-.53,8.31,4.45,6.64,10.19Zm4.66,10.1s3.2-7.94,3.93-12.53c1-6.14-2-15.05-13.64-15.05s-16.58,8.5-18.49,17.75S81,169.29,92.5,169.22l9.06,0,8.47,0a.82.82,0,0,0,.74-.59l1.48-5.75a.45.45,0,0,0-.44-.59H109a.37.37,0,0,1-.4-.43.56.56,0,0,1,0-.14h0Z"/><path class="cls-3" d="M165.83,156.32a.39.39,0,1,1-.39-.4A.39.39,0,0,1,165.83,156.32Z"/></g><g class="cls-2"><path class="cls-3" d="M389.47,145.21h-4.84l-1.86,11.16h4.46c3.35-.37,6.32-1.49,6.7-7.81C393.94,146.32,392.08,145.21,389.47,145.21Z"/><path class="cls-3" d="M439.32,145.21h-4.84l-1.86,11.16h4.46c3.35-.37,6.32-1.49,6.69-7.81C443.78,146.32,441.92,145.21,439.32,145.21Z"/><path class="cls-3" d="M411.79,124.75c-30,0-54.31,12.66-54.31,28.27s24.31,28.27,54.31,28.27S466.1,168.63,466.1,153,441.78,124.75,411.79,124.75ZM388,161.95h-6.69l-1.49,7.81h-7.07l6-30.13h13.76c6,.37,8.93,3.35,8.93,8.56C401.38,157.11,394.31,162.32,388,161.95Zm28-16.74h-5.58l-3.35,16.74H400l6-30.13H413l-1.49,7.81h6.69c6,.37,8.18,3.35,7.44,7.07l-2.6,15.25h-7.44l2.6-13.76C418.59,146.32,418.59,145.21,416,145.21Zm21.84,16.74h-6.7l-1.49,7.81h-7.07l6-30.13h13.76c6,.37,8.93,3.35,8.93,8.56C451.22,157.11,444.15,162.32,437.83,161.95Z"/></g><g class="cls-2"><path class="cls-3" d="M561.26,98.43l-.84-.25c-4,3-10.64,1.75-15,.93a18.47,18.47,0,0,0,4.8,3.11,24.46,24.46,0,0,0,8,1.71,18.47,18.47,0,0,0,4.44-.21,3.45,3.45,0,0,0,1.42-.45C564.27,99.27,562.42,98.77,561.26,98.43Z"/><path class="cls-3" d="M563,88.69a20,20,0,0,0,.89-1.83c.25-.6.8-1.61,1.54-2.92,2.72-4.88,8.05-14.45,7.12-20.33-.52-3.29-3.5-5.39-11.21-4.44h0a31.4,31.4,0,0,0,.51,4.79,47.87,47.87,0,0,1,.6,5.58,44.14,44.14,0,0,1-.45,6.3C561.53,80,561,84.41,563,88.69Zm1.48-27.18c.06-.41.45-.7,1-.84a5.37,5.37,0,0,1,2-.06,6,6,0,0,1,1.87.58c.56.32.79.68.78,1,0,.52-.52,1-1.21,1.43a2.94,2.94,0,0,1-1.74.37,3.3,3.3,0,0,1-2-1.07A2.12,2.12,0,0,1,564.5,61.51Z"/><path class="cls-3" d="M601.62,99a1.16,1.16,0,0,0-.76-.35,2.69,2.69,0,0,0-1.54.51A3.88,3.88,0,0,0,598,101a2.67,2.67,0,0,0,.14,2.37,12.22,12.22,0,0,0,8.07,5.19,17.26,17.26,0,0,0,7-.39,7.43,7.43,0,0,0,2.26-1,10.22,10.22,0,0,0-2.39-.72h0c-6.4-1.32-7-2.12-9.11-4.75A31,31,0,0,0,601.62,99Z"/><path class="cls-3" d="M560.69,92a2.18,2.18,0,0,0,.18-.21c-3.46-5.68-2.8-11.17-2.18-16.32a38.09,38.09,0,0,0,.43-5.82,47.24,47.24,0,0,0-.56-5.19A31.8,31.8,0,0,1,558,58c0-.06,0-.12,0-.18a8.72,8.72,0,0,1,.7-3.48A34.53,34.53,0,0,1,561.14,49c3.15-5.76,8.91-13.09,18.07-17.14a40,40,0,0,0-18.58.37,27.3,27.3,0,0,0-14.12,9.55c-2.37,3.05-1.93,11.54,1,21.94A109.24,109.24,0,0,0,560.28,92.5C560.42,92.35,560.56,92.17,560.69,92Z"/><path class="cls-3" d="M601.16,95.32a4.64,4.64,0,0,1,.7.12c-.22-.85-.52-1.79-.88-2.78A29.29,29.29,0,0,0,599.11,88c-2.1-4.69-4.79-10.68-1.79-24.59.86-3.89,3-5.93,5.78-6.79a12.69,12.69,0,0,1,5.62-.29,24.81,24.81,0,0,1,5.33,1.52,20.94,20.94,0,0,1,3,1.52c-.64-8.13-4.18-27.47-23.62-27.14-16.11.25-25.15,10.82-29.32,18.38a31.56,31.56,0,0,0-2.22,4.86,1.8,1.8,0,0,0-.1.29c9.51-1,13.33,2.32,14.12,7.31,1.13,7-4.59,17.28-7.49,22.47-.68,1.23-1.21,2.16-1.38,2.59a22.42,22.42,0,0,1-3.7,6c-.35.45-.66.84-.89,1.17,2.2.62,5.35,1.77,5,8.15h0c.16,1.89.74,7.2,1.4,12.37.55,4.24,1.13,8.52,1.54,11,.58,3.35,1.5,5.76,3.15,7.45s4.12,2.84,7.8,3.64c4.2.9,6.85,0,8.56-1.44a12.72,12.72,0,0,0,3.29-5.12c.54-1.4,1-5.14,1.19-10.14s.27-11.19.14-17.43a10.7,10.7,0,0,1,.37-3.85,7.38,7.38,0,0,1,2.51-3.42A6,6,0,0,1,601.16,95.32Z"/><path class="cls-3" d="M608.41,29.43a25,25,0,0,0-5.76-2.51,30.72,30.72,0,0,0-9.36-1.23c-1.75,0-3.48.14-5.23.31q-1.82.2-3.62.53c-4.2-1.21-14-3.37-23.93-1a34,34,0,0,0-19.3,12.33c-3.7,4.73-3.66,15.48-.23,27.86a116.62,116.62,0,0,0,12.3,28.44c-1.26-.31-3.27-.74-6.44-1.4a9.09,9.09,0,0,0-5.8.35,5.37,5.37,0,0,0-3.31,5.6,7.31,7.31,0,0,0,1.46,3.75,22.8,22.8,0,0,0,8.19,6.07,27.27,27.27,0,0,0,6.5,1.87,34.61,34.61,0,0,0,7.08.49h.21l.84-.08c0,.19,0,.39.08.6,0,.43.08.7.1.89h0c.31,12.57,2.33,19.78,5.51,24.28,3.64,5.21,8.17,6.6,13.27,7.68,13.11,2.8,15.87-5.64,17.41-10.39.1-.27.17-.51.27-.76a29.75,29.75,0,0,0,1.38-6.65c.27-2.45.41-5,.51-7.53,0-.74.06-1.79.1-2.84a17.85,17.85,0,0,0-.08-2.08,18.7,18.7,0,0,0,4.55,1.36,24,24,0,0,0,9.77-.51A13.38,13.38,0,0,0,620.4,112a7.51,7.51,0,0,0,.66-.7,12.3,12.3,0,0,0,3.72,2.14c4.71,1.69,8.85-.08,12.45-4.09,2.61-2.88,4.94-7.12,7-12,6-14.12,9.88-34.49,10.13-39.51C656.46,15.89,618.7,25.93,608.41,29.43ZM651,57.52c-.25,4.84-4.07,24.63-9.86,38.36a41,41,0,0,1-6.4,11.07c-2.68,3-5.62,4.3-8.83,3.15a10.57,10.57,0,0,1-4.49-3.4c-4.11-4.94-7.86-9-9.26-10.49A14.8,14.8,0,0,1,605.48,98a1,1,0,0,1,0,.23q.62.68,1.19,1.4c1.48,1.89,1.94,2.47,7.12,3.54a9.39,9.39,0,0,1,4.49,1.85,2.69,2.69,0,0,1,.93,2.43,3.35,3.35,0,0,1-1.09,1.92,10.09,10.09,0,0,1-4,2,20.64,20.64,0,0,1-8.38.45,15.23,15.23,0,0,1-7.72-3.76c0,4.75,0,9.32-.21,13.19-.25,5.31-.72,9.46-1.44,11.22a15.74,15.74,0,0,1-4.22,6.46c-2.41,2-6,3.31-11.44,2.14-4.36-.93-7.37-2.35-9.53-4.59s-3.33-5.19-4-9.22c-.41-2.37-1-6.73-1.56-11.13-.45-3.5-.86-7-1.13-9.43-.33.1-.7.19-1.07.27a22.66,22.66,0,0,1-5.27.27,27.9,27.9,0,0,1-9.24-2,19,19,0,0,1-6.89-5,3.91,3.91,0,0,1-.82-2,2.23,2.23,0,0,1,1.38-2.33,6.06,6.06,0,0,1,3.7-.1c8.81,1.83,11.44.68,12.22-.06h0a113.16,113.16,0,0,1-14.16-31.17c-3.15-11.4-3.4-21-.37-24.9A30.46,30.46,0,0,1,559.7,29c8.48-2.45,16.85-1.25,21.42-.18L582,29c.1,0,1.83.53,3.05.86a37,37,0,0,1,8.31-1,24.46,24.46,0,0,1,14.57,4C614.09,30.54,653,17.68,651,57.52Z"/><path class="cls-3" d="M610.94,35.34c10,9.84,9.57,27.45,9.55,27.59,0,.43,0,1-.06,1.69a68.11,68.11,0,0,0,.33,13.87,17.71,17.71,0,0,1,.1,4.3A17,17,0,0,1,615,94.29q4.68,5,9,10.25a7.46,7.46,0,0,0,3,2.39c1.71.62,3.48-.31,5.21-2.24A37.35,37.35,0,0,0,638,94.58c5.64-13.37,9.36-32.53,9.59-37.22C649.23,25.23,620,32.37,610.94,35.34Z"/><path class="cls-3" d="M617.44,79a71.05,71.05,0,0,1-.37-14.53c0-.51.06-1,.06-1.52A43.63,43.63,0,0,0,612.79,61a21.11,21.11,0,0,0-4.55-1.3,9.42,9.42,0,0,0-4.14.18c-1.61.51-2.94,1.79-3.46,4.28-2.78,12.86-.35,18.27,1.56,22.51a46.06,46.06,0,0,1,1.92,4.82,31.69,31.69,0,0,1,1,3.21,13.58,13.58,0,0,0,1.54-.12,12.15,12.15,0,0,0,7.28-3.95,13.88,13.88,0,0,0,3.58-8.11A14.33,14.33,0,0,0,617.44,79Zm-9.82-14.67a3.74,3.74,0,0,1-2.1,1.15h0a3.28,3.28,0,0,1-2.24-.56,2.48,2.48,0,0,1-1.09-1.42,1.5,1.5,0,0,1,.93-1.38,6.52,6.52,0,0,1,4-.56h0c.87.22,1.24.64,1.26,1.14A2.44,2.44,0,0,1,607.62,64.29Z"/></g><g class="cls-2"><polygon class="cls-3" points="533.89 164.47 533.89 164.45 533.89 164.46 533.89 164.47"/><path class="cls-3" d="M530.65,158.91l-9.5,0V178l1.92,0,0-8.11h7.07a5.81,5.81,0,0,0,4.19-1.46,5.31,5.31,0,0,0,1.53-4h0a5.65,5.65,0,0,0-1.37-4A4.94,4.94,0,0,0,530.65,158.91Zm3.24,5.56h0q0,3.9-4.2,3.9h-6.64v-7.94l7,0q3.84,0,3.84,4h0Z"/><path class="cls-3" d="M542.95,165.05a6.4,6.4,0,0,0-5,2,6.76,6.76,0,0,0-1.6,4.73,6.92,6.92,0,0,0,1.65,4.8A5.61,5.61,0,0,0,540.1,178a8.24,8.24,0,0,0,2.85.45,6.71,6.71,0,1,0,0-13.38Zm5.13,6.69a7.7,7.7,0,0,1-.29,2.23,4.13,4.13,0,0,1-.91,1.63,4.91,4.91,0,0,1-3.93,1.49,4.66,4.66,0,0,1-3.67-1.44,5.75,5.75,0,0,1-1.27-3.91,7,7,0,0,1,.33-2.23,4.47,4.47,0,0,1,4.61-3.1q5.13,0,5.13,5.33Z"/><path class="cls-3" d="M561.39,171.73A10.94,10.94,0,0,0,558,171a21.69,21.69,0,0,1-3.55-.62,1.72,1.72,0,0,1-1.32-1.65,2,2,0,0,1,1-1.82,5.81,5.81,0,0,1,3-.6q3.91,0,3.91,2.93h1.7q0-4.17-5.56-4.17a12.13,12.13,0,0,0-2.45.22,6,6,0,0,0-1.75.6,3.2,3.2,0,0,0-1.42,2.86,2.75,2.75,0,0,0,1.6,2.73,18.23,18.23,0,0,0,3.72.79,31.39,31.39,0,0,1,3.28.55,1.94,1.94,0,0,1,1.36,1.94q0,2.42-4,2.42a5.65,5.65,0,0,1-3.59-.86,2.63,2.63,0,0,1-.94-2.23l-1.78,0a6.06,6.06,0,0,0,.45,1.9,3.23,3.23,0,0,0,.93,1.22,4.7,4.7,0,0,0,2,.89,13.79,13.79,0,0,0,3,.27q5.78,0,5.78-3.86h0A2.86,2.86,0,0,0,561.39,171.73Z"/><path class="cls-3" d="M570.36,176.82a1.41,1.41,0,0,1-.34,0,2.39,2.39,0,0,1-1.51-.36,1.68,1.68,0,0,1-.41-1.3v-8.42l2.85,0v-1.3l-2.85,0v-4.15h-1.63l0,4.13h-2.11v1.29h2.13v8.66a2.6,2.6,0,0,0,.77,2.14,4.16,4.16,0,0,0,2.52.6,3,3,0,0,0,.45,0c.22,0,.46-.06.74-.12v0l0-1.3Z"/><path class="cls-3" d="M584.28,165.47h-1.63l0,2.16a11.4,11.4,0,0,0-1.54-1.66,6.32,6.32,0,0,0-3.55-.91,6.44,6.44,0,0,0-4.87,1.75,6.25,6.25,0,0,0-1.6,4.61,8.5,8.5,0,0,0,.39,2.69,5.58,5.58,0,0,0,1.18,2,6.43,6.43,0,0,0,4.75,1.68q3.69,0,5.23-2.42l0,2.23a4.56,4.56,0,0,1-1.13,3.31,4.94,4.94,0,0,1-3.69,1.17,5.68,5.68,0,0,1-3.45-.81,3.4,3.4,0,0,1-1.06-2.13l-1.68,0a4.36,4.36,0,0,0,1.49,3q1.41,1.1,4.75,1.1,6.4,0,6.4-5.7h0Zm-2.9,9.66a4.51,4.51,0,0,1-1.53,1,5.28,5.28,0,0,1-2,.34q-5.13,0-5.13-5.06a4.58,4.58,0,0,1,5-5,4.67,4.67,0,0,1,3.64,1.36,5,5,0,0,1,1.25,3.58A5.23,5.23,0,0,1,581.38,175.13Z"/><path class="cls-3" d="M592.67,165.09a5.29,5.29,0,0,0-2.92.65,3.81,3.81,0,0,0-1.3,2h-.09v-2.25l-1.63,0,0,12.47h1.63l0-6.09q0-5.27,4-5.27a7.64,7.64,0,0,1,1.37.14h0v-1.65a1.9,1.9,0,0,0-.45,0Z"/><path class="cls-3" d="M605.64,167.09a5.11,5.11,0,0,0-2.13-1.49,8.1,8.1,0,0,0-3-.5,6.62,6.62,0,0,0-4.92,1.77,6.44,6.44,0,0,0-1.75,4.77,6.74,6.74,0,0,0,1.68,4.82,6.6,6.6,0,0,0,5.13,2,7.52,7.52,0,0,0,2.44-.38,6.1,6.1,0,0,0,2-1,5.55,5.55,0,0,0,1.87-3.12h-1.77q-.91,3.24-4.53,3.24a4.93,4.93,0,0,1-3.93-1.58,5.13,5.13,0,0,1-1.18-3.5H607.2A7.41,7.41,0,0,0,605.64,167.09Zm-.15,3.86h-9.93a6,6,0,0,1,1.39-3.29,4.45,4.45,0,0,1,1.6-1,5.56,5.56,0,0,1,2-.34,4.71,4.71,0,0,1,3.55,1.42,4.5,4.5,0,0,1,1.39,3.22Z"/><path class="cls-3" d="M626.37,168.34q-1.59-1.07-6.12-1.9a29.52,29.52,0,0,1-5.81-1.48,3.34,3.34,0,0,1-1.85-3.24,4,4,0,0,1,1.44-3.32,8.65,8.65,0,0,1,4.82-1.05q6.57,0,6.57,5.25h2.45q0-7-8.86-7-4.9,0-6.92,1.65a5.48,5.48,0,0,0-1.88,4.57,5.06,5.06,0,0,0,2.2,4.66q1.52.95,6.66,1.88a26.72,26.72,0,0,1,5.13,1.3,3.47,3.47,0,0,1,1.85,3.36,4.29,4.29,0,0,1-1.36,3.52q-1.61,1.3-5.21,1.3-7.52,0-7.52-6.24h-2.43q0,3.87,2,5.77,2.49,2.31,7.91,2.31,9,0,9-6.72Q628.53,169.68,626.37,168.34Z"/><path class="cls-3" d="M652,172.87a14.24,14.24,0,0,0,.91-5.27,12.11,12.11,0,0,0-3-8.55,9.8,9.8,0,0,0-3.83-2.64,14.2,14.2,0,0,0-5.13-.87q-5.6,0-8.8,3.26a13.63,13.63,0,0,0,0,17.56,11.75,11.75,0,0,0,8.82,3.32,17.35,17.35,0,0,0,3.81-.37,8.72,8.72,0,0,0,2.76-1.09l3.59,3,1.48-1.61-3.46-2.86A9.61,9.61,0,0,0,652,172.87Zm-4.1,2.35a9.21,9.21,0,0,1-3.07,2,10.58,10.58,0,0,1-3.83.66,9.29,9.29,0,0,1-7-2.78,10.39,10.39,0,0,1-2.66-7.46q0-4.84,2.64-7.54a9.42,9.42,0,0,1,7-2.7,8.88,8.88,0,0,1,7,2.82,8.61,8.61,0,0,1,2,3.24,12.69,12.69,0,0,1,.64,4.18h0A10.58,10.58,0,0,1,647.85,175.22Z"/><polygon class="cls-3" points="656.7 177.15 656.7 156.13 654.41 156.17 654.41 179.09 671 179.06 671.02 177.15 656.7 177.15"/><polygon class="cls-4" points="671 179.06 671 179.06 671 179.06 671 179.06"/></g></g></g></svg>